<svg width="816" height="542" viewBox="0 0 816 542" fill="none" xmlns="http://www.w3.org/2000/svg">
<g clip-path="url(#clip0_392_1471)">
<rect width="542" height="408.001" transform="matrix(0 1 1 0 407.999 0)" fill="#F7CA4B"/>
<rect width="542" height="408.001" transform="matrix(0 1 1 0 -0.000610352 0)" fill="#6CC5BD"/>
<path d="M55.7086 37.5195C56.1966 43.4741 58.1472 46.0686 64.019 49.6222C58.9933 52.4103 57.0454 54.7083 55.7086 60.5801C55.3652 62.4785 55.4201 63.649 55.7086 65.8137C58.815 78.3304 63.9229 81.3469 77.7066 81.1874C83.7431 79.923 86.8911 77.8581 92.0461 71.5379L99.8676 60.5801C104.844 54.331 108.347 52.307 115.022 49.6222C108.841 47.7129 105.498 45.5528 99.8676 38.8279L92.0461 28.1971C87.4249 21.9785 84.2613 19.8337 77.7066 18.057C63.2092 17.8498 58.6136 21.683 55.7086 34.412C55.5556 35.5841 55.5564 36.2503 55.7086 37.5195Z" fill="#F7CA4B"/>
<path d="M776.335 479.092C775.847 485.046 773.897 487.641 768.025 491.194C773.05 493.982 774.998 496.28 776.335 502.152C776.679 504.051 776.624 505.221 776.335 507.386C773.229 519.903 768.121 522.919 754.337 522.76C748.301 521.495 745.153 519.43 739.998 513.11L732.176 502.152C727.199 495.903 723.697 493.879 717.022 491.194C723.203 489.285 726.545 487.125 732.176 480.4L739.998 469.769C744.619 463.551 747.782 461.406 754.337 459.629C768.834 459.422 773.43 463.255 776.335 475.984C776.488 477.156 776.487 477.823 776.335 479.092Z" fill="#6CC5BD"/>
</g>
<defs>
<clipPath id="clip0_392_1471">
<rect width="816" height="542" fill="white"/>
</clipPath>
</defs>
</svg>
