<svg width="816" height="542" viewBox="0 0 816 542" fill="none" xmlns="http://www.w3.org/2000/svg">
<g clip-path="url(#clip0_392_1532)">
<rect width="542" height="408.001" transform="matrix(0 1 1 0 407.999 0)" fill="#6CC5BD"/>
<rect width="542" height="408.001" transform="matrix(0 1 1 0 -0.000610352 0)" fill="#A50000"/>
<path d="M118.804 74.564L118.804 31.0592L117.051 31.0602C114.195 41.6973 111.193 45.3729 103.984 48.9157C101.301 50.0243 99.5727 50.273 96.1752 50.195C101.621 46.1761 103.454 43.2144 104.781 36.804C104.943 35.5139 104.953 34.7896 104.781 33.4575C102.632 25.4857 99.9247 22.9058 92.8286 21.1937C90.9478 20.9647 89.8996 20.9481 88.0479 21.1964C80.9247 23.0705 78.4197 25.5212 76.5741 32.358C76.4711 33.8959 76.4827 34.7737 76.5741 36.3419C76.8832 38.4933 77.3558 39.6297 78.8051 41.5995C75.5983 39.7106 73.8193 39.0648 70.6778 38.5763C69.371 38.3265 68.6379 38.3138 67.3313 38.5782C60.6976 40.8066 58.0821 43.2324 56.1762 50.5364C55.944 52.2123 55.9384 53.1598 56.1762 54.8391C58.4202 62.2503 60.5983 65.2365 67.3313 66.944C68.5878 67.0813 69.3313 67.0499 70.6778 66.9421C74.0483 66.3601 75.8263 65.6632 78.8051 63.7503C77.4302 65.6922 76.9268 66.8985 76.5741 69.3291C76.4076 70.8217 76.4212 71.6619 76.5741 73.1537C78.4305 79.7324 80.8699 82.202 88.0479 84.143L92.8286 84.1402C100.741 81.6126 103.525 79.0807 104.781 72.0222L104.781 67.8789C102.939 60.8398 100.842 58.3394 96.1752 55.1351L99.3623 55.1333C109.785 57.7332 113.788 61.7779 117.21 74.2462L118.804 74.564Z" fill="#6CC5BD"/>
<path d="M714 468.627V512.268L715.758 512.267C718.623 501.596 721.635 497.909 728.867 494.355C731.557 493.243 733.291 492.994 736.699 493.072C731.236 497.104 729.397 500.074 728.067 506.505C727.904 507.799 727.894 508.525 728.067 509.862C730.222 517.858 732.938 520.446 740.056 522.164C741.943 522.394 742.995 522.41 744.852 522.161C751.998 520.281 754.51 517.823 756.362 510.965C756.465 509.422 756.453 508.541 756.362 506.968C756.052 504.81 755.578 503.67 754.124 501.694C757.341 503.589 759.125 504.237 762.276 504.727C763.587 504.978 764.323 504.99 765.633 504.725C772.288 502.49 774.911 500.056 776.823 492.73C777.056 491.048 777.062 490.098 776.823 488.414C774.572 480.979 772.387 477.984 765.633 476.271C764.373 476.133 763.627 476.165 762.276 476.273C758.895 476.857 757.112 477.556 754.124 479.474C755.503 477.527 756.008 476.316 756.362 473.878C756.529 472.381 756.515 471.538 756.362 470.042C754.499 463.443 752.053 460.965 744.852 459.018L740.056 459.021C732.119 461.557 729.326 464.096 728.067 471.177V475.333C729.914 482.394 732.018 484.902 736.699 488.117L733.502 488.118C723.047 485.51 719.032 481.453 715.599 468.946L714 468.627Z" fill="#A50000"/>
</g>
<defs>
<clipPath id="clip0_392_1532">
<rect width="816" height="542" fill="white"/>
</clipPath>
</defs>
</svg>
