<svg width="327" height="343" viewBox="0 0 327 343" fill="none" xmlns="http://www.w3.org/2000/svg">
<path d="M196.361 68.8177C253.046 87.2359 284.068 148.12 265.649 204.805C247.231 261.49 186.348 292.512 129.662 274.094C72.9771 255.675 41.9555 194.792 60.3736 138.107C78.7917 81.4213 139.675 50.3995 196.361 68.8177Z" fill="#6CC5BD" stroke="black" stroke-width="4"/>
<path d="M204.977 271.605L205.17 272.636L203.865 273.301L201.706 273.32L196.528 275.371L186.977 278.624L177.27 280.289L167.501 280.964L163.325 258.62C179.039 259.025 186.624 256.796 200.321 250.216L204.977 271.605Z" fill="#A50000" stroke="#A50000" stroke-width="4" stroke-linejoin="round"/>
<path d="M205.12 271.181L200.465 249.793C186.767 256.373 179.182 258.601 163.468 258.196L167.645 280.541" stroke="#A50000" stroke-width="4" stroke-linejoin="round"/>
<path d="M270.113 186.772L271.102 187.12L271.025 188.583L269.963 190.462L269.15 195.972L267.192 205.87L263.78 215.109L259.48 223.906L238.041 216.351C246.249 202.945 248.112 195.262 249.262 180.109L270.113 186.772Z" fill="#A50000" stroke="#A50000" stroke-width="4" stroke-linejoin="round"/>
<path d="M269.814 186.44L248.963 179.777C247.813 194.93 245.951 202.613 237.743 216.019L259.182 223.574" stroke="#A50000" stroke-width="4" stroke-linejoin="round"/>
<path d="M67.7644 120.403L66.7594 120.103L65.9618 121.331L65.7166 123.476L63.1356 128.411L58.9025 137.57L56.2315 147.05L54.5392 156.694L76.3248 163.183C77.5644 147.513 80.5737 140.203 88.5495 127.268L67.7644 120.403Z" fill="#A50000" stroke="#A50000" stroke-width="4" stroke-linejoin="round"/>
<path d="M68.2038 120.309L88.9888 127.175C81.013 140.109 78.0037 147.42 76.7641 163.09L54.9785 156.601" stroke="#A50000" stroke-width="4" stroke-linejoin="round"/>
<path d="M70.3143 227.699L69.5521 228.42L70.2169 229.725L71.9522 231.01L74.9353 235.712L80.7506 243.958L87.6248 251.011L95.1313 257.299L111.644 241.676C98.6926 232.768 93.8662 226.506 86.6526 213.132L70.3143 227.699Z" fill="#A50000" stroke="#A50000" stroke-width="4" stroke-linejoin="round"/>
<path d="M70.4516 227.275L86.7899 212.707C94.0035 226.082 98.8299 232.343 111.781 241.252L95.2686 256.874" stroke="#A50000" stroke-width="4" stroke-linejoin="round"/>
<path d="M256.149 115.038L256.911 114.318L256.246 113.013L254.511 111.728L251.528 107.025L245.712 98.7798L238.838 91.7268L231.332 85.4388L214.819 101.061C227.77 109.97 232.597 116.231 239.81 129.606L256.149 115.038Z" fill="#A50000" stroke="#A50000" stroke-width="4" stroke-linejoin="round"/>
<path d="M256.015 115.463L239.677 130.031C232.463 116.657 227.637 110.395 214.686 101.487L231.198 85.8641" stroke="#A50000" stroke-width="4" stroke-linejoin="round"/>
<path d="M121.404 71.4078L121.211 70.377L122.516 69.7121L124.675 69.6925L129.853 67.6414L139.404 64.3888L149.111 62.7235L158.88 62.0485L163.056 84.3931C147.342 83.9879 139.757 86.2165 126.06 92.7966L121.404 71.4078Z" fill="#A50000" stroke="#A50000" stroke-width="4" stroke-linejoin="round"/>
<path d="M121.265 71.8317L125.92 93.2205C139.618 86.6404 147.203 84.4118 162.917 84.817L158.74 62.4724" stroke="#A50000" stroke-width="4" stroke-linejoin="round"/>
<path d="M184.048 65.0603L177.377 85.5901C187.107 86.5277 192.468 88.3058 201.859 93.5447L208.53 73.0149" stroke="#A50000" stroke-width="2" stroke-linejoin="round"/>
<ellipse cx="127.539" cy="255.748" rx="2.21911" ry="2.21911" transform="rotate(18 127.539 255.748)" fill="#A50000"/>
<ellipse cx="142.168" cy="260.503" rx="2.21911" ry="2.21911" transform="rotate(18 142.168 260.503)" fill="#A50000"/>
<ellipse cx="125.434" cy="262.223" rx="2.21911" ry="2.21911" transform="rotate(18 125.434 262.223)" fill="#A50000"/>
<ellipse cx="140.066" cy="266.976" rx="2.21911" ry="2.21911" transform="rotate(18 140.066 266.976)" fill="#A50000"/>
<ellipse cx="123.332" cy="268.693" rx="2.21911" ry="2.21911" transform="rotate(18 123.332 268.693)" fill="#A50000"/>
<ellipse cx="137.961" cy="273.451" rx="2.21911" ry="2.21911" transform="rotate(18 137.961 273.451)" fill="#A50000"/>
<path d="M117.493 269.896L124.164 249.366C132.586 254.326 137.968 256.039 148.646 257.321L141.975 277.85" stroke="#A50000" stroke-width="2" stroke-linejoin="round"/>
<ellipse cx="2.21911" cy="2.21911" rx="2.21911" ry="2.21911" transform="matrix(0.207912 0.978148 -0.978148 0.207911 72.3135 180.096)" fill="#A50000"/>
<ellipse cx="2.21911" cy="2.21911" rx="2.21911" ry="2.21911" transform="matrix(0.207912 0.978148 -0.978148 0.207911 74.8292 191.492)" fill="#A50000"/>
<ellipse cx="2.21911" cy="2.21911" rx="2.21911" ry="2.21911" transform="matrix(0.207912 0.978148 -0.978148 0.207911 62.0362 182.046)" fill="#A50000"/>
<ellipse cx="2.21911" cy="2.21911" rx="2.21911" ry="2.21911" transform="matrix(0.207912 0.978148 -0.978148 0.207911 65.3135 194.932)" fill="#A50000"/>
<ellipse cx="106.375" cy="99.4586" rx="2.21911" ry="2.21911" transform="rotate(138 106.375 99.4586)" fill="#A50000"/>
<ellipse cx="96.5233" cy="99.9434" rx="2.21911" ry="2.21911" transform="rotate(138 96.5233 99.9434)" fill="#A50000"/>
<ellipse cx="94.7538" cy="109.371" rx="2.21911" ry="2.21911" transform="rotate(138 94.7538 109.371)" fill="#A50000"/>
<ellipse cx="97.9608" cy="90.1202" rx="2.21911" ry="2.21911" transform="rotate(138 97.9608 90.1202)" fill="#A50000"/>
<ellipse cx="86.5272" cy="100.415" rx="2.21911" ry="2.21911" transform="rotate(138 86.5272 100.415)" fill="#A50000"/>
<ellipse cx="2.21911" cy="2.21911" rx="2.21911" ry="2.21911" transform="matrix(-0.207912 -0.978148 0.978148 -0.207911 252.521 165.064)" fill="#A50000"/>
<ellipse cx="2.21911" cy="2.21911" rx="2.21911" ry="2.21911" transform="matrix(-0.207912 -0.978148 0.978148 -0.207911 257.032 155.954)" fill="#A50000"/>
<ellipse cx="2.21911" cy="2.21911" rx="2.21911" ry="2.21911" transform="matrix(-0.207912 -0.978148 0.978148 -0.207911 261.36 146.471)" fill="#A50000"/>
<path d="M271.208 163.243L250.093 167.731C250.178 157.956 248.97 152.439 244.741 142.552L265.856 138.064" stroke="#A50000" stroke-width="2" stroke-linejoin="round"/>
<path d="M80.38 101.239L94.824 117.281C100.501 109.323 104.721 105.57 113.954 100.056L99.5097 84.0145" stroke="#A50000" stroke-width="2" stroke-linejoin="round"/>
<ellipse cx="220.213" cy="243.164" rx="2.21911" ry="2.21911" transform="rotate(-42 220.213 243.164)" fill="#A50000"/>
<ellipse cx="239.658" cy="242.067" rx="2.21911" ry="2.21911" transform="rotate(-42 239.658 242.067)" fill="#A50000"/>
<path d="M226.993 258.613L212.549 242.571C221.056 237.757 225.23 233.952 231.679 225.346L246.123 241.388" stroke="#A50000" stroke-width="2" stroke-linejoin="round"/>
<path d="M60.0831 204.381L81.1977 199.893C77.1447 190.998 76.0043 185.466 75.8457 174.713L54.7311 179.201" stroke="#A50000" stroke-width="2" stroke-linejoin="round"/>
<ellipse cx="2.21911" cy="2.21911" rx="2.21911" ry="2.21911" transform="matrix(0.951056 0.309017 0.309017 -0.951057 190.302 80.301)" fill="#A50000"/>
<ellipse cx="163.012" cy="171.456" rx="109.92" ry="109.92" transform="rotate(18 163.012 171.456)" stroke="#B6370D" stroke-width="8"/>
<path d="M177.269 216.015L126.016 199.38L126.688 197.314C140.312 198.016 145.791 195.883 152.723 188.74C155.056 186.003 156.01 184.06 157.218 180.026C150.4 184.908 146.209 185.936 138.15 185.048C136.567 184.746 135.711 184.481 134.207 183.768C125.637 178.188 123.634 174.011 124.332 164.992C124.782 162.688 125.164 161.446 126.165 159.359C131.098 151.68 134.944 149.664 143.704 150.104C145.555 150.57 146.585 150.92 148.398 151.627C150.814 152.814 151.972 153.805 153.738 156.267C152.74 151.765 152.66 149.421 153.286 145.532C153.492 143.896 153.757 143.027 154.569 141.588C159.732 134.622 163.591 132.467 172.925 133.013C174.988 133.381 176.106 133.736 177.994 134.659C185.866 140.137 188.551 143.847 187.986 152.435C187.667 153.968 187.346 154.833 186.704 156.379C184.729 160.128 183.227 161.958 179.834 164.737C182.648 163.859 184.261 163.727 187.26 164.241C189.082 164.615 190.067 164.953 191.766 165.703C198.806 170.407 200.782 174.226 200.322 183.428L198.49 189.062C192.484 197.421 188.436 199.735 179.64 198.515L174.759 196.931C167.171 192.069 165.027 188.641 163.038 181.915L161.817 185.671C160.891 198.95 164.125 205.214 177.504 214.015L177.269 216.015Z" fill="#A50000"/>
</svg>
