<svg width="519" height="562" viewBox="0 0 519 562" fill="none" xmlns="http://www.w3.org/2000/svg">
<ellipse cx="258.542" cy="282.953" rx="219.361" ry="219.367" fill="#6CC5BD"/>
<path d="M400.663 448.391L401.699 450.287L399.645 452.375L395.545 453.72L387.014 460.858L370.931 472.989L353.521 482.115L335.352 489.343L312.906 448.226C343.1 439.511 356.102 430.569 377.924 409.431L400.663 448.391Z" fill="#A50000" stroke="#A50000" stroke-width="3" stroke-linejoin="round"/>
<path d="M478.104 245.789L480.503 245.839L481.37 248.66L480.387 252.879L482.514 263.827L485.25 283.804L484.359 303.427L481.223 322.759L429.228 321.641C437.61 291.161 436.231 275.444 428.02 246.001L478.104 245.789Z" fill="#A50000" stroke="#A50000" stroke-width="3" stroke-linejoin="round"/>
<path d="M40.3511 244.802L37.9935 244.852L37.1412 247.673L38.1074 251.892L36.0168 262.841L33.3281 282.817L34.2033 302.44L37.2858 321.772L88.384 320.654C80.1464 290.174 81.5022 274.457 89.5713 245.015L40.3511 244.802Z" fill="#A50000" stroke="#A50000" stroke-width="3" stroke-linejoin="round"/>
<path d="M114.153 452.292L113.001 454.389L115.013 456.55L119.161 457.812L127.589 465.128L143.54 477.489L160.992 486.539L179.313 493.505L204.27 448.039C173.672 440.025 160.736 430.967 139.311 409.142L114.153 452.292Z" fill="#A50000" stroke="#A50000" stroke-width="3" stroke-linejoin="round"/>
<path d="M403.269 113.674L404.403 111.608L402.384 109.459L398.244 108.184L389.799 100.896L373.827 88.5722L356.382 79.5095L338.085 72.5022L313.526 117.278C344.061 125.403 357.007 134.442 378.495 156.159L403.269 113.674Z" fill="#A50000" stroke="#A50000" stroke-width="3" stroke-linejoin="round"/>
<path d="M116.297 116.011L115.22 114.044L117.259 111.93L121.376 110.614L129.871 103.413L145.907 91.2016L163.332 82.1025L181.554 74.9669L204.886 117.617C174.549 126.085 161.571 135.067 139.889 156.448L116.297 116.011Z" fill="#A50000" stroke="#A50000" stroke-width="3" stroke-linejoin="round"/>
<path d="M232.639 56.3229V111.584C251.661 106.169 262.918 106.258 283.948 111.584V56.3229" stroke="#A50000" stroke-width="3" stroke-linejoin="round"/>
<path d="M243.19 461.896C244.808 461.896 246.119 463.207 246.119 464.824C246.119 466.442 244.808 467.753 243.19 467.753C241.573 467.753 240.262 466.442 240.262 464.824C240.262 463.207 241.573 461.896 243.19 461.896Z" fill="#A50000" stroke="#A50000" stroke-width="3"/>
<path d="M273.894 461.896C275.511 461.896 276.822 463.207 276.822 464.824C276.822 466.442 275.511 467.753 273.894 467.753C272.276 467.753 270.965 466.442 270.965 464.824C270.965 463.207 272.276 461.896 273.894 461.896Z" fill="#A50000" stroke="#A50000" stroke-width="3"/>
<path d="M243.19 475.477C244.808 475.477 246.119 476.788 246.119 478.406C246.119 480.023 244.808 481.334 243.19 481.334C241.573 481.334 240.262 480.023 240.262 478.406C240.262 476.788 241.573 475.477 243.19 475.477Z" fill="#A50000" stroke="#A50000" stroke-width="3"/>
<path d="M273.894 475.477C275.511 475.477 276.822 476.788 276.822 478.406C276.822 480.023 275.511 481.334 273.894 481.334C272.276 481.334 270.965 480.023 270.965 478.406C270.965 476.788 272.276 475.477 273.894 475.477Z" fill="#A50000" stroke="#A50000" stroke-width="3"/>
<path d="M243.19 489.058C244.808 489.058 246.119 490.369 246.119 491.987C246.119 493.604 244.808 494.915 243.19 494.916C241.573 494.916 240.262 493.604 240.262 491.987C240.262 490.369 241.573 489.058 243.19 489.058Z" fill="#A50000" stroke="#A50000" stroke-width="3"/>
<path d="M273.894 489.058C275.511 489.058 276.822 490.369 276.822 491.987C276.822 493.604 275.511 494.915 273.894 494.916C272.276 494.916 270.965 493.604 270.965 491.987C270.965 490.369 272.276 489.058 273.894 489.058Z" fill="#A50000" stroke="#A50000" stroke-width="3"/>
<path d="M232.652 504.331L232.652 454.991C251.675 459.825 262.932 459.746 283.962 454.991L283.962 504.331" stroke="#A50000" stroke-width="3" stroke-linejoin="round"/>
<path d="M92.6418 359.874C93.4505 361.274 92.9705 363.066 91.5698 363.874C90.1692 364.683 88.3779 364.203 87.5692 362.802C86.7605 361.402 87.2406 359.61 88.6412 358.802C90.0419 357.993 91.8331 358.473 92.6418 359.874Z" fill="#A50000" stroke="#A50000" stroke-width="3"/>
<path d="M104.452 379.95C105.261 381.351 104.781 383.142 103.38 383.951C101.98 384.76 100.188 384.28 99.3797 382.879C98.5711 381.478 99.0512 379.687 100.452 378.878C101.852 378.07 103.644 378.55 104.452 379.95Z" fill="#A50000" stroke="#A50000" stroke-width="3"/>
<path d="M74.3372 369.912C75.1458 371.313 74.6658 373.104 73.2652 373.913C71.8645 374.721 70.0732 374.241 69.2645 372.841C68.4558 371.44 68.9359 369.649 70.3365 368.84C71.7372 368.031 73.5284 368.511 74.3372 369.912Z" fill="#A50000" stroke="#A50000" stroke-width="3"/>
<path d="M88.5071 392.351C89.3157 393.751 88.8357 395.543 87.4351 396.351C86.0345 397.16 84.2431 396.68 83.4344 395.279C82.6257 393.879 83.1059 392.087 84.5064 391.279C85.9071 390.47 87.6984 390.95 88.5071 392.351Z" fill="#A50000" stroke="#A50000" stroke-width="3"/>
<path d="M109.176 182.702C108.367 184.102 106.576 184.582 105.175 183.774C103.775 182.965 103.295 181.174 104.103 179.773C104.912 178.372 106.703 177.892 108.104 178.701C109.505 179.51 109.985 181.301 109.176 182.702Z" fill="#A50000" stroke="#A50000" stroke-width="3"/>
<path d="M90.7835 189.695C89.9748 191.096 88.1835 191.576 86.7829 190.767C85.3823 189.958 84.9023 188.167 85.7109 186.766C86.5196 185.366 88.3109 184.886 89.7115 185.695C91.1122 186.503 91.5923 188.294 90.7835 189.695Z" fill="#A50000" stroke="#A50000" stroke-width="3"/>
<path d="M93.2328 208.683C92.424 210.084 90.6328 210.563 89.2321 209.755C87.8316 208.946 87.3515 207.155 88.1601 205.754C88.9688 204.353 90.7601 203.873 92.1608 204.682C93.5614 205.491 94.0415 207.282 93.2328 208.683Z" fill="#A50000" stroke="#A50000" stroke-width="3"/>
<path d="M87.4437 170.165C86.635 171.565 84.8437 172.045 83.443 171.237C82.0425 170.428 81.5624 168.637 82.371 167.236C83.1797 165.835 84.971 165.355 86.3717 166.164C87.7724 166.973 88.2524 168.764 87.4437 170.165Z" fill="#A50000" stroke="#A50000" stroke-width="3"/>
<path d="M72.0921 196.756C71.2834 198.157 69.4921 198.637 68.0915 197.828C66.6909 197.02 66.2108 195.228 67.0195 193.828C67.8282 192.427 69.6195 191.947 71.0201 192.756C72.4208 193.564 72.9008 195.356 72.0921 196.756Z" fill="#A50000" stroke="#A50000" stroke-width="3"/>
<path d="M423.55 211.046C422.741 209.645 423.221 207.854 424.622 207.045C426.022 206.237 427.813 206.716 428.622 208.117C429.431 209.518 428.951 211.309 427.55 212.118C426.15 212.927 424.358 212.447 423.55 211.046Z" fill="#A50000" stroke="#A50000" stroke-width="3"/>
<path d="M426.503 190.969C425.694 189.569 426.174 187.777 427.575 186.969C428.975 186.16 430.767 186.64 431.575 188.041C432.384 189.441 431.904 191.233 430.503 192.041C429.103 192.85 427.311 192.37 426.503 190.969Z" fill="#A50000" stroke="#A50000" stroke-width="3"/>
<path d="M428.864 170.302C428.055 168.901 428.535 167.11 429.936 166.301C431.337 165.493 433.128 165.973 433.937 167.373C434.745 168.774 434.265 170.565 432.865 171.374C431.464 172.183 429.673 171.703 428.864 170.302Z" fill="#A50000" stroke="#A50000" stroke-width="3"/>
<path d="M474.58 191.55L421.515 222.188C417.191 202.692 411.471 192.98 395.829 177.698L448.894 147.06" stroke="#A50000" stroke-width="3" stroke-linejoin="round"/>
<path d="M52.8789 197.47L95.693 222.19C101.021 203.274 106.724 193.552 121.378 177.7L78.5644 152.981" stroke="#A50000" stroke-width="3" stroke-linejoin="round"/>
<path d="M408.787 382.312C409.596 380.912 411.387 380.432 412.787 381.24C414.188 382.049 414.668 383.84 413.859 385.241C413.051 386.642 411.259 387.122 409.859 386.313C408.458 385.504 407.978 383.713 408.787 382.312Z" fill="#A50000" stroke="#A50000" stroke-width="3"/>
<path d="M445.021 368.234C445.83 366.834 447.621 366.354 449.022 367.162C450.422 367.971 450.902 369.762 450.094 371.163C449.285 372.564 447.494 373.044 446.093 372.235C444.692 371.426 444.212 369.635 445.021 368.234Z" fill="#A50000" stroke="#A50000" stroke-width="3"/>
<path d="M442.018 413.704L396.419 387.377C410.409 373.463 415.972 363.66 422.105 342.887L467.703 369.215" stroke="#A50000" stroke-width="3" stroke-linejoin="round"/>
<path d="M77.1406 412.581L120.793 387.377C106.994 373.353 101.428 363.551 95.1077 342.887L51.4551 368.091" stroke="#A50000" stroke-width="3" stroke-linejoin="round"/>
<path d="M258.542 91.6096C260.159 91.6095 261.471 90.2984 261.471 88.6809C261.471 87.0635 260.159 85.7523 258.542 85.7522C256.925 85.7522 255.613 87.0634 255.613 88.6809C255.613 90.2984 256.925 91.6096 258.542 91.6096Z" fill="#A50000" stroke="#A50000" stroke-width="3"/>
<path d="M313.154 358.712H205.721V354.378C231.985 347.317 241.058 339.893 249.796 322.065C252.53 315.432 253.142 311.158 252.945 302.757C243.028 316.224 235.717 320.757 219.888 324.036C216.703 324.438 214.914 324.462 211.624 324.036C191.935 318.724 185.561 312.028 181.323 294.482C180.755 289.831 180.712 287.239 181.323 282.66C185.941 265.046 191.989 258.852 208.87 254.288C212.667 254.033 214.835 254.062 218.708 254.288C224.021 255.052 226.828 256.221 231.694 259.805C227.025 251.875 225.428 247.476 224.217 239.708C223.598 236.477 223.566 234.664 224.217 231.433C229.711 215.029 235.698 208.562 253.732 203.849C257.87 203.275 260.21 203.261 264.357 203.849C282.662 209.398 290.039 214.784 294.265 231.433C294.606 234.54 294.529 236.379 294.265 239.708C292.832 248.042 291.114 252.439 286.394 259.805C291.188 256.405 294.166 255.16 300.168 254.288C303.853 253.876 305.928 253.91 309.612 254.288C325.861 258.879 331.963 264.91 336.766 282.66V294.482C330.535 314.047 324.286 320.932 306.858 324.036H296.626C279.241 319.483 273.063 314.298 265.144 302.757V310.638C271.579 336.411 281.573 346.309 312.367 354.772L313.154 358.712Z" fill="#A50000" stroke="#A50000" stroke-width="3"/>
<path d="M258.296 56.2173C383.694 56.2173 485.349 157.881 485.349 283.288C485.348 408.694 383.694 510.357 258.296 510.357C132.898 510.357 31.2443 408.694 31.2441 283.288C31.2441 157.881 132.898 56.2175 258.296 56.2173Z" stroke="#FDF07E" stroke-width="16"/>
</svg>
