<svg width="723" height="542" viewBox="0 0 723 542" fill="none" xmlns="http://www.w3.org/2000/svg">
<rect width="542" height="363.501" transform="matrix(0 1 1 0 361.312 0)" fill="#F7CA4B"/>
<rect width="542" height="363.501" transform="matrix(0 1 1 0 -2.1875 0)" fill="#6CC5BD"/>
<path d="M45.8803 38.1985C46.3409 43.819 48.1821 46.268 53.7244 49.6222C48.9808 52.2538 47.1422 54.4229 45.8803 59.9652C45.5562 61.7571 45.6081 62.8619 45.8803 64.9052C48.8124 76.7196 53.6338 79.5669 66.6441 79.4163C72.3419 78.2228 75.3132 76.2738 80.179 70.3082L87.5616 59.9652C92.2593 54.0668 95.5653 52.1563 101.866 49.6222C96.0312 47.82 92.8764 45.7811 87.5616 39.4335L80.179 29.3992C75.8171 23.5295 72.831 21.5051 66.6441 19.828C52.9601 19.6324 48.6224 23.2506 45.8803 35.2654C45.7359 36.3717 45.7367 37.0005 45.8803 38.1985Z" fill="#F7CA4B"/>
<path d="M691.04 479.771C690.579 485.391 688.738 487.84 683.196 491.195C687.939 493.826 689.778 495.995 691.04 501.538C691.364 503.33 691.312 504.434 691.04 506.478C688.108 518.292 683.286 521.139 670.276 520.989C664.578 519.795 661.607 517.846 656.741 511.881L649.358 501.538C644.661 495.639 641.355 493.729 635.054 491.195C640.889 489.392 644.043 487.353 649.358 481.006L656.741 470.972C661.103 465.102 664.089 463.077 670.276 461.4C683.96 461.205 688.298 464.823 691.04 476.838C691.184 477.944 691.183 478.573 691.04 479.771Z" fill="#6CC5BD"/>
<ellipse cx="140.215" cy="140.236" rx="140.215" ry="140.236" transform="matrix(-0.891006 -0.45399 -0.45399 0.891006 550 209.833)" fill="#F7CA4B"/>
<path d="M233.213 323.625L232.108 324.381L232.686 326.158L234.615 328.123L237.435 334.644L243.116 346.194L250.369 356.453L258.572 365.874L282.495 349.483C267.955 335.673 263.124 326.821 256.706 308.529L233.213 323.625Z" fill="#6CC5BD" stroke="#6CC5BD" stroke-width="5" stroke-linejoin="round"/>
<path d="M233.47 323.117L256.963 308.02C263.382 326.312 268.213 335.165 282.752 348.975L258.829 365.365" stroke="#6CC5BD" stroke-width="5" stroke-linejoin="round"/>
<path d="M250.987 188.337L249.781 187.758L248.531 189.147L247.794 191.801L243.557 197.504L236.395 208.2L231.137 219.612L227.08 231.428L253.233 243.951C257.923 224.453 263.174 215.841 275.805 201.135L250.987 188.337Z" fill="#6CC5BD" stroke="#6CC5BD" stroke-width="5" stroke-linejoin="round"/>
<path d="M251.555 188.307L276.373 201.105C263.742 215.811 258.491 224.422 253.801 243.921L227.648 231.398" stroke="#6CC5BD" stroke-width="5" stroke-linejoin="round"/>
<path d="M493.366 310.987L494.543 311.623L494.155 313.451L492.441 315.607L490.317 322.387L485.873 334.469L479.731 345.43L472.557 355.657L447.053 341.86C460.071 326.605 463.951 317.295 468.425 298.432L493.366 310.987Z" fill="#6CC5BD" stroke="#6CC5BD" stroke-width="5" stroke-linejoin="round"/>
<path d="M493.054 310.51L468.113 297.955C463.639 316.818 459.759 326.127 446.741 341.382L472.245 355.18" stroke="#6CC5BD" stroke-width="5" stroke-linejoin="round"/>
<path d="M394.28 405.485L394.318 406.822L392.541 407.4L389.816 406.994L382.884 408.545L370.2 410.738L357.637 410.9L345.195 409.802L344.394 380.814C364.111 384.459 374.113 383.164 392.684 377.605L394.28 405.485Z" fill="#6CC5BD" stroke="#6CC5BD" stroke-width="5" stroke-linejoin="round"/>
<path d="M394.538 404.979L392.942 377.099C374.371 382.658 364.369 383.953 344.652 380.308L345.453 409.296" stroke="#6CC5BD" stroke-width="5" stroke-linejoin="round"/>
<path d="M328.284 136.217L328.247 134.879L330.024 134.302L332.748 134.708L339.681 133.156L352.364 130.963L364.927 130.801L377.37 131.899L378.171 160.888C358.453 157.242 348.451 158.538 329.88 164.096L328.284 136.217Z" fill="#6CC5BD" stroke="#6CC5BD" stroke-width="5" stroke-linejoin="round"/>
<path d="M328.03 136.724L329.626 164.604C348.197 159.045 358.199 157.75 377.917 161.396L377.116 132.407" stroke="#6CC5BD" stroke-width="5" stroke-linejoin="round"/>
<path d="M489.184 218.405L490.288 217.65L489.711 215.873L487.781 213.907L484.961 207.386L479.28 195.836L472.027 185.578L463.825 176.157L439.902 192.548C454.441 206.357 459.272 215.21 465.691 233.502L489.184 218.405Z" fill="#6CC5BD" stroke="#6CC5BD" stroke-width="5" stroke-linejoin="round"/>
<path d="M488.924 218.911L465.431 234.008C459.013 215.716 454.181 206.863 439.642 193.054L463.565 176.663" stroke="#6CC5BD" stroke-width="5" stroke-linejoin="round"/>
<path d="M438.404 156.167L425.902 180.705C416.28 172.774 409.841 169.543 396.644 165.798L409.147 141.26" stroke="#6CC5BD" stroke-width="5" stroke-linejoin="round"/>
<mask id="path-19-inside-1_285_604" fill="white">
<ellipse cx="2.83094" cy="2.83095" rx="2.83094" ry="2.83095" transform="matrix(-0.891006 -0.45399 -0.45399 0.891006 321.168 377.939)"/>
</mask>
<ellipse cx="2.83094" cy="2.83095" rx="2.83094" ry="2.83095" transform="matrix(-0.891006 -0.45399 -0.45399 0.891006 321.168 377.939)" fill="#6CC5BD"/>
<path d="M314.838 377.891L319.293 380.161C319.837 379.093 319.412 377.787 318.345 377.243L316.075 381.698L313.805 386.153C309.952 384.19 308.419 379.474 310.383 375.621L314.838 377.891ZM316.075 381.698L318.345 377.243C317.278 376.699 315.972 377.124 315.428 378.191L319.883 380.461L324.338 382.731C322.374 386.585 317.659 388.117 313.805 386.153L316.075 381.698ZM319.883 380.461L315.428 378.191C314.884 379.259 315.308 380.565 316.376 381.109L318.646 376.654L320.916 372.198C324.769 374.162 326.301 378.878 324.338 382.731L319.883 380.461ZM318.646 376.654L316.376 381.109C317.443 381.652 318.749 381.228 319.293 380.161L314.838 377.891L310.383 375.621C312.346 371.767 317.062 370.235 320.916 372.198L318.646 376.654Z" fill="#6CC5BD" mask="url(#path-19-inside-1_285_604)"/>
<mask id="path-21-inside-2_285_604" fill="white">
<ellipse cx="2.83094" cy="2.83095" rx="2.83094" ry="2.83095" transform="matrix(-0.891006 -0.45399 -0.45399 0.891006 303.684 369.029)"/>
</mask>
<ellipse cx="2.83094" cy="2.83095" rx="2.83094" ry="2.83095" transform="matrix(-0.891006 -0.45399 -0.45399 0.891006 303.684 369.029)" fill="#6CC5BD"/>
<path d="M297.354 368.981L301.809 371.25C302.352 370.183 301.928 368.877 300.861 368.333L298.591 372.788L296.321 377.243C292.467 375.28 290.935 370.564 292.899 366.711L297.354 368.981ZM298.591 372.788L300.861 368.333C299.793 367.789 298.487 368.214 297.943 369.281L302.398 371.551L306.853 373.821C304.89 377.674 300.174 379.207 296.321 377.243L298.591 372.788ZM302.398 371.551L297.943 369.281C297.399 370.348 297.824 371.655 298.891 372.198L301.161 367.743L303.431 363.288C307.285 365.252 308.817 369.967 306.853 373.821L302.398 371.551ZM301.161 367.743L298.891 372.198C299.959 372.742 301.265 372.318 301.809 371.25L297.354 368.981L292.899 366.711C294.862 362.857 299.578 361.325 303.431 363.288L301.161 367.743Z" fill="#6CC5BD" mask="url(#path-21-inside-2_285_604)"/>
<mask id="path-23-inside-3_285_604" fill="white">
<ellipse cx="2.83094" cy="2.83095" rx="2.83094" ry="2.83095" transform="matrix(-0.891006 -0.45399 -0.45399 0.891006 317.227 385.674)"/>
</mask>
<ellipse cx="2.83094" cy="2.83095" rx="2.83094" ry="2.83095" transform="matrix(-0.891006 -0.45399 -0.45399 0.891006 317.227 385.674)" fill="#6CC5BD"/>
<path d="M310.897 385.626L315.352 387.896C315.895 386.829 315.471 385.523 314.404 384.979L312.134 389.434L309.864 393.889C306.01 391.925 304.478 387.21 306.442 383.356L310.897 385.626ZM312.134 389.434L314.404 384.979C313.336 384.435 312.03 384.859 311.486 385.927L315.941 388.197L320.396 390.467C318.433 394.32 313.717 395.852 309.864 393.889L312.134 389.434ZM315.941 388.197L311.486 385.927C310.942 386.994 311.367 388.3 312.434 388.844L314.704 384.389L316.974 379.934C320.828 381.898 322.36 386.613 320.396 390.467L315.941 388.197ZM314.704 384.389L312.434 388.844C313.502 389.388 314.808 388.964 315.352 387.896L310.897 385.626L306.442 383.356C308.405 379.503 313.121 377.971 316.974 379.934L314.704 384.389Z" fill="#6CC5BD" mask="url(#path-23-inside-3_285_604)"/>
<mask id="path-25-inside-4_285_604" fill="white">
<ellipse cx="2.83094" cy="2.83095" rx="2.83094" ry="2.83095" transform="matrix(-0.891006 -0.45399 -0.45399 0.891006 299.74 376.765)"/>
</mask>
<ellipse cx="2.83094" cy="2.83095" rx="2.83094" ry="2.83095" transform="matrix(-0.891006 -0.45399 -0.45399 0.891006 299.74 376.765)" fill="#6CC5BD"/>
<path d="M293.41 376.717L297.865 378.987C298.409 377.92 297.985 376.614 296.917 376.07L294.647 380.525L292.377 384.98C288.524 383.016 286.992 378.301 288.955 374.447L293.41 376.717ZM294.647 380.525L296.917 376.07C295.85 375.526 294.544 375.95 294 377.018L298.455 379.288L302.91 381.557C300.947 385.411 296.231 386.943 292.377 384.98L294.647 380.525ZM298.455 379.288L294 377.018C293.456 378.085 293.881 379.391 294.948 379.935L297.218 375.48L299.488 371.025C303.341 372.988 304.874 377.704 302.91 381.557L298.455 379.288ZM297.218 375.48L294.948 379.935C296.015 380.479 297.321 380.054 297.865 378.987L293.41 376.717L288.955 374.447C290.919 370.594 295.634 369.061 299.488 371.025L297.218 375.48Z" fill="#6CC5BD" mask="url(#path-25-inside-4_285_604)"/>
<mask id="path-27-inside-5_285_604" fill="white">
<ellipse cx="2.83094" cy="2.83095" rx="2.83094" ry="2.83095" transform="matrix(-0.891006 -0.45399 -0.45399 0.891006 313.287 393.41)"/>
</mask>
<ellipse cx="2.83094" cy="2.83095" rx="2.83094" ry="2.83095" transform="matrix(-0.891006 -0.45399 -0.45399 0.891006 313.287 393.41)" fill="#6CC5BD"/>
<path d="M306.957 393.362L311.412 395.632C311.956 394.564 311.532 393.258 310.464 392.714L308.194 397.169L305.924 401.625C302.071 399.661 300.539 394.945 302.502 391.092L306.957 393.362ZM308.194 397.169L310.464 392.714C309.397 392.171 308.091 392.595 307.547 393.662L312.002 395.932L316.457 398.202C314.493 402.056 309.778 403.588 305.924 401.625L308.194 397.169ZM312.002 395.932L307.547 393.662C307.003 394.73 307.427 396.036 308.495 396.58L310.765 392.125L313.035 387.67C316.888 389.633 318.42 394.349 316.457 398.202L312.002 395.932ZM310.765 392.125L308.495 396.58C309.562 397.124 310.868 396.699 311.412 395.632L306.957 393.362L302.502 391.092C304.466 387.238 309.181 385.706 313.035 387.67L310.765 392.125Z" fill="#6CC5BD" mask="url(#path-27-inside-5_285_604)"/>
<mask id="path-29-inside-6_285_604" fill="white">
<ellipse cx="2.83094" cy="2.83095" rx="2.83094" ry="2.83095" transform="matrix(-0.891006 -0.45399 -0.45399 0.891006 295.799 384.5)"/>
</mask>
<ellipse cx="2.83094" cy="2.83095" rx="2.83094" ry="2.83095" transform="matrix(-0.891006 -0.45399 -0.45399 0.891006 295.799 384.5)" fill="#6CC5BD"/>
<path d="M289.469 384.452L293.924 386.722C294.468 385.654 294.043 384.348 292.976 383.804L290.706 388.259L288.436 392.714C284.583 390.751 283.05 386.035 285.014 382.182L289.469 384.452ZM290.706 388.259L292.976 383.804C291.909 383.26 290.602 383.685 290.059 384.752L294.514 387.022L298.969 389.292C297.005 393.146 292.29 394.678 288.436 392.714L290.706 388.259ZM294.514 387.022L290.059 384.752C289.515 385.82 289.939 387.126 291.006 387.67L293.276 383.215L295.546 378.76C299.4 380.723 300.932 385.439 298.969 389.292L294.514 387.022ZM293.276 383.215L291.006 387.67C292.074 388.213 293.38 387.789 293.924 386.722L289.469 384.452L285.014 382.182C286.977 378.328 291.693 376.796 295.546 378.76L293.276 383.215Z" fill="#6CC5BD" mask="url(#path-29-inside-6_285_604)"/>
<path d="M313.656 400.994L326.159 376.456C314.087 373.333 307.688 370.023 296.901 361.548L284.398 386.086" stroke="#6CC5BD" stroke-width="5" stroke-linejoin="round"/>
<mask id="path-32-inside-7_285_604" fill="white">
<ellipse cx="2.83095" cy="2.83094" rx="2.83095" ry="2.83094" transform="matrix(-0.838634 0.544694 0.544584 0.838706 435.412 360.736)"/>
</mask>
<ellipse cx="2.83095" cy="2.83094" rx="2.83095" ry="2.83094" transform="matrix(-0.838634 0.544694 0.544584 0.838706 435.412 360.736)" fill="#6CC5BD"/>
<path d="M432.206 366.195L436.399 363.471C435.746 362.466 434.403 362.181 433.398 362.833L436.121 367.027L438.844 371.221C435.217 373.576 430.368 372.545 428.012 368.918L432.206 366.195ZM436.121 367.027L433.398 362.833C432.394 363.486 432.108 364.829 432.761 365.834L436.954 363.111L441.147 360.387C443.502 364.015 442.471 368.865 438.844 371.221L436.121 367.027ZM436.954 363.111L432.761 365.834C433.413 366.839 434.756 367.124 435.761 366.472L433.038 362.278L430.315 358.085C433.942 355.729 438.792 356.76 441.147 360.387L436.954 363.111ZM433.038 362.278L435.761 366.472C436.766 365.819 437.051 364.476 436.399 363.471L432.206 366.195L428.012 368.918C425.657 365.291 426.688 360.441 430.315 358.085L433.038 362.278Z" fill="#6CC5BD" mask="url(#path-32-inside-7_285_604)"/>
<mask id="path-34-inside-8_285_604" fill="white">
<ellipse cx="2.83095" cy="2.83094" rx="2.83095" ry="2.83094" transform="matrix(-0.838634 0.544694 0.544584 0.838706 422.861 368.745)"/>
</mask>
<ellipse cx="2.83095" cy="2.83094" rx="2.83095" ry="2.83094" transform="matrix(-0.838634 0.544694 0.544584 0.838706 422.861 368.745)" fill="#6CC5BD"/>
<path d="M419.655 374.204L423.848 371.48C423.196 370.475 421.852 370.19 420.848 370.842L423.571 375.036L426.293 379.23C422.666 381.585 417.817 380.554 415.462 376.927L419.655 374.204ZM423.571 375.036L420.848 370.842C419.843 371.495 419.557 372.838 420.21 373.843L424.403 371.12L428.596 368.396C430.951 372.024 429.92 376.874 426.293 379.23L423.571 375.036ZM424.403 371.12L420.21 373.843C420.862 374.848 422.205 375.133 423.21 374.481L420.487 370.287L417.764 366.094C421.391 363.738 426.241 364.769 428.596 368.396L424.403 371.12ZM420.487 370.287L423.21 374.481C424.215 373.828 424.5 372.485 423.848 371.48L419.655 374.204L415.462 376.927C413.106 373.3 414.137 368.45 417.764 366.094L420.487 370.287Z" fill="#6CC5BD" mask="url(#path-34-inside-8_285_604)"/>
<mask id="path-36-inside-9_285_604" fill="white">
<ellipse cx="2.83095" cy="2.83094" rx="2.83095" ry="2.83094" transform="matrix(-0.838634 0.544694 0.544584 0.838706 442.924 371.765)"/>
</mask>
<ellipse cx="2.83095" cy="2.83094" rx="2.83095" ry="2.83094" transform="matrix(-0.838634 0.544694 0.544584 0.838706 442.924 371.765)" fill="#6CC5BD"/>
<path d="M439.717 377.223L443.91 374.5C443.258 373.495 441.915 373.21 440.91 373.862L443.633 378.056L446.356 382.249C442.729 384.605 437.879 383.574 435.524 379.947L439.717 377.223ZM443.633 378.056L440.91 373.862C439.906 374.515 439.62 375.858 440.272 376.863L444.466 374.139L448.659 371.416C451.014 375.043 449.983 379.893 446.356 382.249L443.633 378.056ZM444.466 374.139L440.272 376.863C440.925 377.867 442.268 378.153 443.273 377.5L440.55 373.307L437.827 369.113C441.454 366.758 446.303 367.788 448.659 371.416L444.466 374.139ZM440.55 373.307L443.273 377.5C444.277 376.848 444.563 375.504 443.91 374.5L439.717 377.223L435.524 379.947C433.169 376.319 434.2 371.469 437.827 369.113L440.55 373.307Z" fill="#6CC5BD" mask="url(#path-36-inside-9_285_604)"/>
<mask id="path-38-inside-10_285_604" fill="white">
<ellipse cx="2.83095" cy="2.83094" rx="2.83095" ry="2.83094" transform="matrix(-0.838634 0.544694 0.544584 0.838706 428.342 380.434)"/>
</mask>
<ellipse cx="2.83095" cy="2.83094" rx="2.83095" ry="2.83094" transform="matrix(-0.838634 0.544694 0.544584 0.838706 428.342 380.434)" fill="#6CC5BD"/>
<path d="M425.135 385.893L429.328 383.169C428.676 382.164 427.333 381.879 426.328 382.531L429.051 386.725L431.774 390.919C428.147 393.274 423.297 392.243 420.942 388.616L425.135 385.893ZM429.051 386.725L426.328 382.531C425.323 383.184 425.038 384.527 425.69 385.532L429.883 382.809L434.077 380.085C436.432 383.713 435.401 388.563 431.774 390.919L429.051 386.725ZM429.883 382.809L425.69 385.532C426.343 386.537 427.686 386.822 428.691 386.17L425.968 381.976L423.245 377.783C426.872 375.427 431.721 376.458 434.077 380.085L429.883 382.809ZM425.968 381.976L428.691 386.17C429.695 385.517 429.981 384.174 429.328 383.169L425.135 385.893L420.942 388.616C418.587 384.989 419.618 380.139 423.245 377.783L425.968 381.976Z" fill="#6CC5BD" mask="url(#path-38-inside-10_285_604)"/>
<mask id="path-40-inside-11_285_604" fill="white">
<ellipse cx="2.83095" cy="2.83094" rx="2.83095" ry="2.83094" transform="matrix(0.0522702 0.998633 0.998626 -0.0524021 474.459 254.589)"/>
</mask>
<ellipse cx="2.83095" cy="2.83094" rx="2.83095" ry="2.83094" transform="matrix(0.0522702 0.998633 0.998626 -0.0524021 474.459 254.589)" fill="#6CC5BD"/>
<path d="M477.582 260.095L477.321 255.102C476.124 255.165 475.205 256.185 475.268 257.382L480.261 257.119L485.254 256.857C485.48 261.176 482.162 264.861 477.843 265.088L477.582 260.095ZM480.261 257.119L475.268 257.382C475.331 258.578 476.351 259.497 477.547 259.434L477.286 254.441L477.025 249.448C481.344 249.221 485.028 252.538 485.254 256.857L480.261 257.119ZM477.286 254.441L477.547 259.434C478.744 259.371 479.663 258.35 479.6 257.154L474.607 257.416L469.614 257.678C469.388 253.359 472.706 249.674 477.025 249.448L477.286 254.441ZM474.607 257.416L479.6 257.154C479.537 255.958 478.517 255.039 477.321 255.102L477.582 260.095L477.843 265.088C473.524 265.315 469.84 261.997 469.614 257.678L474.607 257.416Z" fill="#6CC5BD" mask="url(#path-40-inside-11_285_604)"/>
<mask id="path-42-inside-12_285_604" fill="white">
<ellipse cx="2.83095" cy="2.83094" rx="2.83095" ry="2.83094" transform="matrix(0.0522702 0.998633 0.998626 -0.0524021 482.902 263.912)"/>
</mask>
<ellipse cx="2.83095" cy="2.83094" rx="2.83095" ry="2.83094" transform="matrix(0.0522702 0.998633 0.998626 -0.0524021 482.902 263.912)" fill="#6CC5BD"/>
<path d="M486.025 269.418L485.764 264.425C484.568 264.488 483.649 265.508 483.711 266.704L488.704 266.442L493.698 266.18C493.924 270.499 490.606 274.184 486.287 274.411L486.025 269.418ZM488.704 266.442L483.711 266.704C483.774 267.901 484.794 268.82 485.991 268.757L485.729 263.764L485.468 258.771C489.787 258.544 493.471 261.861 493.698 266.18L488.704 266.442ZM485.729 263.764L485.991 268.757C487.187 268.694 488.106 267.673 488.043 266.477L483.05 266.739L478.057 267.001C477.831 262.682 481.149 258.997 485.468 258.771L485.729 263.764ZM483.05 266.739L488.043 266.477C487.981 265.281 486.96 264.362 485.764 264.425L486.025 269.418L486.287 274.411C481.968 274.638 478.283 271.32 478.057 267.001L483.05 266.739Z" fill="#6CC5BD" mask="url(#path-42-inside-12_285_604)"/>
<mask id="path-44-inside-13_285_604" fill="white">
<ellipse cx="2.83095" cy="2.83094" rx="2.83095" ry="2.83094" transform="matrix(0.0522702 0.998633 0.998626 -0.0524021 475.998 274.017)"/>
</mask>
<ellipse cx="2.83095" cy="2.83094" rx="2.83095" ry="2.83094" transform="matrix(0.0522702 0.998633 0.998626 -0.0524021 475.998 274.017)" fill="#6CC5BD"/>
<path d="M479.121 279.522L478.86 274.529C477.663 274.592 476.744 275.613 476.807 276.809L481.8 276.547L486.793 276.285C487.019 280.604 483.701 284.289 479.382 284.516L479.121 279.522ZM481.8 276.547L476.807 276.809C476.87 278.005 477.89 278.924 479.086 278.861L478.825 273.868L478.564 268.875C482.883 268.648 486.567 271.966 486.793 276.285L481.8 276.547ZM478.825 273.868L479.086 278.861C480.283 278.799 481.202 277.778 481.139 276.582L476.146 276.844L471.153 277.106C470.927 272.787 474.245 269.102 478.564 268.875L478.825 273.868ZM476.146 276.844L481.139 276.582C481.077 275.385 480.056 274.466 478.86 274.529L479.121 279.522L479.382 284.516C475.063 284.742 471.379 281.425 471.153 277.106L476.146 276.844Z" fill="#6CC5BD" mask="url(#path-44-inside-13_285_604)"/>
<mask id="path-46-inside-14_285_604" fill="white">
<ellipse cx="2.83095" cy="2.83094" rx="2.83095" ry="2.83094" transform="matrix(0.0522702 0.998633 0.998626 -0.0524021 490.473 253.754)"/>
</mask>
<ellipse cx="2.83095" cy="2.83094" rx="2.83095" ry="2.83094" transform="matrix(0.0522702 0.998633 0.998626 -0.0524021 490.473 253.754)" fill="#6CC5BD"/>
<path d="M493.596 259.26L493.334 254.267C492.138 254.33 491.219 255.35 491.282 256.547L496.275 256.285L501.268 256.023C501.494 260.342 498.176 264.026 493.857 264.253L493.596 259.26ZM496.275 256.285L491.282 256.547C491.344 257.743 492.365 258.662 493.561 258.599L493.3 253.606L493.038 248.613C497.357 248.386 501.042 251.704 501.268 256.023L496.275 256.285ZM493.3 253.606L493.561 258.599C494.757 258.536 495.676 257.516 495.614 256.319L490.621 256.581L485.628 256.843C485.401 252.524 488.719 248.839 493.038 248.613L493.3 253.606ZM490.621 256.581L495.614 256.319C495.551 255.123 494.531 254.204 493.334 254.267L493.596 259.26L493.857 264.253C489.538 264.48 485.854 261.162 485.628 256.843L490.621 256.581Z" fill="#6CC5BD" mask="url(#path-46-inside-14_285_604)"/>
<mask id="path-48-inside-15_285_604" fill="white">
<ellipse cx="2.83095" cy="2.83094" rx="2.83095" ry="2.83094" transform="matrix(0.0522702 0.998633 0.998626 -0.0524021 491.5 273.359)"/>
</mask>
<ellipse cx="2.83095" cy="2.83094" rx="2.83095" ry="2.83094" transform="matrix(0.0522702 0.998633 0.998626 -0.0524021 491.5 273.359)" fill="#6CC5BD"/>
<path d="M494.623 278.865L494.362 273.872C493.165 273.935 492.246 274.955 492.309 276.152L497.302 275.89L502.295 275.628C502.521 279.946 499.203 283.631 494.884 283.858L494.623 278.865ZM497.302 275.89L492.309 276.152C492.372 277.348 493.392 278.267 494.588 278.204L494.327 273.211L494.066 268.218C498.385 267.991 502.069 271.309 502.295 275.628L497.302 275.89ZM494.327 273.211L494.588 278.204C495.785 278.141 496.704 277.12 496.641 275.924L491.648 276.186L486.655 276.448C486.429 272.129 489.747 268.444 494.066 268.218L494.327 273.211ZM491.648 276.186L496.641 275.924C496.578 274.728 495.558 273.809 494.362 273.872L494.623 278.865L494.884 283.858C490.565 284.085 486.881 280.767 486.655 276.448L491.648 276.186Z" fill="#6CC5BD" mask="url(#path-48-inside-15_285_604)"/>
<mask id="path-50-inside-16_285_604" fill="white">
<ellipse cx="2.83095" cy="2.83094" rx="2.83095" ry="2.83094" transform="matrix(0.838634 -0.544694 -0.544584 -0.838706 286.443 184.634)"/>
</mask>
<ellipse cx="2.83095" cy="2.83094" rx="2.83095" ry="2.83094" transform="matrix(0.838634 -0.544694 -0.544584 -0.838706 286.443 184.634)" fill="#6CC5BD"/>
<path d="M289.65 179.176L285.457 181.899C286.109 182.904 287.452 183.19 288.457 182.537L285.734 178.344L283.011 174.15C286.638 171.794 291.488 172.825 293.843 176.452L289.65 179.176ZM285.734 178.344L288.457 182.537C289.462 181.885 289.747 180.541 289.095 179.536L284.902 182.26L280.709 184.983C278.353 181.356 279.384 176.506 283.011 174.15L285.734 178.344ZM284.902 182.26L289.095 179.536C288.442 178.532 287.099 178.246 286.095 178.899L288.817 183.092L291.54 187.286C287.913 189.642 283.064 188.611 280.709 184.983L284.902 182.26ZM288.817 183.092L286.095 178.899C285.09 179.551 284.804 180.895 285.457 181.899L289.65 179.176L293.843 176.452C296.198 180.08 295.167 184.93 291.54 187.286L288.817 183.092Z" fill="#6CC5BD" mask="url(#path-50-inside-16_285_604)"/>
<mask id="path-52-inside-17_285_604" fill="white">
<ellipse cx="2.83095" cy="2.83094" rx="2.83095" ry="2.83094" transform="matrix(0.838634 -0.544694 -0.544584 -0.838706 290.59 172.343)"/>
</mask>
<ellipse cx="2.83095" cy="2.83094" rx="2.83095" ry="2.83094" transform="matrix(0.838634 -0.544694 -0.544584 -0.838706 290.59 172.343)" fill="#6CC5BD"/>
<path d="M293.796 166.885L289.603 169.608C290.256 170.613 291.599 170.898 292.604 170.246L289.881 166.052L287.158 161.859C290.785 159.503 295.634 160.534 297.99 164.161L293.796 166.885ZM289.881 166.052L292.604 170.246C293.608 169.593 293.894 168.25 293.241 167.245L289.048 169.969L284.855 172.692C282.5 169.065 283.531 164.215 287.158 161.859L289.881 166.052ZM289.048 169.969L293.241 167.245C292.589 166.24 291.246 165.955 290.241 166.607L292.964 170.801L295.687 174.995C292.06 177.35 287.21 176.319 284.855 172.692L289.048 169.969ZM292.964 170.801L290.241 166.607C289.236 167.26 288.951 168.603 289.603 169.608L293.796 166.885L297.99 164.161C300.345 167.789 299.314 172.639 295.687 174.995L292.964 170.801Z" fill="#6CC5BD" mask="url(#path-52-inside-17_285_604)"/>
<mask id="path-54-inside-18_285_604" fill="white">
<ellipse cx="2.83095" cy="2.83094" rx="2.83095" ry="2.83094" transform="matrix(0.838634 -0.544694 -0.544584 -0.838706 295.244 159.885)"/>
</mask>
<ellipse cx="2.83095" cy="2.83094" rx="2.83095" ry="2.83094" transform="matrix(0.838634 -0.544694 -0.544584 -0.838706 295.244 159.885)" fill="#6CC5BD"/>
<path d="M298.451 154.427L294.258 157.151C294.91 158.155 296.253 158.441 297.258 157.788L294.535 153.595L291.812 149.401C295.439 147.046 300.289 148.076 302.644 151.704L298.451 154.427ZM294.535 153.595L297.258 157.788C298.262 157.136 298.548 155.792 297.896 154.788L293.702 157.511L289.509 160.235C287.154 156.607 288.185 151.757 291.812 149.401L294.535 153.595ZM293.702 157.511L297.896 154.788C297.243 153.783 295.9 153.497 294.895 154.15L297.618 158.343L300.341 162.537C296.714 164.893 291.865 163.862 289.509 160.235L293.702 157.511ZM297.618 158.343L294.895 154.15C293.891 154.802 293.605 156.146 294.258 157.151L298.451 154.427L302.644 151.704C304.999 155.331 303.968 160.181 300.341 162.537L297.618 158.343Z" fill="#6CC5BD" mask="url(#path-54-inside-18_285_604)"/>
<path d="M271.227 166.131L286.223 189.226C294.964 180.332 301.03 176.444 313.764 171.338L298.767 148.243" stroke="#6CC5BD" stroke-width="5" stroke-linejoin="round"/>
<path d="M499.281 282.333L471.783 283.776C473.841 271.476 473.42 264.283 470.066 250.98L497.565 249.537" stroke="#6CC5BD" stroke-width="5" stroke-linejoin="round"/>
<mask id="path-58-inside-19_285_604" fill="white">
<ellipse cx="2.83095" cy="2.83094" rx="2.83095" ry="2.83094" transform="matrix(-0.0522701 -0.998633 -0.998626 0.052402 248.104 286.899)"/>
</mask>
<ellipse cx="2.83095" cy="2.83094" rx="2.83095" ry="2.83094" transform="matrix(-0.0522701 -0.998633 -0.998626 0.052402 248.104 286.899)" fill="#6CC5BD"/>
<path d="M244.981 281.394L245.242 286.387C246.438 286.324 247.357 285.303 247.295 284.107L242.301 284.369L237.308 284.631C237.082 280.312 240.4 276.627 244.719 276.4L244.981 281.394ZM242.301 284.369L247.295 284.107C247.232 282.911 246.211 281.992 245.015 282.055L245.276 287.048L245.538 292.041C241.219 292.268 237.534 288.95 237.308 284.631L242.301 284.369ZM245.276 287.048L245.015 282.055C243.819 282.117 242.9 283.138 242.962 284.334L247.956 284.072L252.949 283.81C253.175 288.129 249.857 291.814 245.538 292.041L245.276 287.048ZM247.956 284.072L242.962 284.334C243.025 285.531 244.046 286.45 245.242 286.387L244.981 281.394L244.719 276.4C249.038 276.174 252.723 279.491 252.949 283.81L247.956 284.072Z" fill="#6CC5BD" mask="url(#path-58-inside-19_285_604)"/>
<mask id="path-60-inside-20_285_604" fill="white">
<ellipse cx="2.83095" cy="2.83094" rx="2.83095" ry="2.83094" transform="matrix(-0.0522701 -0.998633 -0.998626 0.052402 231.555 268.367)"/>
</mask>
<ellipse cx="2.83095" cy="2.83094" rx="2.83095" ry="2.83094" transform="matrix(-0.0522701 -0.998633 -0.998626 0.052402 231.555 268.367)" fill="#6CC5BD"/>
<path d="M228.432 262.861L228.693 267.855C229.889 267.792 230.808 266.771 230.746 265.575L225.753 265.837L220.759 266.099C220.533 261.78 223.851 258.095 228.17 257.868L228.432 262.861ZM225.753 265.837L230.746 265.575C230.683 264.379 229.663 263.46 228.466 263.522L228.728 268.516L228.989 273.509C224.67 273.735 220.986 270.418 220.759 266.099L225.753 265.837ZM228.728 268.516L228.466 263.522C227.27 263.585 226.351 264.606 226.414 265.802L231.407 265.54L236.4 265.278C236.626 269.597 233.308 273.282 228.989 273.509L228.728 268.516ZM231.407 265.54L226.414 265.802C226.476 266.998 227.497 267.917 228.693 267.855L228.432 262.861L228.17 257.868C232.489 257.642 236.174 260.959 236.4 265.278L231.407 265.54Z" fill="#6CC5BD" mask="url(#path-60-inside-20_285_604)"/>
<path d="M225.076 292.041L252.575 290.598C249.245 278.581 248.912 271.384 250.859 257.803L223.36 259.246" stroke="#6CC5BD" stroke-width="5" stroke-linejoin="round"/>
<path d="M424.545 393.676L409.549 370.581C421.229 366.212 427.247 362.251 437.09 352.693L452.086 375.788" stroke="#6CC5BD" stroke-width="5" stroke-linejoin="round"/>
<mask id="path-64-inside-21_285_604" fill="white">
<ellipse cx="417.784" cy="160.471" rx="2.83094" ry="2.83095" transform="rotate(-153 417.784 160.471)"/>
</mask>
<ellipse cx="417.784" cy="160.471" rx="2.83094" ry="2.83095" transform="rotate(-153 417.784 160.471)" fill="#6CC5BD"/>
<path d="M415.262 159.186L419.717 161.456C419.173 162.524 417.867 162.948 416.8 162.404L419.07 157.949L421.339 153.494C417.486 151.531 412.77 153.063 410.807 156.916L415.262 159.186ZM419.07 157.949L416.8 162.404C415.732 161.86 415.308 160.554 415.852 159.487L420.307 161.757L424.762 164.027C426.725 160.173 425.193 155.457 421.339 153.494L419.07 157.949ZM420.307 161.757L415.852 159.487C416.396 158.419 417.702 157.995 418.769 158.539L416.499 162.994L414.229 167.449C418.083 169.412 422.798 167.88 424.762 164.027L420.307 161.757ZM416.499 162.994L418.769 158.539C419.836 159.083 420.261 160.389 419.717 161.456L415.262 159.186L410.807 156.916C408.843 160.77 410.376 165.485 414.229 167.449L416.499 162.994Z" fill="#6CC5BD" mask="url(#path-64-inside-21_285_604)"/>
<path d="M308.349 298.465L369.59 329.692L370.848 327.222C357.925 315.565 354.906 308.699 355.096 296.002C355.462 291.429 356.353 288.816 358.903 284.087C360.649 294.642 363.502 299.349 371.574 305.818C373.273 306.973 374.286 307.507 376.285 308.22C389.049 310.916 394.625 308.955 402.131 300.189C403.804 297.705 404.58 296.241 405.561 293.454C408.038 282.077 406.387 276.79 398.088 269.283C395.997 268.035 394.753 267.421 392.48 266.424C389.229 265.315 387.29 265.165 383.476 265.792C388.438 262.632 390.625 260.59 393.568 256.516C394.858 254.855 395.403 253.831 395.969 251.801C397.596 240.859 396.059 235.434 387.146 227.508C384.953 225.978 383.624 225.29 381.089 224.419C369.045 222.26 363.277 223.185 356.038 231.442C354.943 233.113 354.453 234.182 353.638 236.156C352.037 241.321 351.741 244.325 352.295 249.893C350.548 246.563 349.212 244.988 346.043 242.747C344.062 241.441 342.869 240.857 340.66 240.002C330.066 237.894 324.837 239.557 316.951 248.274L313.521 255.009C311.398 267.967 312.962 273.705 321.997 280.539L327.83 283.513C339.061 285.973 344.086 284.814 351.949 280.541L349.662 285.031C338.518 297.844 329.95 300.578 309.94 296.449L308.349 298.465Z" fill="#6CC5BD" stroke="#6CC5BD" stroke-width="5"/>
</svg>
