<svg width="476" height="491" viewBox="0 0 476 491" fill="none" xmlns="http://www.w3.org/2000/svg">
<ellipse cx="148.554" cy="148.568" rx="148.554" ry="148.568" transform="matrix(-0.891006 -0.45399 -0.45399 0.891006 437.409 180.358)" fill="#F7CA4B"/>
<path d="M101.79 300.905L100.621 301.706L101.232 303.588L103.277 305.671L106.264 312.579L112.283 324.816L119.968 335.684L128.658 345.665L154.003 328.301C138.599 313.67 133.481 304.291 126.68 284.912L101.79 300.905Z" fill="#6CC5BD" stroke="#6CC5BD" stroke-width="5" stroke-linejoin="round"/>
<path d="M102.064 300.367L126.954 284.374C133.755 303.753 138.873 313.132 154.277 327.762L128.932 345.127" stroke="#6CC5BD" stroke-width="5" stroke-linejoin="round"/>
<path d="M120.621 157.577L119.342 156.965L118.018 158.436L117.237 161.248L112.748 167.289L105.161 178.621L99.5908 190.711L95.2923 203.229L123.001 216.496C127.97 195.84 133.532 186.717 146.914 171.136L120.621 157.577Z" fill="#6CC5BD" stroke="#6CC5BD" stroke-width="5" stroke-linejoin="round"/>
<path d="M121.221 157.546L147.515 171.105C134.133 186.685 128.571 195.808 123.602 216.465L95.8933 203.197" stroke="#6CC5BD" stroke-width="5" stroke-linejoin="round"/>
<path d="M377.412 287.523L378.659 288.197L378.247 290.133L376.432 292.417L374.182 299.6L369.474 312.399L362.967 324.012L355.367 334.847L328.346 320.228C342.138 304.067 346.248 294.205 350.987 274.22L377.412 287.523Z" fill="#6CC5BD" stroke="#6CC5BD" stroke-width="5" stroke-linejoin="round"/>
<path d="M377.081 287.017L350.657 273.715C345.917 293.699 341.807 303.562 328.015 319.723L355.036 334.341" stroke="#6CC5BD" stroke-width="5" stroke-linejoin="round"/>
<path d="M272.436 387.633L272.476 389.05L270.593 389.662L267.707 389.232L260.362 390.875L246.924 393.198L233.615 393.37L220.432 392.206L219.582 361.495C240.473 365.357 251.069 363.985 270.745 358.097L272.436 387.633Z" fill="#6CC5BD" stroke="#6CC5BD" stroke-width="5" stroke-linejoin="round"/>
<path d="M272.71 387.098L271.019 357.561C251.344 363.45 240.747 364.822 219.857 360.959L220.706 391.67" stroke="#6CC5BD" stroke-width="5" stroke-linejoin="round"/>
<path d="M202.511 102.362L202.471 100.945L204.353 100.333L207.24 100.763L214.585 99.1197L228.022 96.7965L241.332 96.6252L254.515 97.789L255.364 128.5C234.474 124.638 223.878 126.009 204.202 131.898L202.511 102.362Z" fill="#6CC5BD" stroke="#6CC5BD" stroke-width="5" stroke-linejoin="round"/>
<path d="M202.241 102.9L203.932 132.436C223.607 126.548 234.204 125.176 255.094 129.038L254.245 98.3271" stroke="#6CC5BD" stroke-width="5" stroke-linejoin="round"/>
<path d="M372.978 189.438L374.147 188.637L373.536 186.755L371.491 184.673L368.504 177.764L362.485 165.527L354.8 154.659L346.11 144.678L320.765 162.042C336.169 176.673 341.287 186.052 348.088 205.431L372.978 189.438Z" fill="#6CC5BD" stroke="#6CC5BD" stroke-width="5" stroke-linejoin="round"/>
<path d="M372.704 189.974L347.814 205.967C341.013 186.588 335.895 177.209 320.491 162.579L345.836 145.214" stroke="#6CC5BD" stroke-width="5" stroke-linejoin="round"/>
<path d="M319.178 123.5L305.933 149.496C295.738 141.093 288.916 137.67 274.935 133.702L288.18 107.706" stroke="#6CC5BD" stroke-width="5" stroke-linejoin="round"/>
<mask id="path-15-inside-1_392_1477" fill="white">
<ellipse cx="2.99933" cy="2.99912" rx="2.99933" ry="2.99912" transform="matrix(-0.891006 -0.45399 -0.45399 0.891006 194.977 358.449)"/>
</mask>
<ellipse cx="2.99933" cy="2.99912" rx="2.99933" ry="2.99912" transform="matrix(-0.891006 -0.45399 -0.45399 0.891006 194.977 358.449)" fill="#6CC5BD"/>
<path d="M188.271 358.398L192.726 360.668C193.228 359.683 192.836 358.478 191.852 357.976L189.582 362.432L187.312 366.887C183.376 364.881 181.81 360.064 183.816 356.128L188.271 358.398ZM189.582 362.432L191.852 357.976C190.867 357.475 189.663 357.866 189.161 358.851L193.616 361.121L198.071 363.391C196.065 367.327 191.248 368.892 187.312 366.887L189.582 362.432ZM193.616 361.121L189.161 358.851C188.659 359.836 189.051 361.041 190.035 361.542L192.305 357.087L194.575 352.632C198.511 354.638 200.077 359.454 198.071 363.391L193.616 361.121ZM192.305 357.087L190.035 361.542C191.019 362.044 192.224 361.652 192.726 360.668L188.271 358.398L183.816 356.128C185.822 352.191 190.639 350.626 194.575 352.632L192.305 357.087Z" fill="#6CC5BD" mask="url(#path-15-inside-1_392_1477)"/>
<mask id="path-17-inside-2_392_1477" fill="white">
<ellipse cx="2.99933" cy="2.99912" rx="2.99933" ry="2.99912" transform="matrix(-0.891006 -0.45399 -0.45399 0.891006 176.451 349.009)"/>
</mask>
<ellipse cx="2.99933" cy="2.99912" rx="2.99933" ry="2.99912" transform="matrix(-0.891006 -0.45399 -0.45399 0.891006 176.451 349.009)" fill="#6CC5BD"/>
<path d="M169.745 348.958L174.2 351.227C174.701 350.243 174.31 349.038 173.325 348.536L171.055 352.991L168.786 357.446C164.849 355.441 163.284 350.624 165.29 346.688L169.745 348.958ZM171.055 352.991L173.325 348.536C172.341 348.035 171.136 348.426 170.634 349.411L175.089 351.681L179.545 353.951C177.539 357.887 172.722 359.452 168.786 357.446L171.055 352.991ZM175.089 351.681L170.634 349.411C170.133 350.396 170.524 351.6 171.509 352.102L173.779 347.647L176.049 343.192C179.985 345.197 181.55 350.014 179.545 353.951L175.089 351.681ZM173.779 347.647L171.509 352.102C172.493 352.603 173.698 352.212 174.2 351.227L169.745 348.958L165.29 346.688C167.295 342.751 172.112 341.186 176.049 343.192L173.779 347.647Z" fill="#6CC5BD" mask="url(#path-17-inside-2_392_1477)"/>
<mask id="path-19-inside-3_392_1477" fill="white">
<ellipse cx="2.99933" cy="2.99912" rx="2.99933" ry="2.99912" transform="matrix(-0.891006 -0.45399 -0.45399 0.891006 190.802 366.644)"/>
</mask>
<ellipse cx="2.99933" cy="2.99912" rx="2.99933" ry="2.99912" transform="matrix(-0.891006 -0.45399 -0.45399 0.891006 190.802 366.644)" fill="#6CC5BD"/>
<path d="M184.096 366.593L188.551 368.863C189.052 367.878 188.661 366.673 187.676 366.172L185.406 370.627L183.136 375.082C179.2 373.076 177.635 368.259 179.641 364.323L184.096 366.593ZM185.406 370.627L187.676 366.172C186.692 365.67 185.487 366.061 184.985 367.046L189.44 369.316L193.895 371.586C191.89 375.523 187.073 377.087 183.136 375.082L185.406 370.627ZM189.44 369.316L184.985 367.046C184.484 368.031 184.875 369.236 185.86 369.737L188.13 365.282L190.4 360.827C194.336 362.833 195.901 367.649 193.895 371.586L189.44 369.316ZM188.13 365.282L185.86 369.737C186.844 370.239 188.049 369.848 188.551 368.863L184.096 366.593L179.641 364.323C181.646 360.386 186.463 358.822 190.4 360.827L188.13 365.282Z" fill="#6CC5BD" mask="url(#path-19-inside-3_392_1477)"/>
<mask id="path-21-inside-4_392_1477" fill="white">
<ellipse cx="2.99933" cy="2.99912" rx="2.99933" ry="2.99912" transform="matrix(-0.891006 -0.45399 -0.45399 0.891006 172.276 357.205)"/>
</mask>
<ellipse cx="2.99933" cy="2.99912" rx="2.99933" ry="2.99912" transform="matrix(-0.891006 -0.45399 -0.45399 0.891006 172.276 357.205)" fill="#6CC5BD"/>
<path d="M165.569 357.154L170.024 359.424C170.526 358.439 170.134 357.234 169.15 356.733L166.88 361.188L164.61 365.643C160.674 363.637 159.108 358.821 161.114 354.884L165.569 357.154ZM166.88 361.188L169.15 356.733C168.166 356.231 166.961 356.622 166.459 357.607L170.914 359.877L175.369 362.147C173.363 366.084 168.546 367.648 164.61 365.643L166.88 361.188ZM170.914 359.877L166.459 357.607C165.957 358.592 166.349 359.797 167.333 360.298L169.603 355.843L171.873 351.388C175.809 353.394 177.375 358.211 175.369 362.147L170.914 359.877ZM169.603 355.843L167.333 360.298C168.317 360.8 169.522 360.409 170.024 359.424L165.569 357.154L161.114 354.884C163.12 350.947 167.937 349.383 171.873 351.388L169.603 355.843Z" fill="#6CC5BD" mask="url(#path-21-inside-4_392_1477)"/>
<mask id="path-23-inside-5_392_1477" fill="white">
<ellipse cx="2.99933" cy="2.99912" rx="2.99933" ry="2.99912" transform="matrix(-0.891006 -0.45399 -0.45399 0.891006 186.627 374.839)"/>
</mask>
<ellipse cx="2.99933" cy="2.99912" rx="2.99933" ry="2.99912" transform="matrix(-0.891006 -0.45399 -0.45399 0.891006 186.627 374.839)" fill="#6CC5BD"/>
<path d="M179.92 374.788L184.375 377.058C184.877 376.073 184.485 374.868 183.501 374.367L181.231 378.822L178.961 383.277C175.025 381.272 173.459 376.455 175.465 372.518L179.92 374.788ZM181.231 378.822L183.501 374.367C182.517 373.866 181.312 374.257 180.81 375.242L185.265 377.511L189.72 379.781C187.714 383.718 182.897 385.283 178.961 383.277L181.231 378.822ZM185.265 377.511L180.81 375.242C180.308 376.226 180.7 377.431 181.684 377.933L183.954 373.478L186.224 369.023C190.16 371.028 191.726 375.845 189.72 379.781L185.265 377.511ZM183.954 373.478L181.684 377.933C182.669 378.434 183.873 378.043 184.375 377.058L179.92 374.788L175.465 372.518C177.471 368.582 182.288 367.017 186.224 369.023L183.954 373.478Z" fill="#6CC5BD" mask="url(#path-23-inside-5_392_1477)"/>
<mask id="path-25-inside-6_392_1477" fill="white">
<ellipse cx="2.99933" cy="2.99912" rx="2.99933" ry="2.99912" transform="matrix(-0.891006 -0.45399 -0.45399 0.891006 168.098 365.399)"/>
</mask>
<ellipse cx="2.99933" cy="2.99912" rx="2.99933" ry="2.99912" transform="matrix(-0.891006 -0.45399 -0.45399 0.891006 168.098 365.399)" fill="#6CC5BD"/>
<path d="M161.392 365.348L165.847 367.618C166.349 366.633 165.957 365.428 164.973 364.927L162.703 369.382L160.433 373.837C156.497 371.831 154.931 367.015 156.937 363.078L161.392 365.348ZM162.703 369.382L164.973 364.927C163.989 364.425 162.784 364.817 162.282 365.801L166.737 368.071L171.192 370.341C169.186 374.278 164.369 375.843 160.433 373.837L162.703 369.382ZM166.737 368.071L162.282 365.801C161.78 366.786 162.172 367.991 163.156 368.493L165.426 364.037L167.696 359.582C171.632 361.588 173.198 366.405 171.192 370.341L166.737 368.071ZM165.426 364.037L163.156 368.493C164.14 368.994 165.345 368.603 165.847 367.618L161.392 365.348L156.937 363.078C158.943 359.142 163.76 357.577 167.696 359.582L165.426 364.037Z" fill="#6CC5BD" mask="url(#path-25-inside-6_392_1477)"/>
<path d="M187.02 382.873L200.265 356.878C187.475 353.569 180.696 350.062 169.267 341.083L156.022 367.079" stroke="#6CC5BD" stroke-width="5" stroke-linejoin="round"/>
<mask id="path-28-inside-7_392_1477" fill="white">
<ellipse cx="2.99917" cy="2.99928" rx="2.99917" ry="2.99928" transform="matrix(-0.838646 0.544676 0.544602 0.838695 316.013 340.226)"/>
</mask>
<ellipse cx="2.99917" cy="2.99928" rx="2.99917" ry="2.99928" transform="matrix(-0.838646 0.544676 0.544602 0.838695 316.013 340.226)" fill="#6CC5BD"/>
<path d="M312.616 346.009L316.809 343.285C316.208 342.359 314.968 342.095 314.042 342.697L316.765 346.891L319.488 351.084C315.783 353.491 310.829 352.437 308.423 348.732L312.616 346.009ZM316.765 346.891L314.042 342.697C313.115 343.299 312.852 344.538 313.453 345.465L317.646 342.742L321.84 340.018C324.246 343.723 323.193 348.678 319.488 351.084L316.765 346.891ZM317.646 342.742L313.453 345.465C314.055 346.392 315.294 346.655 316.221 346.053L313.498 341.86L310.775 337.666C314.48 335.26 319.434 336.313 321.84 340.018L317.646 342.742ZM313.498 341.86L316.221 346.053C317.148 345.451 317.411 344.212 316.809 343.285L312.616 346.009L308.423 348.732C306.017 345.027 307.07 340.073 310.775 337.666L313.498 341.86Z" fill="#6CC5BD" mask="url(#path-28-inside-7_392_1477)"/>
<mask id="path-30-inside-8_392_1477" fill="white">
<ellipse cx="2.99917" cy="2.99928" rx="2.99917" ry="2.99928" transform="matrix(-0.838646 0.544676 0.544602 0.838695 302.716 348.711)"/>
</mask>
<ellipse cx="2.99917" cy="2.99928" rx="2.99917" ry="2.99928" transform="matrix(-0.838646 0.544676 0.544602 0.838695 302.716 348.711)" fill="#6CC5BD"/>
<path d="M299.319 354.493L303.513 351.77C302.911 350.843 301.672 350.58 300.745 351.182L303.468 355.375L306.191 359.569C302.486 361.975 297.532 360.922 295.126 357.217L299.319 354.493ZM303.468 355.375L300.745 351.182C299.818 351.784 299.555 353.023 300.157 353.95L304.35 351.226L308.543 348.503C310.949 352.208 309.896 357.162 306.191 359.569L303.468 355.375ZM304.35 351.226L300.157 353.95C300.758 354.876 301.997 355.14 302.924 354.538L300.201 350.344L297.478 346.151C301.183 343.744 306.137 344.798 308.543 348.503L304.35 351.226ZM300.201 350.344L302.924 354.538C303.851 353.936 304.114 352.697 303.513 351.77L299.319 354.493L295.126 357.217C292.72 353.512 293.773 348.557 297.478 346.151L300.201 350.344Z" fill="#6CC5BD" mask="url(#path-30-inside-8_392_1477)"/>
<mask id="path-32-inside-9_392_1477" fill="white">
<ellipse cx="2.99917" cy="2.99928" rx="2.99917" ry="2.99928" transform="matrix(-0.838646 0.544676 0.544602 0.838695 323.971 351.91)"/>
</mask>
<ellipse cx="2.99917" cy="2.99928" rx="2.99917" ry="2.99928" transform="matrix(-0.838646 0.544676 0.544602 0.838695 323.971 351.91)" fill="#6CC5BD"/>
<path d="M320.574 357.693L324.767 354.97C324.166 354.043 322.927 353.779 322 354.381L324.723 358.575L327.446 362.768C323.741 365.175 318.787 364.121 316.381 360.416L320.574 357.693ZM324.723 358.575L322 354.381C321.073 354.983 320.81 356.223 321.411 357.149L325.605 354.426L329.798 351.702C332.204 355.407 331.151 360.362 327.446 362.768L324.723 358.575ZM325.605 354.426L321.411 357.149C322.013 358.076 323.252 358.339 324.179 357.737L321.456 353.544L318.733 349.35C322.438 346.944 327.392 347.997 329.798 351.702L325.605 354.426ZM321.456 353.544L324.179 357.737C325.106 357.135 325.369 355.896 324.767 354.97L320.574 357.693L316.381 360.416C313.975 356.711 315.028 351.757 318.733 349.35L321.456 353.544Z" fill="#6CC5BD" mask="url(#path-32-inside-9_392_1477)"/>
<mask id="path-34-inside-10_392_1477" fill="white">
<ellipse cx="2.99917" cy="2.99928" rx="2.99917" ry="2.99928" transform="matrix(-0.838646 0.544676 0.544602 0.838695 308.524 361.095)"/>
</mask>
<ellipse cx="2.99917" cy="2.99928" rx="2.99917" ry="2.99928" transform="matrix(-0.838646 0.544676 0.544602 0.838695 308.524 361.095)" fill="#6CC5BD"/>
<path d="M305.127 366.877L309.32 364.154C308.718 363.227 307.479 362.964 306.552 363.566L309.275 367.759L311.999 371.953C308.293 374.359 303.34 373.306 300.934 369.601L305.127 366.877ZM309.275 367.759L306.552 363.566C305.626 364.168 305.362 365.407 305.964 366.333L310.157 363.61L314.351 360.887C316.756 364.592 315.704 369.546 311.999 371.953L309.275 367.759ZM310.157 363.61L305.964 366.333C306.566 367.26 307.805 367.524 308.732 366.922L306.009 362.728L303.286 358.535C306.991 356.128 311.945 357.182 314.351 360.887L310.157 363.61ZM306.009 362.728L308.732 366.922C309.659 366.32 309.922 365.08 309.32 364.154L305.127 366.877L300.934 369.601C298.528 365.896 299.581 360.941 303.286 358.535L306.009 362.728Z" fill="#6CC5BD" mask="url(#path-34-inside-10_392_1477)"/>
<mask id="path-36-inside-11_392_1477" fill="white">
<ellipse cx="2.99917" cy="2.99928" rx="2.99917" ry="2.99928" transform="matrix(0.052292 0.998632 0.998627 -0.0523802 357.38 227.772)"/>
</mask>
<ellipse cx="2.99917" cy="2.99928" rx="2.99917" ry="2.99928" transform="matrix(0.052292 0.998632 0.998627 -0.0523802 357.38 227.772)" fill="#6CC5BD"/>
<path d="M360.689 233.605L360.427 228.612C359.324 228.67 358.476 229.611 358.534 230.715L363.527 230.453L368.52 230.191C368.751 234.603 365.362 238.367 360.95 238.598L360.689 233.605ZM363.527 230.453L358.534 230.715C358.592 231.818 359.533 232.666 360.637 232.608L360.375 227.615L360.114 222.622C364.525 222.39 368.289 225.779 368.52 230.191L363.527 230.453ZM360.375 227.615L360.637 232.608C361.74 232.55 362.588 231.609 362.53 230.505L357.537 230.767L352.544 231.029C352.313 226.617 355.702 222.853 360.114 222.622L360.375 227.615ZM357.537 230.767L362.53 230.505C362.472 229.401 361.531 228.554 360.427 228.612L360.689 233.605L360.95 238.598C356.539 238.83 352.775 235.441 352.544 231.029L357.537 230.767Z" fill="#6CC5BD" mask="url(#path-36-inside-11_392_1477)"/>
<mask id="path-38-inside-12_392_1477" fill="white">
<ellipse cx="2.99917" cy="2.99928" rx="2.99917" ry="2.99928" transform="matrix(0.052292 0.998632 0.998627 -0.0523802 366.326 237.649)"/>
</mask>
<ellipse cx="2.99917" cy="2.99928" rx="2.99917" ry="2.99928" transform="matrix(0.052292 0.998632 0.998627 -0.0523802 366.326 237.649)" fill="#6CC5BD"/>
<path d="M369.635 243.482L369.373 238.489C368.27 238.547 367.422 239.488 367.48 240.592L372.473 240.33L377.466 240.068C377.697 244.48 374.308 248.244 369.896 248.475L369.635 243.482ZM372.473 240.33L367.48 240.592C367.538 241.696 368.479 242.543 369.582 242.485L369.321 237.492L369.059 232.499C373.471 232.268 377.235 235.656 377.466 240.068L372.473 240.33ZM369.321 237.492L369.582 242.485C370.686 242.427 371.534 241.486 371.476 240.382L366.483 240.644L361.489 240.906C361.258 236.494 364.648 232.73 369.059 232.499L369.321 237.492ZM366.483 240.644L371.476 240.382C371.418 239.279 370.476 238.431 369.373 238.489L369.635 243.482L369.896 248.475C365.484 248.707 361.721 245.318 361.489 240.906L366.483 240.644Z" fill="#6CC5BD" mask="url(#path-38-inside-12_392_1477)"/>
<mask id="path-40-inside-13_392_1477" fill="white">
<ellipse cx="2.99917" cy="2.99928" rx="2.99917" ry="2.99928" transform="matrix(0.052292 0.998632 0.998627 -0.0523802 359.01 248.354)"/>
</mask>
<ellipse cx="2.99917" cy="2.99928" rx="2.99917" ry="2.99928" transform="matrix(0.052292 0.998632 0.998627 -0.0523802 359.01 248.354)" fill="#6CC5BD"/>
<path d="M362.319 254.187L362.057 249.194C360.954 249.252 360.106 250.193 360.164 251.297L365.157 251.035L370.15 250.773C370.381 255.185 366.992 258.949 362.58 259.18L362.319 254.187ZM365.157 251.035L360.164 251.297C360.222 252.4 361.163 253.248 362.267 253.19L362.005 248.197L361.744 243.204C366.155 242.972 369.919 246.361 370.15 250.773L365.157 251.035ZM362.005 248.197L362.267 253.19C363.37 253.132 364.218 252.191 364.16 251.087L359.167 251.349L354.174 251.611C353.943 247.199 357.332 243.435 361.744 243.204L362.005 248.197ZM359.167 251.349L364.16 251.087C364.102 249.983 363.161 249.136 362.057 249.194L362.319 254.187L362.58 259.18C358.169 259.412 354.405 256.023 354.174 251.611L359.167 251.349Z" fill="#6CC5BD" mask="url(#path-40-inside-13_392_1477)"/>
<mask id="path-42-inside-14_392_1477" fill="white">
<ellipse cx="2.99917" cy="2.99928" rx="2.99917" ry="2.99928" transform="matrix(0.052292 0.998632 0.998627 -0.0523802 374.345 226.888)"/>
</mask>
<ellipse cx="2.99917" cy="2.99928" rx="2.99917" ry="2.99928" transform="matrix(0.052292 0.998632 0.998627 -0.0523802 374.345 226.888)" fill="#6CC5BD"/>
<path d="M377.654 232.721L377.393 227.728C376.289 227.786 375.441 228.727 375.499 229.831L380.492 229.569L385.485 229.307C385.717 233.719 382.327 237.483 377.915 237.714L377.654 232.721ZM380.492 229.569L375.499 229.831C375.557 230.934 376.499 231.782 377.602 231.724L377.34 226.731L377.079 221.738C381.491 221.506 385.254 224.895 385.485 229.307L380.492 229.569ZM377.34 226.731L377.602 231.724C378.705 231.666 379.553 230.725 379.495 229.621L374.502 229.883L369.509 230.145C369.278 225.733 372.667 221.969 377.079 221.738L377.34 226.731ZM374.502 229.883L379.495 229.621C379.437 228.517 378.496 227.67 377.393 227.728L377.654 232.721L377.915 237.714C373.504 237.946 369.74 234.557 369.509 230.145L374.502 229.883Z" fill="#6CC5BD" mask="url(#path-42-inside-14_392_1477)"/>
<mask id="path-44-inside-15_392_1477" fill="white">
<ellipse cx="2.99917" cy="2.99928" rx="2.99917" ry="2.99928" transform="matrix(0.052292 0.998632 0.998627 -0.0523802 375.435 247.658)"/>
</mask>
<ellipse cx="2.99917" cy="2.99928" rx="2.99917" ry="2.99928" transform="matrix(0.052292 0.998632 0.998627 -0.0523802 375.435 247.658)" fill="#6CC5BD"/>
<path d="M378.744 253.491L378.483 248.498C377.379 248.556 376.531 249.497 376.589 250.601L381.582 250.339L386.575 250.077C386.806 254.489 383.417 258.253 379.005 258.484L378.744 253.491ZM381.582 250.339L376.589 250.601C376.647 251.704 377.589 252.552 378.692 252.494L378.43 247.501L378.169 242.508C382.581 242.276 386.344 245.665 386.575 250.077L381.582 250.339ZM378.43 247.501L378.692 252.494C379.795 252.436 380.643 251.495 380.585 250.391L375.592 250.653L370.599 250.915C370.368 246.503 373.757 242.739 378.169 242.508L378.43 247.501ZM375.592 250.653L380.585 250.391C380.527 249.287 379.586 248.44 378.483 248.498L378.744 253.491L379.005 258.484C374.594 258.716 370.83 255.327 370.599 250.915L375.592 250.653Z" fill="#6CC5BD" mask="url(#path-44-inside-15_392_1477)"/>
<mask id="path-46-inside-16_392_1477" fill="white">
<ellipse cx="2.99917" cy="2.99928" rx="2.99917" ry="2.99928" transform="matrix(0.838646 -0.544676 -0.544602 -0.838695 158.184 153.656)"/>
</mask>
<ellipse cx="2.99917" cy="2.99928" rx="2.99917" ry="2.99928" transform="matrix(0.838646 -0.544676 -0.544602 -0.838695 158.184 153.656)" fill="#6CC5BD"/>
<path d="M161.581 147.873L157.388 150.597C157.99 151.523 159.229 151.787 160.156 151.185L157.433 146.992L154.71 142.798C158.415 140.392 163.369 141.445 165.775 145.15L161.581 147.873ZM157.433 146.992L160.156 151.185C161.083 150.583 161.346 149.344 160.744 148.417L156.551 151.141L152.358 153.864C149.952 150.159 151.005 145.204 154.71 142.798L157.433 146.992ZM156.551 151.141L160.744 148.417C160.142 147.491 158.903 147.227 157.977 147.829L160.7 152.022L163.423 156.216C159.717 158.622 154.764 157.569 152.358 153.864L156.551 151.141ZM160.7 152.022L157.977 147.829C157.05 148.431 156.786 149.67 157.388 150.597L161.581 147.873L165.775 145.15C168.181 148.855 167.128 153.81 163.423 156.216L160.7 152.022Z" fill="#6CC5BD" mask="url(#path-46-inside-16_392_1477)"/>
<mask id="path-48-inside-17_392_1477" fill="white">
<ellipse cx="2.99917" cy="2.99928" rx="2.99917" ry="2.99928" transform="matrix(0.838646 -0.544676 -0.544602 -0.838695 162.575 140.634)"/>
</mask>
<ellipse cx="2.99917" cy="2.99928" rx="2.99917" ry="2.99928" transform="matrix(0.838646 -0.544676 -0.544602 -0.838695 162.575 140.634)" fill="#6CC5BD"/>
<path d="M165.972 134.852L161.778 137.575C162.38 138.502 163.619 138.765 164.546 138.163L161.823 133.97L159.1 129.776C162.805 127.37 167.759 128.423 170.165 132.128L165.972 134.852ZM161.823 133.97L164.546 138.163C165.473 137.561 165.736 136.322 165.134 135.395L160.941 138.119L156.748 140.842C154.342 137.137 155.395 132.183 159.1 129.776L161.823 133.97ZM160.941 138.119L165.134 135.395C164.533 134.469 163.294 134.205 162.367 134.807L165.09 139.001L167.813 143.194C164.108 145.601 159.154 144.547 156.748 140.842L160.941 138.119ZM165.09 139.001L162.367 134.807C161.44 135.409 161.177 136.649 161.778 137.575L165.972 134.852L170.165 132.128C172.571 135.833 171.518 140.788 167.813 143.194L165.09 139.001Z" fill="#6CC5BD" mask="url(#path-48-inside-17_392_1477)"/>
<mask id="path-50-inside-18_392_1477" fill="white">
<ellipse cx="2.99917" cy="2.99928" rx="2.99917" ry="2.99928" transform="matrix(0.838646 -0.544676 -0.544602 -0.838695 167.507 127.437)"/>
</mask>
<ellipse cx="2.99917" cy="2.99928" rx="2.99917" ry="2.99928" transform="matrix(0.838646 -0.544676 -0.544602 -0.838695 167.507 127.437)" fill="#6CC5BD"/>
<path d="M170.904 121.654L166.711 124.377C167.312 125.304 168.552 125.568 169.478 124.966L166.755 120.772L164.032 116.579C167.737 114.172 172.691 115.226 175.097 118.931L170.904 121.654ZM166.755 120.772L169.478 124.966C170.405 124.364 170.668 123.124 170.067 122.198L165.874 124.921L161.68 127.645C159.274 123.939 160.327 118.985 164.032 116.579L166.755 120.772ZM165.874 124.921L170.067 122.198C169.465 121.271 168.226 121.008 167.299 121.61L170.022 125.803L172.745 129.997C169.04 132.403 164.086 131.35 161.68 127.645L165.874 124.921ZM170.022 125.803L167.299 121.61C166.372 122.212 166.109 123.451 166.711 124.377L170.904 121.654L175.097 118.931C177.503 122.636 176.45 127.59 172.745 129.997L170.022 125.803Z" fill="#6CC5BD" mask="url(#path-50-inside-18_392_1477)"/>
<path d="M142.059 134.052L157.948 158.521C167.208 149.098 173.635 144.98 187.125 139.571L171.237 115.102" stroke="#6CC5BD" stroke-width="5" stroke-linejoin="round"/>
<path d="M383.676 257.165L354.543 258.693C356.723 245.662 356.277 238.041 352.723 223.948L381.857 222.42" stroke="#6CC5BD" stroke-width="5" stroke-linejoin="round"/>
<mask id="path-54-inside-19_392_1477" fill="white">
<ellipse cx="2.99917" cy="2.99928" rx="2.99917" ry="2.99928" transform="matrix(-0.0522919 -0.998632 -0.998627 0.0523802 117.565 261.998)"/>
</mask>
<ellipse cx="2.99917" cy="2.99928" rx="2.99917" ry="2.99928" transform="matrix(-0.0522919 -0.998632 -0.998627 0.0523802 117.565 261.998)" fill="#6CC5BD"/>
<path d="M114.256 256.165L114.518 261.158C115.621 261.1 116.469 260.159 116.411 259.055L111.418 259.317L106.425 259.579C106.194 255.167 109.583 251.403 113.995 251.172L114.256 256.165ZM111.418 259.317L116.411 259.055C116.353 257.951 115.412 257.104 114.309 257.162L114.57 262.155L114.831 267.148C110.42 267.379 106.656 263.991 106.425 259.579L111.418 259.317ZM114.57 262.155L114.309 257.162C113.205 257.22 112.357 258.161 112.415 259.265L117.408 259.003L122.401 258.741C122.633 263.153 119.243 266.917 114.831 267.148L114.57 262.155ZM117.408 259.003L112.415 259.265C112.473 260.368 113.415 261.216 114.518 261.158L114.256 256.165L113.995 251.172C118.407 250.94 122.17 254.329 122.401 258.741L117.408 259.003Z" fill="#6CC5BD" mask="url(#path-54-inside-19_392_1477)"/>
<mask id="path-56-inside-20_392_1477" fill="white">
<ellipse cx="2.99917" cy="2.99928" rx="2.99917" ry="2.99928" transform="matrix(-0.0522919 -0.998632 -0.998627 0.0523802 100.031 242.364)"/>
</mask>
<ellipse cx="2.99917" cy="2.99928" rx="2.99917" ry="2.99928" transform="matrix(-0.0522919 -0.998632 -0.998627 0.0523802 100.031 242.364)" fill="#6CC5BD"/>
<path d="M96.7217 236.531L96.9831 241.524C98.0864 241.466 98.9343 240.525 98.8765 239.421L93.8834 239.683L88.8902 239.945C88.6592 235.533 92.0486 231.769 96.4602 231.538L96.7217 236.531ZM93.8834 239.683L98.8765 239.421C98.8187 238.317 97.8772 237.47 96.7739 237.528L97.0353 242.521L97.2968 247.514C92.8852 247.745 89.1212 244.357 88.8902 239.945L93.8834 239.683ZM97.0353 242.521L96.7739 237.528C95.6706 237.586 94.8227 238.527 94.8805 239.631L99.8737 239.369L104.867 239.107C105.098 243.519 101.708 247.283 97.2968 247.514L97.0353 242.521ZM99.8737 239.369L94.8805 239.631C94.9383 240.734 95.8799 241.582 96.9831 241.524L96.7217 236.531L96.4602 231.538C100.872 231.306 104.636 234.695 104.867 239.107L99.8737 239.369Z" fill="#6CC5BD" mask="url(#path-56-inside-20_392_1477)"/>
<path d="M93.1681 267.444L122.303 265.916C118.774 253.185 118.421 245.56 120.483 231.172L91.3488 232.701" stroke="#6CC5BD" stroke-width="5" stroke-linejoin="round"/>
<path d="M304.498 375.124L288.61 350.656C300.984 346.028 307.361 341.831 317.789 331.706L333.677 356.173" stroke="#6CC5BD" stroke-width="5" stroke-linejoin="round"/>
<mask id="path-60-inside-21_392_1477" fill="white">
<ellipse cx="297.332" cy="128.06" rx="2.99933" ry="2.99912" transform="rotate(-153 297.332 128.06)"/>
</mask>
<ellipse cx="297.332" cy="128.06" rx="2.99933" ry="2.99912" transform="rotate(-153 297.332 128.06)" fill="#6CC5BD"/>
<path d="M294.66 126.698L299.115 128.968C298.613 129.953 297.408 130.344 296.424 129.843L298.694 125.388L300.964 120.933C297.028 118.927 292.21 120.492 290.205 124.428L294.66 126.698ZM298.694 125.388L296.424 129.843C295.439 129.341 295.048 128.137 295.549 127.152L300.005 129.422L304.46 131.691C306.465 127.755 304.9 122.938 300.964 120.933L298.694 125.388ZM300.005 129.422L295.549 127.152C296.051 126.167 297.256 125.776 298.24 126.277L295.971 130.732L293.701 135.187C297.637 137.193 302.454 135.628 304.46 131.691L300.005 129.422ZM295.971 130.732L298.24 126.277C299.225 126.779 299.617 127.983 299.115 128.968L294.66 126.698L290.205 124.428C288.199 128.365 289.764 133.182 293.701 135.187L295.971 130.732Z" fill="#6CC5BD" mask="url(#path-60-inside-21_392_1477)"/>
<ellipse cx="148.554" cy="148.568" rx="148.554" ry="148.568" transform="matrix(-0.891006 -0.45399 -0.45399 0.891006 437.409 180.358)" stroke="#6CC5BD" stroke-width="5"/>
<path d="M181.393 274.252L246.277 307.335L247.609 304.719C233.918 292.369 230.72 285.094 230.921 271.643C231.308 266.798 232.252 264.03 234.953 259.02C236.804 270.202 239.826 275.189 248.378 282.043C250.179 283.266 251.251 283.832 253.369 284.587C266.893 287.444 272.8 285.366 280.752 276.08C282.525 273.448 283.347 271.897 284.385 268.945C287.009 256.892 285.26 251.291 276.468 243.338C274.252 242.015 272.934 241.364 270.526 240.308C267.082 239.133 265.028 238.974 260.987 239.639C266.244 236.291 268.561 234.127 271.679 229.812C273.046 228.052 273.623 226.967 274.223 224.817C275.946 213.224 274.318 207.477 264.874 199.079C262.551 197.458 261.143 196.729 258.457 195.807C245.697 193.52 239.586 194.499 231.917 203.246C230.756 205.016 230.238 206.15 229.374 208.241C227.678 213.712 227.365 216.895 227.951 222.794C226.101 219.266 224.685 217.598 221.328 215.223C219.229 213.84 217.965 213.221 215.624 212.315C204.4 210.082 198.861 211.844 190.506 221.078L186.873 228.213C184.623 241.941 186.281 248.021 195.853 255.261L202.032 258.412C213.931 261.018 219.256 259.79 227.585 255.263L225.163 260.02C213.357 273.594 204.279 276.491 183.08 272.116L181.393 274.252Z" fill="#6CC5BD" stroke="#6CC5BD" stroke-width="5"/>
</svg>
