<svg width="436" height="427" viewBox="0 0 436 427" fill="none" xmlns="http://www.w3.org/2000/svg">
<path d="M271.211 415.137L248.202 397.296L244.398 398.33L250.496 420.767L239.367 423.792L225.062 371.155L236.19 368.131L241.904 389.155L244.14 388.547L255.903 362.774L269.756 359.009L255.857 389.006L285.012 411.386L271.211 415.137ZM302.03 406.114L297.18 398.53L298.329 397.805C299.14 397.293 299.715 396.657 300.054 395.897C300.399 395.113 300.482 394.147 300.304 392.999C300.126 391.852 299.68 390.464 298.967 388.835C298.245 387.192 297.229 385.25 295.92 383.011L286.817 367.34L313.124 350.736L334.958 385.331L325.814 391.102L308.741 364.053L300.205 369.44L306.332 380.345C308.026 383.328 309.246 386.043 309.993 388.49C310.755 390.928 311.062 393.128 310.914 395.09C310.757 397.036 310.179 398.766 309.181 400.278C308.183 401.79 306.76 403.129 304.913 404.294L302.03 406.114ZM368.973 377.629C368.01 378.697 367.021 379.623 366.006 380.405C365.016 381.185 364.122 381.766 363.325 382.147L358.744 374.579C359.939 373.863 360.906 373.121 361.645 372.353C362.397 371.572 362.836 370.713 362.963 369.776C363.102 368.826 362.863 367.738 362.246 366.513L361.406 364.86L320.319 347.595L328.306 338.731L356.295 352.548L356.58 352.231L339.983 325.77L348.023 316.846L371.058 359.001C372.182 361.042 372.912 363.098 373.246 365.167C373.605 367.235 373.449 369.305 372.777 371.377C372.119 373.461 370.851 375.544 368.973 377.629ZM355.791 273.128L363.963 273.259C364.32 274.716 364.398 276.177 364.199 277.64C363.983 279.095 363.512 280.732 362.784 282.55C362.064 284.352 361.117 286.518 359.944 289.047C358.592 291.904 357.919 294.44 357.925 296.655C357.932 298.871 358.652 300.9 360.084 302.744C361.501 304.58 363.647 306.376 366.524 308.133L366.699 307.774C364.985 305.576 364 303.18 363.743 300.586C363.494 297.976 364.089 295.195 365.527 292.242C367.052 289.113 369.072 286.71 371.588 285.033C374.112 283.339 376.978 282.464 380.185 282.408C383.393 282.351 386.792 283.198 390.384 284.948C394.119 286.768 397.009 289.085 399.055 291.899C401.092 294.689 402.216 297.794 402.426 301.215C402.62 304.627 401.814 308.185 400.01 311.888C398.198 315.607 395.852 318.435 392.974 320.37C390.103 322.289 386.785 323.24 383.021 323.223C379.264 323.19 375.16 322.089 370.706 319.919L367.69 318.449C358.831 314.132 353.103 309.208 350.505 303.676C347.907 298.144 348.206 292.018 351.401 285.299C352.256 283.464 353.049 281.816 353.78 280.355C354.512 278.894 355.066 277.575 355.443 276.395C355.828 275.2 355.944 274.111 355.791 273.128ZM392.132 307.99C392.894 306.426 393.141 304.887 392.871 303.373C392.609 301.843 391.868 300.406 390.647 299.06C389.434 297.699 387.774 296.505 385.667 295.478C383.576 294.459 381.653 293.907 379.897 293.822C378.133 293.713 376.592 294.038 375.273 294.798C373.955 295.558 372.911 296.728 372.141 298.309C371.565 299.49 371.264 300.656 371.236 301.808C371.208 302.96 371.453 304.077 371.973 305.159C372.484 306.218 373.265 307.231 374.315 308.197C375.357 309.139 376.66 309.991 378.224 310.753C381.368 312.286 384.181 312.817 386.662 312.347C389.134 311.853 390.958 310.401 392.132 307.99ZM424.509 223.12C424.441 227.256 423.504 230.819 421.696 233.808C419.872 236.779 417.366 239.055 414.179 240.637C410.974 242.217 407.277 242.973 403.087 242.904C398.862 242.835 395.182 241.957 392.049 240.272C388.898 238.586 386.469 236.229 384.761 233.2C383.035 230.152 382.206 226.561 382.274 222.424C382.342 218.288 383.289 214.734 385.114 211.763C386.921 208.774 389.427 206.489 392.632 204.908C395.819 203.326 399.525 202.57 403.75 202.64C407.94 202.709 411.61 203.586 414.761 205.272C417.894 206.957 420.324 209.324 422.049 212.371C423.757 215.4 424.577 218.983 424.509 223.12ZM415.722 222.922C415.753 221.04 415.247 219.46 414.202 218.182C413.14 216.903 411.682 215.929 409.829 215.26C407.975 214.572 405.859 214.209 403.48 214.169C401.101 214.13 398.974 214.424 397.099 215.05C395.225 215.658 393.736 216.584 392.632 217.827C391.528 219.069 390.961 220.631 390.93 222.513C390.899 224.413 391.414 226.02 392.475 227.333C393.537 228.63 394.995 229.621 396.848 230.309C398.702 230.979 400.818 231.333 403.197 231.372C405.576 231.412 407.703 231.127 409.577 230.519C411.452 229.892 412.942 228.949 414.046 227.689C415.132 226.41 415.691 224.821 415.722 222.922ZM435.491 180.756L415.311 186.522L414.448 183.5C413.652 182.786 412.582 182.335 411.235 182.147C409.884 181.942 408.349 181.901 406.63 182.022C404.905 182.127 403.077 182.354 401.146 182.703C399.192 183.04 397.229 183.407 395.256 183.804L382.107 186.453L373.488 156.286L404.167 147.52L402.425 141.425L422.605 135.659L425.576 146.056L414.052 149.349L420.923 173.396L432.447 170.103L435.491 180.756ZM411.345 172.642L407.108 157.815L384.829 164.181L387.858 174.783L392.431 173.919C396.714 173.01 400.402 172.408 403.494 172.116C406.57 171.828 409.187 172.003 411.345 172.642ZM367.609 108.499L375.117 103.679L386.656 121.654L379.147 126.474L367.609 108.499ZM363.73 131.94L398.157 109.841L404.012 118.963L369.586 141.062L363.73 131.94ZM350.364 111.118L384.791 89.0193L390.603 98.0742L356.177 120.173L350.364 111.118ZM357.707 57.1881C360.818 59.9157 362.928 62.9354 364.039 66.2471C365.124 69.5605 365.239 72.9438 364.384 76.3971C363.517 79.8638 361.702 83.1724 358.939 86.3231C356.153 89.5004 353.104 91.7387 349.792 93.0381C346.468 94.3508 343.099 94.6788 339.684 94.0221C336.244 93.367 332.968 91.6757 329.858 88.9481C326.747 86.2205 324.649 83.2001 323.563 79.8867C322.453 76.5749 322.331 73.1857 323.198 69.7191C324.054 66.2658 325.875 62.9505 328.661 59.7731C331.423 56.6225 334.467 54.3908 337.79 53.0781C341.102 51.7788 344.478 51.4567 347.918 52.1117C351.334 52.7684 354.596 54.4606 357.707 57.1881ZM351.872 63.7613C350.457 62.5205 348.924 61.885 347.274 61.8548C345.612 61.838 343.926 62.3198 342.217 63.3001C340.494 64.2688 338.848 65.6475 337.279 67.4365C335.71 69.2254 334.558 71.0373 333.823 72.8722C333.075 74.6954 332.817 76.4297 333.051 78.0752C333.285 79.7207 334.109 81.1639 335.524 82.4048C336.953 83.6574 338.511 84.3038 340.2 84.344C341.875 84.3725 343.575 83.9024 345.298 82.9338C347.007 81.9534 348.647 80.5688 350.215 78.7799C351.784 76.991 352.943 75.1849 353.691 73.3617C354.426 71.5268 354.67 69.7808 354.423 68.1236C354.151 66.468 353.301 65.0139 351.872 63.7613ZM308.528 39.9703L284.232 57.2779L274.089 52.5595L291.345 15.468L301.15 20.0291L290.174 43.6219L314.455 26.2193L324.67 30.9715L307.414 68.063L297.586 63.4906L308.528 39.9703ZM279.973 71.0415L272.801 67.7048C274.18 64.7824 276.364 62.9294 279.352 62.1461C282.325 61.3552 285.638 61.8099 289.293 63.51C292.963 65.2177 295.453 67.463 296.763 70.2461C298.073 73.0292 298.046 75.8857 296.683 78.8157L289.56 75.5015C290.092 74.3982 290.203 73.2353 289.89 72.0128C289.561 70.7829 288.52 69.7597 286.765 68.9434C285.059 68.1495 283.633 68.0149 282.488 68.5397C281.343 69.0645 280.505 69.8984 279.973 71.0415ZM237.693 0.339752L237.458 41.2482L220.014 41.1479C214.971 41.119 210.99 40.1373 208.072 38.2028C205.153 36.2684 203.704 33.5346 203.724 30.0012C203.737 27.7818 204.573 25.94 206.233 24.4758C207.893 23.0116 210.189 22.0304 213.122 21.5324C210.672 21.3407 208.589 20.7694 206.872 19.8185C205.138 18.8852 203.822 17.6791 202.925 16.2002C202.01 14.7212 201.558 13.0851 201.568 11.2918C201.581 8.96585 202.214 6.97194 203.467 5.31007C204.701 3.6481 206.511 2.38007 208.895 1.50597C211.262 0.631774 214.15 0.204468 217.559 0.224057L237.693 0.339752ZM227.071 8.77495L217.51 8.72001C215.93 8.71093 214.694 9.0767 213.801 9.81733C212.892 10.5756 212.433 11.6117 212.425 12.9256C212.417 14.3815 212.863 15.5294 213.764 16.3691C214.647 17.2087 215.878 17.633 217.459 17.6421L227.02 17.697L227.071 8.77495ZM226.982 24.3553L219.871 24.3144C218.734 24.3079 217.766 24.4622 216.965 24.7772C216.146 25.1098 215.522 25.5856 215.092 26.2046C214.645 26.8235 214.419 27.5591 214.414 28.4114C214.406 29.672 214.907 30.6603 215.915 31.3763C216.923 32.0924 218.306 32.4554 220.063 32.4655L226.935 32.505L226.982 24.3553ZM161.808 5.4565C165.793 4.34297 169.475 4.22645 172.855 5.10694C176.223 6.00931 179.119 7.76259 181.543 10.3668C183.972 12.9881 185.75 16.3166 186.878 20.3523C188.015 24.4222 188.223 28.1989 187.5 31.6825C186.782 35.1831 185.215 38.1837 182.798 40.6844C180.369 43.2069 177.162 45.0249 173.178 46.1384C169.194 47.2519 165.517 47.3575 162.15 46.4551C158.769 45.5746 155.865 43.8238 153.436 41.2025C151.012 38.5983 149.232 35.2612 148.094 31.1913C146.966 27.1556 146.761 23.3874 147.479 19.8868C148.202 16.4032 149.777 13.4002 152.207 10.8777C154.623 8.37711 157.824 6.57003 161.808 5.4565ZM164.123 13.9355C162.31 14.4421 160.94 15.3781 160.013 16.7434C159.09 18.1259 158.572 19.8009 158.458 21.7685C158.327 23.7409 158.582 25.8728 159.222 28.1642C159.863 30.4557 160.75 32.4108 161.885 34.0295C163.002 35.653 164.314 36.8166 165.819 37.5204C167.325 38.2243 168.984 38.3229 170.797 37.8163C172.627 37.3049 174.02 36.3532 174.977 34.9612C175.916 33.574 176.452 31.8942 176.583 29.9218C176.696 27.9542 176.433 25.8247 175.793 23.5333C175.152 21.2418 174.273 19.2843 173.156 17.6608C172.021 16.0421 170.693 14.8833 169.17 14.1842C167.635 13.5071 165.953 13.4242 164.123 13.9355ZM129.559 27.5634L120.143 33.2503C119.4 32.1228 118.332 31.523 116.941 31.4509C115.549 31.3789 114.07 31.8156 112.505 32.7612C110.924 33.7159 109.814 34.8839 109.176 36.2652C108.547 37.6617 108.65 39.0515 109.485 40.4345C109.999 41.2856 110.657 41.8942 111.459 42.2603C112.27 42.6416 113.166 42.7852 114.146 42.691C115.126 42.5967 116.118 42.2467 117.121 41.6408L122.159 38.5977L126.001 44.9582L120.963 48.0014C119.458 48.9102 118.514 49.9574 118.131 51.1431C117.733 52.3379 117.85 53.4597 118.484 54.5084C119.2 55.6939 120.199 56.3867 121.481 56.587C122.758 56.8116 124.111 56.4925 125.539 55.6296C126.983 54.7575 127.986 53.7055 128.549 52.4737C129.106 51.2662 129.087 50.1365 128.494 49.0846L137.863 43.4252C139.1 45.541 139.566 47.7382 139.262 50.0168C138.943 52.3046 137.987 54.4999 136.395 56.6026C134.787 58.7145 132.676 60.5599 130.062 62.1389C127.205 63.8647 124.499 64.9491 121.946 65.392C119.386 65.8593 117.107 65.6909 115.107 64.8868C113.091 64.0919 111.469 62.6761 110.239 60.6395C109.119 58.7853 108.79 56.8679 109.253 54.8872C109.717 52.9065 110.882 50.9893 112.749 49.1354L112.529 48.7707C111.03 49.5515 109.489 49.9535 107.905 49.9764C106.322 49.9993 104.818 49.6215 103.394 48.8431C101.979 48.0799 100.78 46.8852 99.7976 45.259C98.4849 43.0856 97.9987 40.8382 98.339 38.5169C98.6642 36.2047 99.6914 33.9559 101.421 31.7706C103.144 29.6096 105.442 27.6616 108.314 25.9266C111.111 24.2375 113.862 23.1256 116.567 22.5908C119.267 22.0805 121.748 22.2209 124.009 23.0121C126.256 23.8124 128.106 25.3295 129.559 27.5634ZM69.2939 74.2266L82.9994 101.42L77.2347 107.841L57.4506 68.6409L62.4857 63.0322L103.336 78.7669L97.5889 85.1684L69.2939 74.2266ZM99.3148 83.246L68.8731 55.9172L76.1145 47.851L106.556 75.1797L99.3148 83.246ZM50.6718 76.1919L81.1134 103.521L73.961 111.488L43.5193 84.159L50.6718 76.1919ZM20.7128 118.878C22.4119 115.106 24.6826 112.205 27.525 110.174C30.3763 108.168 33.5782 107.069 37.1307 106.877C40.6995 106.693 44.3941 107.461 48.2148 109.182C52.0678 110.918 55.0997 113.179 57.3105 115.967C59.5375 118.761 60.8362 121.888 61.2066 125.346C61.5858 128.827 60.926 132.454 59.2269 136.226C57.5278 139.998 55.2527 142.887 52.4014 144.894C49.559 146.924 46.3534 148.031 42.7847 148.216C39.2322 148.407 35.5294 147.635 31.6764 145.899C27.8557 144.178 24.8319 141.921 22.6049 139.126C20.3941 136.339 19.0991 133.204 18.7198 129.723C18.3494 126.265 19.0138 122.65 20.7128 118.878ZM28.7046 122.536C27.9316 124.252 27.772 125.904 28.2256 127.491C28.6954 129.085 29.6489 130.556 31.0863 131.905C32.5164 133.269 34.3161 134.44 36.4854 135.417C38.6548 136.394 40.7243 136.966 42.6939 137.133C44.6563 137.316 46.3902 137.055 47.8954 136.35C49.4007 135.646 50.5398 134.435 51.3128 132.719C52.093 130.987 52.2556 129.308 51.8003 127.681C51.3378 126.071 50.3915 124.583 48.9615 123.218C47.5241 121.87 45.7208 120.707 43.5514 119.73C41.3821 118.753 39.3162 118.173 37.3538 117.99C35.3842 117.823 33.6431 118.1 32.1305 118.821C30.6268 119.566 29.4848 120.804 28.7046 122.536ZM6.34787 154.182L26.1874 170.423L47.0678 158.112L45.8495 170.998L28.9135 180.071L28.748 181.821L44.6837 183.328L43.6158 194.623L27.6801 193.117L27.5197 194.814L42.4551 206.9L41.2367 219.786L23.0311 203.806L0.501718 216.015L1.74766 202.837L18.6471 193.868L18.7975 192.277L2.88831 190.773L3.95626 179.477L19.8654 180.981L20.0158 179.39L5.10193 167.36L6.34787 154.182ZM30.858 258.707L22.1748 260.758L17.2642 239.97L25.9475 237.919L30.858 258.707ZM42.305 237.887L2.49158 247.291L-0.000421023 236.742L39.813 227.337L42.305 237.887ZM47.9931 261.967L8.17972 271.371L5.70609 260.899L45.5195 251.495L47.9931 261.967ZM23.2022 310.362C21.165 306.761 20.1682 303.215 20.2117 299.722C20.2794 296.236 21.2865 293.004 23.2329 290.026C25.1947 287.039 27.9991 284.514 31.6462 282.45C35.3242 280.369 38.9407 279.262 42.4959 279.127C46.0665 278.984 49.3556 279.785 52.3631 281.531C55.3949 283.284 57.9294 285.961 59.9666 289.561C62.0038 293.162 62.9885 296.706 62.9208 300.192C62.8773 303.684 61.8746 306.924 59.9128 309.911C57.9664 312.889 55.1542 315.418 51.4763 317.499C47.8292 319.563 44.2204 320.666 40.6497 320.81C37.0946 320.944 33.8011 320.135 30.7694 318.382C27.7618 316.636 25.2395 313.963 23.2022 310.362ZM30.878 306.08C31.8048 307.719 33.0423 308.824 34.5903 309.396C36.1537 309.96 37.9041 310.061 39.8415 309.7C41.7877 309.353 43.7962 308.594 45.867 307.423C47.9378 306.251 49.6227 304.921 50.9219 303.431C52.2297 301.956 53.0446 300.404 53.3665 298.773C53.6884 297.143 53.3859 295.508 52.4591 293.87C51.5236 292.217 50.2654 291.093 48.6844 290.498C47.1122 289.918 45.353 289.802 43.4069 290.148C41.4695 290.51 39.4654 291.277 37.3946 292.448C35.3238 293.62 33.6345 294.943 32.3266 296.417C31.0274 297.907 30.2213 299.475 29.9082 301.121C29.6192 302.774 29.9425 304.427 30.878 306.08ZM58.327 359.57C55.3428 356.629 53.399 353.466 52.4958 350.083C51.6177 346.699 51.7189 343.308 52.7993 339.911C53.8924 336.525 55.8911 333.359 58.7953 330.413C61.7369 327.429 64.8924 325.379 68.2618 324.262C71.6563 323.145 75.0453 323.008 78.4288 323.85C81.8248 324.679 84.9959 326.546 87.9422 329.45C90.4839 331.956 92.2545 334.611 93.254 337.416C94.2535 340.221 94.487 343.007 93.9544 345.773C93.4219 348.539 92.1032 351.104 89.9983 353.467L82.3733 345.951C83.5917 344.284 84.1756 342.554 84.1251 340.759C84.0996 338.964 83.3471 337.337 81.8676 335.878C80.6158 334.644 79.1854 333.908 77.5766 333.668C75.9929 333.428 74.3061 333.698 72.5163 334.477C70.7264 335.255 68.9279 336.562 67.1205 338.395C65.2882 340.254 63.983 342.084 63.205 343.885C62.4396 345.698 62.1882 347.408 62.4509 349.013C62.7135 350.618 63.4708 352.038 64.7227 353.272C65.6458 354.182 66.661 354.808 67.7684 355.152C68.8884 355.508 70.0438 355.563 71.2348 355.315C72.4509 355.068 73.6397 354.507 74.8011 353.632L82.4261 361.149C80.1059 363.249 77.5669 364.611 74.8092 365.234C72.0765 365.856 69.2944 365.706 66.4628 364.785C63.6312 363.864 60.9193 362.126 58.327 359.57ZM101.63 356.936L105.983 349.148L138.346 367.233L133.994 375.022L122.485 368.59L106.881 396.513L97.4421 391.238L113.046 363.316L101.63 356.936ZM151.799 400.312L172.119 378.473L183.003 381.055L173.557 420.859L163.036 418.362L169.045 393.045L148.758 414.974L137.796 412.373L147.242 372.569L157.789 375.072L151.799 400.312ZM203.51 426.53C201.754 426.45 200.274 425.76 199.072 424.461C197.888 423.145 197.336 421.609 197.416 419.853C197.496 418.115 198.184 416.653 199.483 415.468C200.799 414.284 202.335 413.732 204.091 413.813C205.794 413.891 207.255 414.579 208.476 415.879C209.696 417.179 210.266 418.698 210.187 420.437C210.133 421.607 209.783 422.667 209.135 423.615C208.506 424.546 207.699 425.282 206.715 425.824C205.731 426.347 204.663 426.583 203.51 426.53Z" fill="#A50000"/>
</svg>
