<svg width="299" height="297" viewBox="0 0 299 297" fill="none" xmlns="http://www.w3.org/2000/svg">
<path d="M253.061 296.715H47.524V288.433C97.7709 274.942 115.128 260.758 131.847 226.697C137.077 214.024 138.247 205.857 137.87 189.806C118.897 215.536 104.91 224.196 74.6277 230.461C68.5329 231.23 65.1114 231.276 58.8172 230.461C21.149 220.313 8.95326 207.52 0.845407 173.995C-0.241259 165.109 -0.322538 160.157 0.845407 151.409C9.6807 117.756 21.2519 105.921 53.5471 97.2013C60.8125 96.7147 64.9599 96.7697 72.3691 97.2013C82.5338 98.6617 87.9042 100.894 97.2142 107.742C88.2815 92.5914 85.226 84.1866 82.9094 69.3447C81.7258 63.171 81.664 59.7073 82.9094 53.5342C93.4198 22.1936 104.873 9.83667 139.376 0.832547C147.293 -0.264235 151.769 -0.290717 159.703 0.832547C194.723 11.4342 208.837 21.7246 216.922 53.5342C217.574 59.4705 217.428 62.9834 216.922 69.3447C214.182 85.2683 210.894 93.6685 201.865 107.742C211.035 101.246 216.733 98.8679 228.215 97.2013C235.266 96.415 239.236 96.4793 246.285 97.2013C277.37 105.972 289.044 117.497 298.233 151.409V173.995C286.313 211.376 274.358 224.531 241.014 230.461H221.44C188.178 221.763 176.36 211.856 161.209 189.806V204.863C173.52 254.105 192.64 273.017 251.555 289.186L253.061 296.715Z" fill="#F7CA4B"/>
</svg>
