<svg width="862" height="854" viewBox="0 0 862 854" fill="none" xmlns="http://www.w3.org/2000/svg">
<path d="M728.041 854H136.725V830.164C281.282 791.333 331.219 750.509 379.316 652.475C394.363 616.001 397.73 592.495 396.644 546.296C342.061 620.353 301.82 645.278 214.701 663.31C197.166 665.522 187.323 665.656 169.215 663.31C60.8454 634.1 25.759 597.282 2.43318 500.79C-0.69309 475.215 -0.926926 460.962 2.43318 435.782C27.8518 338.922 61.1416 304.859 154.053 279.763C174.818 276.745 186.759 276.972 208.203 279.763C237.446 283.967 252.896 290.392 279.68 310.1C253.982 266.495 245.191 242.305 238.527 199.587C235.121 181.818 234.944 171.849 238.527 154.081C268.764 63.8772 301.715 28.3118 400.976 2.39622C423.754 -0.760517 436.632 -0.836738 459.458 2.39622C560.209 32.9097 600.814 62.5275 624.074 154.081C627.674 171.572 627.284 181.682 624.074 199.587C616.189 245.418 606.731 269.595 580.754 310.1C607.138 291.405 623.53 284.56 656.563 279.763C676.849 277.5 688.27 277.685 708.547 279.763C800.128 299.686 832.507 335.843 858.001 435.782C863.241 462.574 862.621 476.642 858.001 500.79C823.706 608.38 789.314 646.243 693.385 663.31C671.991 666.231 659.695 666.421 637.07 663.31C541.379 638.276 507.378 609.76 463.79 546.296C463.124 572.791 465.09 589.155 466.001 593C501.418 734.728 554.215 785.794 723.709 832.331L728.041 854Z" fill="#F7CA4B"/>
<ellipse cx="199.001" cy="473.5" rx="199" ry="198.5" fill="#F7CA4B"/>
<ellipse cx="663.001" cy="473.5" rx="199" ry="198.5" fill="#F7CA4B"/>
<ellipse cx="431.001" cy="198.5" rx="199" ry="198.5" fill="#F7CA4B"/>
</svg>
