<svg width="313" height="288" viewBox="0 0 313 288" fill="none" xmlns="http://www.w3.org/2000/svg">
<path d="M184.098 69.9733L249.098 1.97328L298.099 169.36L232.425 237.995L184.098 69.9733Z" fill="#5D2B8A"/>
<path d="M15.099 118.973L184.098 69.9733L232.599 237.973L62.9674 287.682L15.099 118.973Z" fill="#F7CA4B"/>
<path d="M81.0103 49.1523L249.098 1.97327L184.098 69.9733L15.0974 118.973L81.0103 49.1523Z" fill="#A50000"/>
<path d="M272.458 158.232L235.357 168.87L234.78 166.859C242.911 160.981 245.056 156.638 245.702 147.499C245.763 144.151 245.405 142.106 244.219 138.227C242.587 145.459 240.665 148.286 235.635 151.375C234.588 151.878 233.974 152.066 232.781 152.194C225.275 151.679 222.183 149.203 218.384 141.48C217.569 139.378 217.209 138.179 216.811 135.994C216.062 127.362 217.326 123.889 222.549 120.1C223.826 119.605 224.579 119.404 225.946 119.125C227.883 118.954 229.008 119.218 231.165 120.399C228.498 117.182 227.361 115.299 225.909 111.814C225.265 110.375 225.013 109.537 224.808 107.974C224.522 99.8173 225.729 96.2231 231.33 92.2503C232.683 91.5741 233.489 91.336 234.999 91.1981C242.059 91.9605 245.323 93.7294 248.998 101.037C249.529 102.445 249.748 103.306 250.099 104.877C250.714 108.887 250.705 111.097 250.056 114.983C251.259 112.93 252.121 112.058 254.078 111.059C255.296 110.503 256.017 110.313 257.34 110.123C263.562 110.645 266.472 112.84 270.492 120.601L272.065 126.087C272.517 135.783 271.275 139.597 265.67 142.763L262.136 143.776C255.526 143.385 252.703 141.591 248.432 137.019L249.481 140.677C255.133 152 259.901 155.603 271.662 156.481L272.458 158.232Z" fill="#F7CA4B"/>
<path d="M118.994 47.7601C123.464 47.5871 125.039 48.4838 126.508 51.5019C129.729 48.4823 131.913 47.2208 136.711 46.0334C138.243 45.6992 139.13 45.6423 140.731 45.6416C149.659 45.8199 150.893 48.8403 147.819 56.794C146.016 60.3766 145.787 61.7117 139.318 64.9462L127.229 70.7316C121.359 73.9831 119.052 76.0936 115.556 80.0279C115.417 76.7137 114.475 75.0061 110.518 72.3603L104.03 68.7817C99.8076 67.273 98.9406 65.209 98.7519 61.7298C97.9644 59.1834 105.009 48.8442 116.607 47.9927C117.482 47.8852 117.998 47.8357 118.994 47.7601Z" fill="#6CC5BD"/>
<path d="M144.121 218.21C136.7 219.221 132.666 220.339 125.709 223.49L125.458 222.614C128.122 211.76 128.193 206.63 125.659 199.326L124.466 195.165C122.376 202.018 120.283 205.072 114.924 209.042C113.215 209.791 112.263 210.218 110.417 210.811C108.784 211.328 107.843 211.574 105.937 211.619C93.6543 211.147 88.664 208.082 83.5318 197.184L82.0873 192.146C80.7474 181.144 83.132 174.728 93.8103 162.711L95.9382 160.204C104.839 150.317 108.012 144.158 109.353 131.706C116.824 141.084 122.413 144.991 135.612 148.828L138.964 149.763C154.484 154.785 160.637 158.654 164.285 168.576L165.73 173.614C167.308 185.266 165.032 190.686 153.94 197.854L151.429 198.723L148.68 199.362C141.444 200.683 136.904 198.64 129.19 193.287L130.701 197.881C135.827 208.752 138.716 212.346 143.87 217.334L144.121 218.21Z" fill="#5D2B8A"/>
</svg>
