<svg width="304" height="197" viewBox="0 0 304 197" fill="none" xmlns="http://www.w3.org/2000/svg">
<path d="M180.854 181.654L47.1094 67.7659L230.109 12.6541L180.854 181.654Z" stroke="#F7CA4B" stroke-width="17"/>
<mask id="path-2-outside-1_387_994" maskUnits="userSpaceOnUse" x="-0.890625" y="27.6402" width="305" height="117" fill="black">
<rect fill="white" x="-0.890625" y="27.6402" width="305" height="117"/>
<path d="M15.2094 57.2752H36.6794L43.9944 79.4102L51.3094 57.2752L65.1794 57.2752L72.4944 79.4102L79.8094 57.2752H101.279L80.3794 120.64H64.6094L58.2444 101.45L51.8794 120.64H36.1094L15.2094 57.2752ZM45.6094 113.04L58.2444 73.2352L70.8794 113.04H73.2544L89.1194 64.8752H86.5544L72.1144 108.67L58.2444 64.8752L44.3744 108.67L29.9344 64.8752H27.3694L43.2344 113.04H45.6094ZM92.7865 104.775H113.117V120.64H92.7865V104.775ZM107.417 113.8V111.615H98.4865V113.8H107.417ZM114.566 89.0052C114.566 84.4452 115.421 80.1385 117.131 76.0852C118.904 72.0319 121.279 68.5169 124.256 65.5402C127.296 62.5002 130.843 60.1252 134.896 58.4152C138.949 56.6419 143.256 55.7552 147.816 55.7552C152.376 55.7552 156.683 56.6419 160.736 58.4152C164.789 60.1252 168.304 62.5002 171.281 65.5402C174.321 68.5169 176.696 72.0319 178.406 76.0852C180.179 80.1385 181.066 84.4452 181.066 89.0052C181.066 93.5652 180.179 97.8719 178.406 101.925C176.696 105.979 174.321 109.525 171.281 112.565C168.304 115.542 164.789 117.917 160.736 119.69C156.683 121.4 152.376 122.255 147.816 122.255C143.256 122.255 138.949 121.4 134.896 119.69C130.843 117.917 127.296 115.542 124.256 112.565C121.279 109.525 118.904 105.979 117.131 101.925C115.421 97.8719 114.566 93.5652 114.566 89.0052ZM123.496 89.0052C123.496 92.3619 124.129 95.5285 125.396 98.5052C126.663 101.419 128.404 103.984 130.621 106.2C132.838 108.417 135.403 110.159 138.316 111.425C141.293 112.692 144.459 113.325 147.816 113.325C151.173 113.325 154.308 112.692 157.221 111.425C160.198 110.159 162.794 108.417 165.011 106.2C167.228 103.984 168.969 101.419 170.236 98.5052C171.503 95.5285 172.136 92.3619 172.136 89.0052C172.136 85.6485 171.503 82.5135 170.236 79.6002C168.969 76.6235 167.228 74.0269 165.011 71.8102C162.794 69.5935 160.198 67.8519 157.221 66.5852C154.308 65.3185 151.173 64.6852 147.816 64.6852C144.459 64.6852 141.293 65.3185 138.316 66.5852C135.403 67.8519 132.838 69.5935 130.621 71.8102C128.404 74.0269 126.663 76.6235 125.396 79.6002C124.129 82.5135 123.496 85.6485 123.496 89.0052ZM134.516 89.0052C134.516 90.8419 134.864 92.5835 135.561 94.2302C136.258 95.8135 137.208 97.2069 138.411 98.4102C139.614 99.6135 141.008 100.564 142.591 101.26C144.238 101.957 145.979 102.305 147.816 102.305C149.653 102.305 151.363 101.957 152.946 101.26C154.593 100.564 156.018 99.6135 157.221 98.4102C158.424 97.2069 159.374 95.8135 160.071 94.2302C160.768 92.5835 161.116 90.8419 161.116 89.0052C161.116 87.1685 160.768 85.4585 160.071 83.8752C159.374 82.2285 158.424 80.8035 157.221 79.6002C156.018 78.3969 154.593 77.4469 152.946 76.7502C151.363 76.0535 149.653 75.7052 147.816 75.7052C145.979 75.7052 144.238 76.0535 142.591 76.7502C141.008 77.4469 139.614 78.3969 138.411 79.6002C137.208 80.8035 136.258 82.2285 135.561 83.8752C134.864 85.4585 134.516 87.1685 134.516 89.0052ZM147.816 110.855C144.776 110.855 141.926 110.285 139.266 109.145C136.669 108.005 134.358 106.454 132.331 104.49C130.368 102.464 128.816 100.152 127.676 97.5552C126.536 94.8952 125.966 92.0452 125.966 89.0052C125.966 85.9652 126.536 83.1469 127.676 80.5502C128.816 77.8902 130.368 75.5785 132.331 73.6152C134.358 71.5885 136.669 70.0052 139.266 68.8652C141.926 67.7252 144.776 67.1552 147.816 67.1552C150.856 67.1552 153.674 67.7252 156.271 68.8652C158.931 70.0052 161.243 71.5885 163.206 73.6152C165.233 75.5785 166.816 77.8902 167.956 80.5502C169.096 83.1469 169.666 85.9652 169.666 89.0052C169.666 92.0452 169.096 94.8952 167.956 97.5552C166.816 100.152 165.233 102.464 163.206 104.49C161.243 106.454 158.931 108.005 156.271 109.145C153.674 110.285 150.856 110.855 147.816 110.855ZM182.498 104.775H202.828V120.64H182.498V104.775ZM197.128 113.8V111.615H188.198V113.8H197.128ZM194.355 57.2752H215.825L223.14 79.4102L230.455 57.2752H244.325L251.64 79.4102L258.955 57.2752H280.425L259.525 120.64H243.755L237.39 101.45L231.025 120.64L215.255 120.64L194.355 57.2752ZM224.755 113.04L237.39 73.2352L250.025 113.04H252.4L268.265 64.8752H265.7L251.26 108.67L237.39 64.8752L223.52 108.67L209.08 64.8752H206.515L222.38 113.04H224.755ZM271.932 104.775H292.262V120.64H271.932V104.775ZM286.562 113.8V111.615H277.632V113.8H286.562Z"/>
</mask>
<path d="M15.2094 57.2752H36.6794L43.9944 79.4102L51.3094 57.2752L65.1794 57.2752L72.4944 79.4102L79.8094 57.2752H101.279L80.3794 120.64H64.6094L58.2444 101.45L51.8794 120.64H36.1094L15.2094 57.2752ZM45.6094 113.04L58.2444 73.2352L70.8794 113.04H73.2544L89.1194 64.8752H86.5544L72.1144 108.67L58.2444 64.8752L44.3744 108.67L29.9344 64.8752H27.3694L43.2344 113.04H45.6094ZM92.7865 104.775H113.117V120.64H92.7865V104.775ZM107.417 113.8V111.615H98.4865V113.8H107.417ZM114.566 89.0052C114.566 84.4452 115.421 80.1385 117.131 76.0852C118.904 72.0319 121.279 68.5169 124.256 65.5402C127.296 62.5002 130.843 60.1252 134.896 58.4152C138.949 56.6419 143.256 55.7552 147.816 55.7552C152.376 55.7552 156.683 56.6419 160.736 58.4152C164.789 60.1252 168.304 62.5002 171.281 65.5402C174.321 68.5169 176.696 72.0319 178.406 76.0852C180.179 80.1385 181.066 84.4452 181.066 89.0052C181.066 93.5652 180.179 97.8719 178.406 101.925C176.696 105.979 174.321 109.525 171.281 112.565C168.304 115.542 164.789 117.917 160.736 119.69C156.683 121.4 152.376 122.255 147.816 122.255C143.256 122.255 138.949 121.4 134.896 119.69C130.843 117.917 127.296 115.542 124.256 112.565C121.279 109.525 118.904 105.979 117.131 101.925C115.421 97.8719 114.566 93.5652 114.566 89.0052ZM123.496 89.0052C123.496 92.3619 124.129 95.5285 125.396 98.5052C126.663 101.419 128.404 103.984 130.621 106.2C132.838 108.417 135.403 110.159 138.316 111.425C141.293 112.692 144.459 113.325 147.816 113.325C151.173 113.325 154.308 112.692 157.221 111.425C160.198 110.159 162.794 108.417 165.011 106.2C167.228 103.984 168.969 101.419 170.236 98.5052C171.503 95.5285 172.136 92.3619 172.136 89.0052C172.136 85.6485 171.503 82.5135 170.236 79.6002C168.969 76.6235 167.228 74.0269 165.011 71.8102C162.794 69.5935 160.198 67.8519 157.221 66.5852C154.308 65.3185 151.173 64.6852 147.816 64.6852C144.459 64.6852 141.293 65.3185 138.316 66.5852C135.403 67.8519 132.838 69.5935 130.621 71.8102C128.404 74.0269 126.663 76.6235 125.396 79.6002C124.129 82.5135 123.496 85.6485 123.496 89.0052ZM134.516 89.0052C134.516 90.8419 134.864 92.5835 135.561 94.2302C136.258 95.8135 137.208 97.2069 138.411 98.4102C139.614 99.6135 141.008 100.564 142.591 101.26C144.238 101.957 145.979 102.305 147.816 102.305C149.653 102.305 151.363 101.957 152.946 101.26C154.593 100.564 156.018 99.6135 157.221 98.4102C158.424 97.2069 159.374 95.8135 160.071 94.2302C160.768 92.5835 161.116 90.8419 161.116 89.0052C161.116 87.1685 160.768 85.4585 160.071 83.8752C159.374 82.2285 158.424 80.8035 157.221 79.6002C156.018 78.3969 154.593 77.4469 152.946 76.7502C151.363 76.0535 149.653 75.7052 147.816 75.7052C145.979 75.7052 144.238 76.0535 142.591 76.7502C141.008 77.4469 139.614 78.3969 138.411 79.6002C137.208 80.8035 136.258 82.2285 135.561 83.8752C134.864 85.4585 134.516 87.1685 134.516 89.0052ZM147.816 110.855C144.776 110.855 141.926 110.285 139.266 109.145C136.669 108.005 134.358 106.454 132.331 104.49C130.368 102.464 128.816 100.152 127.676 97.5552C126.536 94.8952 125.966 92.0452 125.966 89.0052C125.966 85.9652 126.536 83.1469 127.676 80.5502C128.816 77.8902 130.368 75.5785 132.331 73.6152C134.358 71.5885 136.669 70.0052 139.266 68.8652C141.926 67.7252 144.776 67.1552 147.816 67.1552C150.856 67.1552 153.674 67.7252 156.271 68.8652C158.931 70.0052 161.243 71.5885 163.206 73.6152C165.233 75.5785 166.816 77.8902 167.956 80.5502C169.096 83.1469 169.666 85.9652 169.666 89.0052C169.666 92.0452 169.096 94.8952 167.956 97.5552C166.816 100.152 165.233 102.464 163.206 104.49C161.243 106.454 158.931 108.005 156.271 109.145C153.674 110.285 150.856 110.855 147.816 110.855ZM182.498 104.775H202.828V120.64H182.498V104.775ZM197.128 113.8V111.615H188.198V113.8H197.128ZM194.355 57.2752H215.825L223.14 79.4102L230.455 57.2752H244.325L251.64 79.4102L258.955 57.2752H280.425L259.525 120.64H243.755L237.39 101.45L231.025 120.64L215.255 120.64L194.355 57.2752ZM224.755 113.04L237.39 73.2352L250.025 113.04H252.4L268.265 64.8752H265.7L251.26 108.67L237.39 64.8752L223.52 108.67L209.08 64.8752H206.515L222.38 113.04H224.755ZM271.932 104.775H292.262V120.64H271.932V104.775ZM286.562 113.8V111.615H277.632V113.8H286.562Z" fill="#F7CA4B"/>
<path d="M15.2094 57.2752V46.2752H-0.00171767L4.76295 60.7208L15.2094 57.2752ZM36.6794 57.2752L47.1238 53.8236L44.6293 46.2752H36.6794V57.2752ZM43.9944 79.4102L33.5499 82.8618L43.9944 114.466L54.4388 82.8618L43.9944 79.4102ZM51.3094 57.2752V46.2752H43.3595L40.8649 53.8236L51.3094 57.2752ZM65.1794 57.2752L75.6238 53.8236L73.1293 46.2752L65.1794 46.2752V57.2752ZM72.4944 79.4102L62.0499 82.8618L72.4944 114.466L82.9388 82.8618L72.4944 79.4102ZM79.8094 57.2752V46.2752H71.8595L69.3649 53.8236L79.8094 57.2752ZM101.279 57.2752L111.726 60.7208L116.49 46.2752H101.279V57.2752ZM80.3794 120.64V131.64H88.3341L90.8258 124.086L80.3794 120.64ZM64.6094 120.64L54.1687 124.103L56.6686 131.64H64.6094V120.64ZM58.2444 101.45L68.6851 97.9872L58.2444 66.5093L47.8037 97.9872L58.2444 101.45ZM51.8794 120.64V131.64H59.8202L62.3201 124.103L51.8794 120.64ZM36.1094 120.64L25.6629 124.086L28.1547 131.64H36.1094V120.64ZM45.6094 113.04V124.04H53.6586L56.0939 116.368L45.6094 113.04ZM58.2444 73.2352L68.7289 69.9072L58.2444 36.8771L47.7599 69.9072L58.2444 73.2352ZM70.8794 113.04L60.3949 116.368L62.8302 124.04H70.8794V113.04ZM73.2544 113.04V124.04H81.2125L83.7022 116.482L73.2544 113.04ZM89.1194 64.8752L99.5672 68.3166L104.324 53.8752H89.1194V64.8752ZM86.5544 64.8752V53.8752H78.5988L76.1076 61.4307L86.5544 64.8752ZM72.1144 108.67L61.6277 111.991L71.9036 144.438L82.5612 112.115L72.1144 108.67ZM58.2444 64.8752L68.731 61.554L58.2444 28.4421L47.7577 61.554L58.2444 64.8752ZM44.3744 108.67L33.9276 112.115L44.5851 144.438L54.861 111.991L44.3744 108.67ZM29.9344 64.8752L40.3812 61.4307L37.89 53.8752H29.9344V64.8752ZM27.3694 64.8752V53.8752H12.1647L16.9216 68.3166L27.3694 64.8752ZM43.2344 113.04L32.7866 116.482L35.2763 124.04H43.2344V113.04ZM15.2094 57.2752V68.2752H36.6794V57.2752V46.2752H15.2094V57.2752ZM36.6794 57.2752L26.2349 60.7268L33.5499 82.8618L43.9944 79.4102L54.4388 75.9586L47.1238 53.8236L36.6794 57.2752ZM43.9944 79.4102L54.4388 82.8618L61.7538 60.7268L51.3094 57.2752L40.8649 53.8236L33.5499 75.9586L43.9944 79.4102ZM51.3094 57.2752V68.2752H65.1794V57.2752V46.2752H51.3094V57.2752ZM65.1794 57.2752L54.7349 60.7268L62.0499 82.8618L72.4944 79.4102L82.9388 75.9586L75.6238 53.8236L65.1794 57.2752ZM72.4944 79.4102L82.9388 82.8618L90.2538 60.7268L79.8094 57.2752L69.3649 53.8236L62.0499 75.9586L72.4944 79.4102ZM79.8094 57.2752V68.2752H101.279V57.2752V46.2752H79.8094V57.2752ZM101.279 57.2752L90.833 53.8296L69.9329 117.195L80.3794 120.64L90.8258 124.086L111.726 60.7208L101.279 57.2752ZM80.3794 120.64V109.64H64.6094V120.64V131.64H80.3794V120.64ZM64.6094 120.64L75.05 117.177L68.6851 97.9872L58.2444 101.45L47.8037 104.913L54.1687 124.103L64.6094 120.64ZM58.2444 101.45L47.8037 97.9872L41.4387 117.177L51.8794 120.64L62.3201 124.103L68.6851 104.913L58.2444 101.45ZM51.8794 120.64V109.64H36.1094V120.64V131.64H51.8794V120.64ZM36.1094 120.64L46.5558 117.195L25.6558 53.8296L15.2094 57.2752L4.76295 60.7208L25.6629 124.086L36.1094 120.64ZM45.6094 113.04L56.0939 116.368L68.7289 76.5632L58.2444 73.2352L47.7599 69.9072L35.1249 109.712L45.6094 113.04ZM58.2444 73.2352L47.7599 76.5632L60.3949 116.368L70.8794 113.04L81.3639 109.712L68.7289 69.9072L58.2444 73.2352ZM70.8794 113.04V124.04H73.2544V113.04V102.04H70.8794V113.04ZM73.2544 113.04L83.7022 116.482L99.5672 68.3166L89.1194 64.8752L78.6716 61.4338L62.8066 109.599L73.2544 113.04ZM89.1194 64.8752V53.8752H86.5544V64.8752V75.8752H89.1194V64.8752ZM86.5544 64.8752L76.1076 61.4307L61.6676 105.226L72.1144 108.67L82.5612 112.115L97.0012 68.3197L86.5544 64.8752ZM72.1144 108.67L82.601 105.349L68.731 61.554L58.2444 64.8752L47.7577 68.1964L61.6277 111.991L72.1144 108.67ZM58.2444 64.8752L47.7577 61.554L33.8877 105.349L44.3744 108.67L54.861 111.991L68.731 68.1964L58.2444 64.8752ZM44.3744 108.67L54.8212 105.226L40.3812 61.4307L29.9344 64.8752L19.4876 68.3197L33.9276 112.115L44.3744 108.67ZM29.9344 64.8752V53.8752H27.3694V64.8752V75.8752H29.9344V64.8752ZM27.3694 64.8752L16.9216 68.3166L32.7866 116.482L43.2344 113.04L53.6822 109.599L37.8172 61.4338L27.3694 64.8752ZM43.2344 113.04V124.04H45.6094V113.04V102.04H43.2344V113.04ZM92.7865 104.775V93.7752H81.7865V104.775H92.7865ZM113.117 104.775H124.117V93.7752H113.117V104.775ZM113.117 120.64V131.64H124.117V120.64H113.117ZM92.7865 120.64H81.7865V131.64H92.7865V120.64ZM107.417 113.8V124.8H118.417V113.8H107.417ZM107.417 111.615H118.417V100.615H107.417V111.615ZM98.4865 111.615V100.615H87.4865V111.615H98.4865ZM98.4865 113.8H87.4865V124.8H98.4865V113.8ZM92.7865 104.775V115.775H113.117V104.775V93.7752H92.7865V104.775ZM113.117 104.775H102.117V120.64H113.117H124.117V104.775H113.117ZM113.117 120.64V109.64H92.7865V120.64V131.64H113.117V120.64ZM92.7865 120.64H103.787V104.775H92.7865H81.7865V120.64H92.7865ZM107.417 113.8H118.417V111.615H107.417H96.4165V113.8H107.417ZM107.417 111.615V100.615H98.4865V111.615V122.615L107.417 122.615V111.615ZM98.4865 111.615H87.4865V113.8H98.4865H109.487V111.615H98.4865ZM98.4865 113.8V124.8L107.417 124.8V113.8V102.8H98.4865V113.8ZM117.131 76.0852L107.053 71.6762L107.024 71.7427L106.996 71.8095L117.131 76.0852ZM124.256 65.5402L132.034 73.3184L124.256 65.5402ZM134.896 58.4152L139.172 68.5502L139.239 68.522L139.305 68.4929L134.896 58.4152ZM160.736 58.4152L156.327 68.4929L156.393 68.522L156.46 68.5502L160.736 58.4152ZM171.281 65.5402L163.421 73.2361L163.502 73.3188L163.585 73.3998L171.281 65.5402ZM178.406 76.0852L168.271 80.3609L168.299 80.4277L168.328 80.4942L178.406 76.0852ZM178.406 101.925L168.328 97.5162L168.299 97.5827L168.271 97.6495L178.406 101.925ZM171.281 112.565L179.059 120.343L179.059 120.343L171.281 112.565ZM160.736 119.69L165.012 129.825L165.079 129.797L165.145 129.768L160.736 119.69ZM134.896 119.69L130.487 129.768L130.553 129.797L130.62 129.825L134.896 119.69ZM124.256 112.565L116.396 120.261L116.477 120.344L116.56 120.425L124.256 112.565ZM117.131 101.925L106.996 106.201L107.024 106.268L107.053 106.334L117.131 101.925ZM125.396 98.5052L115.274 102.812L115.291 102.852L115.308 102.891L125.396 98.5052ZM130.621 106.2L138.399 98.422L138.399 98.422L130.621 106.2ZM138.316 111.425L133.93 121.513L133.969 121.53L134.009 121.547L138.316 111.425ZM157.221 111.425L152.914 101.303L152.874 101.32L152.835 101.337L157.221 111.425ZM165.011 106.2L157.233 98.422L157.233 98.422L165.011 106.2ZM170.236 98.5052L180.324 102.891L180.341 102.852L180.358 102.812L170.236 98.5052ZM170.236 79.6002L160.114 83.9073L160.131 83.9468L160.148 83.9862L170.236 79.6002ZM165.011 71.8102L157.233 79.5884L157.233 79.5884L165.011 71.8102ZM157.221 66.5852L152.835 76.673L152.874 76.6901L152.914 76.7069L157.221 66.5852ZM138.316 66.5852L134.009 56.4635L133.969 56.4803L133.93 56.4974L138.316 66.5852ZM130.621 71.8102L138.399 79.5884L138.399 79.5884L130.621 71.8102ZM125.396 79.6002L135.484 83.9862L135.501 83.9468L135.518 83.9073L125.396 79.6002ZM135.561 94.2302L125.43 98.5162L125.461 98.5885L125.493 98.6603L135.561 94.2302ZM138.411 98.4102L146.189 90.632L146.189 90.632L138.411 98.4102ZM142.591 101.26L138.161 111.329L138.233 111.36L138.305 111.391L142.591 101.26ZM152.946 101.26L148.66 91.1296L148.588 91.1601L148.516 91.1917L152.946 101.26ZM157.221 98.4102L149.443 90.632L149.443 90.632L157.221 98.4102ZM160.071 94.2302L170.139 98.6603L170.171 98.5885L170.202 98.5162L160.071 94.2302ZM160.071 83.8752L149.94 88.1612L149.971 88.2335L150.003 88.3053L160.071 83.8752ZM157.221 79.6002L149.443 87.3784L149.443 87.3784L157.221 79.6002ZM152.946 76.7502L148.516 86.8187L148.588 86.8503L148.66 86.8808L152.946 76.7502ZM142.591 76.7502L138.305 66.6196L138.233 66.6501L138.161 66.6817L142.591 76.7502ZM138.411 79.6002L146.189 87.3784L146.189 87.3784L138.411 79.6002ZM135.561 83.8752L145.629 88.3053L145.661 88.2335L145.692 88.1612L135.561 83.8752ZM139.266 109.145L134.844 119.217L134.888 119.237L134.933 119.256L139.266 109.145ZM132.331 104.49L124.43 112.144L124.552 112.269L124.677 112.391L132.331 104.49ZM127.676 97.5552L117.565 101.888L117.584 101.933L117.604 101.977L127.676 97.5552ZM127.676 80.5502L137.748 84.9721L137.768 84.9278L137.787 84.8833L127.676 80.5502ZM132.331 73.6152L124.553 65.837L124.553 65.837L132.331 73.6152ZM139.266 68.8652L134.933 58.7546L134.888 58.7737L134.844 58.7931L139.266 68.8652ZM156.271 68.8652L151.849 78.9373L151.893 78.9567L151.938 78.9758L156.271 68.8652ZM163.206 73.6152L155.305 81.2689L155.427 81.3943L155.552 81.5158L163.206 73.6152ZM167.956 80.5502L157.845 84.8833L157.864 84.9278L157.884 84.9721L167.956 80.5502ZM167.956 97.5552L178.028 101.977L178.048 101.933L178.067 101.888L167.956 97.5552ZM163.206 104.49L155.428 96.712L155.428 96.712L163.206 104.49ZM156.271 109.145L151.938 99.0346L151.893 99.0537L151.849 99.0731L156.271 109.145ZM114.566 89.0052L125.566 89.0052C125.566 85.8591 126.148 83.0114 127.266 80.3609L117.131 76.0852L106.996 71.8095C104.694 77.2656 103.566 83.0313 103.566 89.0052H114.566ZM117.131 76.0852L127.209 80.4942C128.461 77.6325 130.076 75.2763 132.034 73.3184L124.256 65.5402L116.478 57.762C112.482 61.7574 109.348 66.4312 107.053 71.6762L117.131 76.0852ZM124.256 65.5402L132.034 73.3184C134.046 71.3064 136.396 69.7212 139.172 68.5502L134.896 58.4152L130.62 48.2802C125.289 50.5292 120.546 53.694 116.478 57.762L124.256 65.5402ZM134.896 58.4152L139.305 68.4929C141.925 67.3467 144.726 66.7552 147.816 66.7552V55.7552V44.7552C141.786 44.7552 135.974 45.937 130.487 48.3375L134.896 58.4152ZM147.816 55.7552V66.7552C150.906 66.7552 153.707 67.3467 156.327 68.4929L160.736 58.4152L165.145 48.3375C159.658 45.937 153.846 44.7552 147.816 44.7552V55.7552ZM160.736 58.4152L156.46 68.5502C159.216 69.7126 161.501 71.2744 163.421 73.2361L171.281 65.5402L179.141 57.8443C175.108 53.726 170.363 50.5378 165.012 48.2802L160.736 58.4152ZM171.281 65.5402L163.585 73.3998C165.547 75.3206 167.109 77.6055 168.271 80.3609L178.406 76.0852L188.541 71.8095C186.283 66.4582 183.095 61.7131 178.977 57.6806L171.281 65.5402ZM178.406 76.0852L168.328 80.4942C169.475 83.1142 170.066 85.915 170.066 89.0052H181.066H192.066C192.066 82.9754 190.884 77.1629 188.484 71.6762L178.406 76.0852ZM181.066 89.0052H170.066C170.066 92.0954 169.475 94.8962 168.328 97.5162L178.406 101.925L188.484 106.334C190.884 100.848 192.066 95.035 192.066 89.0052H181.066ZM178.406 101.925L168.271 97.6495C167.1 100.425 165.515 102.775 163.503 104.787L171.281 112.565L179.059 120.343C183.127 116.275 186.292 111.532 188.541 106.201L178.406 101.925ZM171.281 112.565L163.503 104.787C161.545 106.745 159.189 108.36 156.327 109.612L160.736 119.69L165.145 129.768C170.39 127.473 175.064 124.339 179.059 120.343L171.281 112.565ZM160.736 119.69L156.46 109.555C153.81 110.673 150.962 111.255 147.816 111.255V122.255V133.255C153.79 133.255 159.556 132.127 165.012 129.825L160.736 119.69ZM147.816 122.255V111.255C144.67 111.255 141.822 110.673 139.172 109.555L134.896 119.69L130.62 129.825C136.076 132.127 141.842 133.255 147.816 133.255V122.255ZM134.896 119.69L139.305 109.612C136.423 108.352 134.002 106.713 131.952 104.706L124.256 112.565L116.56 120.425C120.59 124.371 125.262 127.482 130.487 129.768L134.896 119.69ZM124.256 112.565L132.116 104.869C130.108 102.819 128.47 100.398 127.209 97.5162L117.131 101.925L107.053 106.334C109.339 111.559 112.45 116.231 116.396 120.261L124.256 112.565ZM117.131 101.925L127.266 97.6495C126.148 94.9989 125.566 92.1513 125.566 89.0052L114.566 89.0052H103.566C103.566 94.9791 104.694 100.745 106.996 106.201L117.131 101.925ZM123.496 89.0052L112.496 89.0052C112.496 93.7852 113.406 98.4223 115.274 102.812L125.396 98.5052L135.518 94.1981C134.852 92.6348 134.496 90.9386 134.496 89.0052H123.496ZM125.396 98.5052L115.308 102.891C117.118 107.053 119.637 110.773 122.843 113.978L130.621 106.2L138.399 98.422C137.172 97.1945 136.208 95.7843 135.484 94.1192L125.396 98.5052ZM130.621 106.2L122.843 113.978C126.049 117.184 129.768 119.704 133.93 121.513L138.316 111.425L142.702 101.337C141.037 100.613 139.627 99.6496 138.399 98.422L130.621 106.2ZM138.316 111.425L134.009 121.547C138.399 123.415 143.036 124.325 147.816 124.325V113.325V102.325C145.883 102.325 144.186 101.969 142.623 101.303L138.316 111.425ZM147.816 113.325V124.325C152.595 124.325 157.232 123.415 161.607 121.513L157.221 111.425L152.835 101.337C151.383 101.969 149.751 102.325 147.816 102.325V113.325ZM157.221 111.425L161.528 121.547C165.759 119.747 169.544 117.223 172.789 113.978L165.011 106.2L157.233 98.422C156.044 99.6105 154.636 100.571 152.914 101.303L157.221 111.425ZM165.011 106.2L172.789 113.978C175.995 110.773 178.514 107.053 180.324 102.891L170.236 98.5052L160.148 94.1192C159.424 95.7843 158.46 97.1945 157.233 98.422L165.011 106.2ZM170.236 98.5052L180.358 102.812C182.226 98.4223 183.136 93.7852 183.136 89.0052H172.136H161.136C161.136 90.9386 160.78 92.6348 160.114 94.1981L170.236 98.5052ZM172.136 89.0052H183.136C183.136 84.2264 182.226 79.5891 180.324 75.2142L170.236 79.6002L160.148 83.9862C160.779 85.438 161.136 87.0707 161.136 89.0052H172.136ZM170.236 79.6002L180.358 75.2931C178.557 71.0622 176.034 67.2769 172.789 64.032L165.011 71.8102L157.233 79.5884C158.421 80.7768 159.381 82.1848 160.114 83.9073L170.236 79.6002ZM165.011 71.8102L172.789 64.032C169.544 60.7871 165.759 58.2639 161.528 56.4635L157.221 66.5852L152.914 76.7069C154.636 77.4399 156.044 78.3999 157.233 79.5884L165.011 71.8102ZM157.221 66.5852L161.607 56.4974C157.232 54.5953 152.595 53.6852 147.816 53.6852V64.6852V75.6852C149.751 75.6852 151.383 76.0417 152.835 76.673L157.221 66.5852ZM147.816 64.6852V53.6852C143.036 53.6852 138.399 54.5954 134.009 56.4635L138.316 66.5852L142.623 76.7069C144.186 76.0417 145.883 75.6852 147.816 75.6852V64.6852ZM138.316 66.5852L133.93 56.4974C129.768 58.3068 126.049 60.8262 122.843 64.032L130.621 71.8102L138.399 79.5884C139.627 78.3608 141.037 77.3969 142.702 76.673L138.316 66.5852ZM130.621 71.8102L122.843 64.032C119.598 67.2769 117.075 71.0622 115.274 75.2931L125.396 79.6002L135.518 83.9073C136.251 82.1848 137.211 80.7768 138.399 79.5884L130.621 71.8102ZM125.396 79.6002L115.308 75.2142C113.406 79.5891 112.496 84.2264 112.496 89.0052L123.496 89.0052H134.496C134.496 87.0707 134.853 85.438 135.484 83.9862L125.396 79.6002ZM134.516 89.0052H123.516C123.516 92.2733 124.144 95.4762 125.43 98.5162L135.561 94.2302L145.692 89.9442C145.585 89.6909 145.516 89.4104 145.516 89.0052H134.516ZM135.561 94.2302L125.493 98.6603C126.729 101.471 128.449 104.005 130.633 106.188L138.411 98.4102L146.189 90.632C145.966 90.4092 145.786 90.1561 145.629 89.8001L135.561 94.2302ZM138.411 98.4102L130.633 106.188C132.817 108.372 135.35 110.092 138.161 111.329L142.591 101.26L147.021 91.1917C146.665 91.0351 146.412 90.8549 146.189 90.632L138.411 98.4102ZM142.591 101.26L138.305 111.391C141.345 112.677 144.548 113.305 147.816 113.305V102.305V91.3052C147.411 91.3052 147.13 91.2367 146.877 91.1296L142.591 101.26ZM147.816 102.305V113.305C151.082 113.305 154.312 112.677 157.376 111.329L152.946 101.26L148.516 91.1917C148.414 91.2366 148.223 91.3052 147.816 91.3052V102.305ZM152.946 101.26L157.232 111.391C160.116 110.171 162.744 108.444 164.999 106.188L157.221 98.4102L149.443 90.632C149.291 90.7834 149.069 90.9565 148.66 91.1296L152.946 101.26ZM157.221 98.4102L164.999 106.188C167.183 104.005 168.903 101.471 170.139 98.6603L160.071 94.2302L150.003 89.8001C149.846 90.1561 149.666 90.4092 149.443 90.632L157.221 98.4102ZM160.071 94.2302L170.202 98.5162C171.488 95.4762 172.116 92.2733 172.116 89.0052H161.116H150.116C150.116 89.4104 150.048 89.6909 149.94 89.9441L160.071 94.2302ZM161.116 89.0052H172.116C172.116 85.739 171.488 82.5097 170.139 79.4451L160.071 83.8752L150.003 88.3053C150.047 88.4074 150.116 88.598 150.116 89.0052H161.116ZM160.071 83.8752L170.202 79.5892C168.981 76.7049 167.254 74.0773 164.999 71.822L157.221 79.6002L149.443 87.3784C149.594 87.5297 149.767 87.7521 149.94 88.1612L160.071 83.8752ZM157.221 79.6002L164.999 71.822C162.744 69.5667 160.116 67.8398 157.232 66.6196L152.946 76.7502L148.66 86.8808C149.069 87.0539 149.291 87.227 149.443 87.3784L157.221 79.6002ZM152.946 76.7502L157.376 66.6817C154.312 65.3333 151.082 64.7052 147.816 64.7052V75.7052V86.7052C148.223 86.7052 148.414 86.7738 148.516 86.8187L152.946 76.7502ZM147.816 75.7052V64.7052C144.548 64.7052 141.345 65.3334 138.305 66.6196L142.591 76.7502L146.877 86.8808C147.13 86.7737 147.411 86.7052 147.816 86.7052V75.7052ZM142.591 76.7502L138.161 66.6817C135.35 67.9184 132.817 69.6382 130.633 71.822L138.411 79.6002L146.189 87.3784C146.412 87.1555 146.665 86.9753 147.021 86.8187L142.591 76.7502ZM138.411 79.6002L130.633 71.822C128.378 74.0773 126.651 76.7049 125.43 79.5892L135.561 83.8752L145.692 88.1612C145.865 87.7521 146.038 87.5297 146.189 87.3784L138.411 79.6002ZM135.561 83.8752L125.493 79.4451C124.144 82.5097 123.516 85.739 123.516 89.0052H134.516H145.516C145.516 88.598 145.585 88.4074 145.629 88.3053L135.561 83.8752ZM147.816 110.855V99.8552C146.189 99.8552 144.821 99.5584 143.599 99.0346L139.266 109.145L134.933 119.256C139.031 121.012 143.363 121.855 147.816 121.855V110.855ZM139.266 109.145L143.688 99.0731C142.283 98.4563 141.067 97.638 139.985 96.5896L132.331 104.49L124.677 112.391C127.648 115.269 131.056 117.554 134.844 119.217L139.266 109.145ZM132.331 104.49L140.232 96.8365C139.183 95.7542 138.365 94.5383 137.748 93.1333L127.676 97.5552L117.604 101.977C119.267 105.765 121.552 109.173 124.43 112.144L132.331 104.49ZM127.676 97.5552L137.787 93.2221C137.263 92 136.966 90.632 136.966 89.0052H125.966L114.966 89.0052C114.966 93.4583 115.809 97.7904 117.565 101.888L127.676 97.5552ZM125.966 89.0052H136.966C136.966 87.3764 137.263 86.0766 137.748 84.9721L127.676 80.5502L117.604 76.1283C115.809 80.2171 114.966 84.554 114.966 89.0052L125.966 89.0052ZM127.676 80.5502L137.787 84.8833C138.399 83.4543 139.177 82.3255 140.109 81.3934L132.331 73.6152L124.553 65.837C121.558 68.8316 119.233 72.3261 117.565 76.2171L127.676 80.5502ZM132.331 73.6152L140.109 81.3934C141.18 80.3227 142.356 79.5218 143.688 78.9373L139.266 68.8652L134.844 58.7931C130.982 60.4885 127.535 62.8544 124.553 65.837L132.331 73.6152ZM139.266 68.8652L143.599 78.9758C144.821 78.452 146.189 78.1552 147.816 78.1552V67.1552V56.1552C143.363 56.1552 139.031 56.9984 134.933 58.7546L139.266 68.8652ZM147.816 67.1552V78.1552C149.445 78.1552 150.745 78.4524 151.849 78.9373L156.271 68.8652L160.693 58.7931C156.604 56.998 152.267 56.1552 147.816 56.1552V67.1552ZM156.271 68.8652L151.938 78.9758C153.293 79.5565 154.383 80.3167 155.305 81.2689L163.206 73.6152L171.107 65.9614C168.102 62.8604 164.569 60.4539 160.604 58.7546L156.271 68.8652ZM163.206 73.6152L155.552 81.5158C156.505 82.4383 157.265 83.5284 157.845 84.8833L167.956 80.5502L178.067 76.2171C176.367 72.252 173.961 68.7187 170.86 65.7146L163.206 73.6152ZM167.956 80.5502L157.884 84.9721C158.369 86.0766 158.666 87.3764 158.666 89.0052H169.666H180.666C180.666 84.554 179.823 80.2171 178.028 76.1283L167.956 80.5502ZM169.666 89.0052H158.666C158.666 90.632 158.369 92 157.845 93.2221L167.956 97.5552L178.067 101.888C179.823 97.7904 180.666 93.4583 180.666 89.0052H169.666ZM167.956 97.5552L157.884 93.1333C157.299 94.4648 156.499 95.6413 155.428 96.712L163.206 104.49L170.984 112.268C173.967 109.286 176.333 105.839 178.028 101.977L167.956 97.5552ZM163.206 104.49L155.428 96.712C154.496 97.6441 153.367 98.4222 151.938 99.0346L156.271 109.145L160.604 119.256C164.495 117.588 167.99 115.263 170.984 112.268L163.206 104.49ZM156.271 109.145L151.849 99.0731C150.745 99.558 149.445 99.8552 147.816 99.8552V110.855V121.855C152.267 121.855 156.604 121.012 160.693 119.217L156.271 109.145ZM182.498 104.775V93.7752H171.498V104.775H182.498ZM202.828 104.775H213.828V93.7752H202.828V104.775ZM202.828 120.64V131.64H213.828V120.64H202.828ZM182.498 120.64H171.498V131.64H182.498V120.64ZM197.128 113.8V124.8H208.128V113.8H197.128ZM197.128 111.615H208.128V100.615H197.128V111.615ZM188.198 111.615V100.615H177.198V111.615H188.198ZM188.198 113.8H177.198V124.8H188.198V113.8ZM182.498 104.775V115.775H202.828V104.775V93.7752H182.498V104.775ZM202.828 104.775H191.828V120.64H202.828H213.828V104.775H202.828ZM202.828 120.64V109.64H182.498V120.64V131.64H202.828V120.64ZM182.498 120.64H193.498V104.775H182.498H171.498V120.64H182.498ZM197.128 113.8H208.128V111.615H197.128H186.128V113.8H197.128ZM197.128 111.615V100.615H188.198V111.615V122.615H197.128V111.615ZM188.198 111.615H177.198V113.8H188.198H199.198V111.615H188.198ZM188.198 113.8V124.8H197.128V113.8V102.8H188.198V113.8ZM194.355 57.2752V46.2752H179.144L183.908 60.7208L194.355 57.2752ZM215.825 57.2752L226.269 53.8236L223.775 46.2752H215.825V57.2752ZM223.14 79.4102L212.695 82.8618L223.14 114.466L233.584 82.8618L223.14 79.4102ZM230.455 57.2752V46.2752H222.505L220.01 53.8236L230.455 57.2752ZM244.325 57.2752L254.769 53.8236L252.275 46.2752H244.325V57.2752ZM251.64 79.4102L241.195 82.8618L251.64 114.466L262.084 82.8618L251.64 79.4102ZM258.955 57.2752V46.2752H251.005L248.51 53.8236L258.955 57.2752ZM280.425 57.2752L290.871 60.7208L295.636 46.2752L280.425 46.2752V57.2752ZM259.525 120.64V131.64L267.48 131.64L269.971 124.086L259.525 120.64ZM243.755 120.64L233.314 124.103L235.814 131.64H243.755V120.64ZM237.39 101.45L247.831 97.9872L237.39 66.5093L226.949 97.9872L237.39 101.45ZM231.025 120.64V131.64H238.966L241.466 124.103L231.025 120.64ZM215.255 120.64L204.808 124.086L207.3 131.64H215.255V120.64ZM224.755 113.04V124.04H232.804L235.239 116.368L224.755 113.04ZM237.39 73.2352L247.874 69.9072L237.39 36.8771L226.905 69.9072L237.39 73.2352ZM250.025 113.04L239.54 116.368L241.976 124.04H250.025V113.04ZM252.4 113.04V124.04H260.358L262.848 116.482L252.4 113.04ZM268.265 64.8752L278.713 68.3166L283.47 53.8752H268.265V64.8752ZM265.7 64.8752V53.8752H257.744L255.253 61.4307L265.7 64.8752ZM251.26 108.67L240.773 111.991L251.049 144.438L261.707 112.115L251.26 108.67ZM237.39 64.8752L247.877 61.554L237.39 28.4421L226.903 61.554L237.39 64.8752ZM223.52 108.67L213.073 112.115L223.731 144.438L234.007 111.991L223.52 108.67ZM209.08 64.8752L219.527 61.4307L217.035 53.8752H209.08V64.8752ZM206.515 64.8752V53.8752H191.31L196.067 68.3166L206.515 64.8752ZM222.38 113.04L211.932 116.482L214.422 124.04H222.38V113.04ZM194.355 57.2752V68.2752H215.825V57.2752V46.2752H194.355V57.2752ZM215.825 57.2752L205.38 60.7268L212.695 82.8618L223.14 79.4102L233.584 75.9586L226.269 53.8236L215.825 57.2752ZM223.14 79.4102L233.584 82.8618L240.899 60.7268L230.455 57.2752L220.01 53.8236L212.695 75.9586L223.14 79.4102ZM230.455 57.2752V68.2752H244.325V57.2752V46.2752L230.455 46.2752V57.2752ZM244.325 57.2752L233.88 60.7268L241.195 82.8618L251.64 79.4102L262.084 75.9586L254.769 53.8236L244.325 57.2752ZM251.64 79.4102L262.084 82.8618L269.399 60.7268L258.955 57.2752L248.51 53.8236L241.195 75.9586L251.64 79.4102ZM258.955 57.2752V68.2752H280.425V57.2752V46.2752H258.955V57.2752ZM280.425 57.2752L269.978 53.8296L249.078 117.195L259.525 120.64L269.971 124.086L290.871 60.7208L280.425 57.2752ZM259.525 120.64V109.64H243.755V120.64V131.64H259.525V120.64ZM243.755 120.64L254.196 117.177L247.831 97.9872L237.39 101.45L226.949 104.913L233.314 124.103L243.755 120.64ZM237.39 101.45L226.949 97.9872L220.584 117.177L231.025 120.64L241.466 124.103L247.831 104.913L237.39 101.45ZM231.025 120.64V109.64L215.255 109.64V120.64V131.64H231.025V120.64ZM215.255 120.64L225.701 117.195L204.801 53.8296L194.355 57.2752L183.908 60.7208L204.808 124.086L215.255 120.64ZM224.755 113.04L235.239 116.368L247.874 76.5632L237.39 73.2352L226.905 69.9072L214.27 109.712L224.755 113.04ZM237.39 73.2352L226.905 76.5632L239.54 116.368L250.025 113.04L260.509 109.712L247.874 69.9072L237.39 73.2352ZM250.025 113.04V124.04H252.4V113.04V102.04H250.025V113.04ZM252.4 113.04L262.848 116.482L278.713 68.3166L268.265 64.8752L257.817 61.4338L241.952 109.599L252.4 113.04ZM268.265 64.8752V53.8752H265.7V64.8752V75.8752H268.265V64.8752ZM265.7 64.8752L255.253 61.4307L240.813 105.226L251.26 108.67L261.707 112.115L276.147 68.3197L265.7 64.8752ZM251.26 108.67L261.747 105.349L247.877 61.554L237.39 64.8752L226.903 68.1964L240.773 111.991L251.26 108.67ZM237.39 64.8752L226.903 61.554L213.033 105.349L223.52 108.67L234.007 111.991L247.877 68.1964L237.39 64.8752ZM223.52 108.67L233.967 105.226L219.527 61.4307L209.08 64.8752L198.633 68.3197L213.073 112.115L223.52 108.67ZM209.08 64.8752V53.8752H206.515V64.8752V75.8752H209.08V64.8752ZM206.515 64.8752L196.067 68.3166L211.932 116.482L222.38 113.04L232.828 109.599L216.963 61.4338L206.515 64.8752ZM222.38 113.04V124.04H224.755V113.04V102.04H222.38V113.04ZM271.932 104.775V93.7752H260.932V104.775H271.932ZM292.262 104.775H303.262V93.7752H292.262V104.775ZM292.262 120.64V131.64H303.262V120.64H292.262ZM271.932 120.64H260.932V131.64L271.932 131.64V120.64ZM286.562 113.8V124.8H297.562V113.8H286.562ZM286.562 111.615H297.562V100.615H286.562V111.615ZM277.632 111.615V100.615H266.632V111.615H277.632ZM277.632 113.8H266.632V124.8H277.632V113.8ZM271.932 104.775V115.775H292.262V104.775V93.7752H271.932V104.775ZM292.262 104.775H281.262V120.64H292.262H303.262V104.775H292.262ZM292.262 120.64V109.64H271.932V120.64V131.64H292.262V120.64ZM271.932 120.64H282.932V104.775H271.932H260.932V120.64H271.932ZM286.562 113.8H297.562V111.615H286.562H275.562V113.8H286.562ZM286.562 111.615V100.615H277.632V111.615V122.615H286.562V111.615ZM277.632 111.615H266.632V113.8H277.632H288.632V111.615H277.632ZM277.632 113.8V124.8H286.562V113.8V102.8H277.632V113.8Z" fill="#5D2B8A" mask="url(#path-2-outside-1_387_994)"/>
</svg>
