<svg width="960" height="1335" viewBox="0 0 960 1335" fill="none" xmlns="http://www.w3.org/2000/svg">
<line x1="213.137" y1="716.027" x2="213.137" y2="209.508" stroke="black" stroke-width="10"/>
<line y1="-5" x2="708.199" y2="-5" transform="matrix(0.00378663 0.999993 -0.999681 0.025251 164.924 292.242)" stroke="black" stroke-width="10"/>
<path d="M859.53 826.456L1005.44 1044.07L1184.31 845.412C1106.57 773.702 1066.3 735.513 1019.25 682.503C976.58 637.831 956.16 613.216 922.859 569.691C864.732 502.914 833.234 465.674 792.181 402.027C755.319 364.743 734.801 344.071 713.284 330.987C634.602 291.099 589.423 269.189 523.492 223.876C494.758 206.645 486.362 203.238 480.601 204.645C452.717 211.813 435.895 214.754 402.869 217.31L334.922 201.541C291.171 194.922 258.019 190.383 253.644 187.544C244.593 181.744 241.314 180.638 236.031 179.338C222.143 179.295 212.766 178.219 193.081 174.34C184.732 183.706 181.636 188.556 183.973 195.222C188.26 201.138 193.579 206.174 211.869 220.34C220.973 228.341 234.913 232.32 273.011 238.656C254.291 245.237 247.172 248.999 212.087 255.231C206.531 257.59 202.608 259.07 193.653 262.104C165.81 263.062 157.033 264.721 157.38 266.689C154.936 275.219 154.701 279.848 157.939 287.602C166.11 302.205 173.36 306.384 190.374 307.112L281.978 290.099L281.293 290.665C252.746 314.242 236.532 327.633 228.388 330.625C220.248 337.355 214.881 342.42 195.659 366.974C195.625 373.431 199.603 377.782 210.902 386.312C223.789 390.416 233.393 386.954 253.462 373.611C258.136 378.827 260.689 381.274 265.014 384.013C271.175 386.584 278.479 385.427 300.894 377.031C297.295 388.08 297.978 397.577 310.385 404.456C362.042 415.973 403.923 420.402 482.891 427.633L524.008 438.634C563.389 451.892 589.178 452.14 638.262 446.607C663.946 455.235 675.855 465.367 691.8 494.813C712.077 545.137 723.969 570.627 745.97 611.448C789.924 703.095 814.727 751.257 859.53 826.456Z" fill="#FFFFCA"/>
<path d="M638.262 446.607C663.946 455.235 675.855 465.367 691.8 494.813C712.077 545.137 723.969 570.627 745.97 611.448C789.924 703.095 814.727 751.257 859.53 826.456L1005.44 1044.07L1184.31 845.412C1106.57 773.702 1066.3 735.513 1019.25 682.503C976.58 637.831 956.16 613.216 922.859 569.691C864.732 502.914 833.234 465.674 792.181 402.027C755.319 364.743 734.801 344.071 713.284 330.987C634.602 291.099 589.423 269.189 523.492 223.876C494.758 206.645 486.362 203.238 480.601 204.645C452.717 211.813 435.895 214.754 402.869 217.31M638.262 446.607C589.178 452.14 563.389 451.892 524.008 438.634L482.891 427.633C403.923 420.402 362.042 415.973 310.385 404.456C297.978 397.577 297.295 388.08 300.894 377.031M638.262 446.607C611.003 443.623 600.401 440.88 586.633 434.814C557.67 420.27 534.89 397.518 490.265 348.044C480.165 342.041 474.741 341.514 465.351 343.981M300.894 377.031C278.479 385.427 271.175 386.584 265.014 384.013C260.689 381.274 258.136 378.827 253.462 373.611M300.894 377.031L351.6 355.849M253.462 373.611C233.393 386.954 223.789 390.417 210.902 386.312C199.603 377.782 195.625 373.431 195.659 366.974C214.881 342.42 220.248 337.355 228.388 330.625C236.596 327.609 253.005 314.027 281.978 290.099M253.462 373.611C249.552 369.177 249.087 365.897 251.859 358.391C258.062 352.111 265.548 348.713 283.258 342.785C316.542 323.724 331.999 313.763 351.247 297.875C376.306 282.87 400.726 279.63 450.288 276.844C464.421 273.923 475.447 269.845 502.658 256.648M281.978 290.099C286.227 288.665 290.828 285.237 303.538 273.796C313.251 264.748 319.602 259.848 343.281 253.456C396.657 246.849 425.587 242.203 472.507 229.501M281.978 290.099L190.374 307.112C173.36 306.384 166.11 302.205 157.939 287.602C154.701 279.848 154.936 275.219 157.38 266.689C157.033 264.721 165.81 263.062 193.653 262.104C202.608 259.07 206.531 257.59 212.087 255.231C247.172 248.999 254.291 245.237 273.011 238.656M273.011 238.656L295.205 232.618C325.491 223.185 353.11 221.022 402.869 217.31M273.011 238.656C234.913 232.32 220.973 228.341 211.869 220.34C193.579 206.174 188.26 201.138 183.973 195.222C181.636 188.556 184.732 183.706 193.081 174.34C212.766 178.219 222.143 179.295 236.031 179.338C241.314 180.638 244.593 181.744 253.644 187.544C258.019 190.383 291.171 194.922 334.922 201.541L402.869 217.31M351.6 355.849C413.043 364.517 443.294 368.134 463.205 364.498C469.964 359.895 471.318 355.91 465.351 343.981M351.6 355.849C356.491 350.144 362.43 346.216 380.323 340.382L438.325 335.463C450.014 334.783 456.547 334.467 465.351 343.981" stroke="black" stroke-width="10"/>
<path d="M463.32 364.483C443.409 368.12 413.158 364.502 351.716 355.834C356.606 350.129 362.545 346.201 380.438 340.368L438.441 335.448C450.129 334.768 456.662 334.452 465.467 343.966C471.434 355.895 470.08 359.88 463.32 364.483Z" fill="#B6370D" stroke="black" stroke-width="10"/>
<line y1="-5" x2="737.628" y2="-5" transform="matrix(0.00454444 0.99999 -0.99999 0.00452168 321.133 384.527)" stroke="black" stroke-width="10"/>
<path d="M369.228 1145.96L425.187 1088.28L465.897 1230.25L410.114 1288.55L369.228 1145.96Z" fill="#5D2B8A"/>
<path d="M225.254 1188.04L368.702 1146.91L409.623 1289.62L266.175 1330.76L225.254 1188.04Z" fill="#F7CA4B"/>
<path d="M281.508 1128.15L422.621 1087.68L369.435 1143.91L226.725 1184.83L281.508 1128.15Z" fill="#A50000"/>
<path d="M444.117 1220.8L412.603 1229.84L412.113 1228.13C419.019 1223.13 420.841 1219.45 421.39 1211.68C421.442 1208.84 421.138 1207.1 420.131 1203.81C418.744 1209.95 417.112 1212.35 412.839 1214.98C411.95 1215.4 411.429 1215.56 410.415 1215.67C404.039 1215.23 401.413 1213.13 398.186 1206.57C397.494 1204.78 397.189 1203.77 396.85 1201.91C396.214 1194.58 397.288 1191.63 401.724 1188.41C402.809 1187.99 403.448 1187.82 404.61 1187.58C406.255 1187.44 407.21 1187.66 409.043 1188.66C406.777 1185.93 405.811 1184.33 404.578 1181.37C404.031 1180.15 403.817 1179.44 403.643 1178.11C403.4 1171.18 404.425 1168.13 409.182 1164.76C410.332 1164.18 411.016 1163.98 412.299 1163.86C418.296 1164.51 421.069 1166.01 424.19 1172.22C424.641 1173.41 424.826 1174.15 425.125 1175.48C425.647 1178.89 425.64 1180.76 425.088 1184.06C426.11 1182.32 426.843 1181.58 428.505 1180.73C429.539 1180.26 430.152 1180.1 431.275 1179.94C436.56 1180.38 439.032 1182.24 442.447 1188.84L443.783 1193.5C444.167 1201.73 443.112 1204.97 438.35 1207.66L435.349 1208.52C429.735 1208.19 427.337 1206.66 423.709 1202.78L424.6 1205.89C429.401 1215.51 433.451 1218.57 443.44 1219.31L444.117 1220.8Z" fill="#F7CA4B"/>
<path d="M313.762 1126.97C317.558 1126.82 318.896 1127.58 320.144 1130.14C322.879 1127.58 324.734 1126.51 328.81 1125.5C330.111 1125.21 330.865 1125.17 332.225 1125.17C339.808 1125.32 340.856 1127.88 338.245 1134.64C336.713 1137.68 336.519 1138.82 331.024 1141.56L320.756 1146.48C315.77 1149.24 313.811 1151.03 310.841 1154.37C310.723 1151.56 309.923 1150.11 306.561 1147.86L301.051 1144.82C297.464 1143.54 296.728 1141.79 296.568 1138.83C295.899 1136.67 301.882 1127.89 311.734 1127.16C312.477 1127.07 312.915 1127.03 313.762 1126.97Z" fill="#6CC5BD"/>
<path d="M335.106 1271.74C328.803 1272.6 325.376 1273.55 319.467 1276.23L319.254 1275.48C321.517 1266.27 321.577 1261.91 319.425 1255.7L318.411 1252.17C316.636 1257.99 314.858 1260.59 310.306 1263.96L310.129 1264.03C308.786 1264.62 307.981 1264.98 306.478 1265.46C305.091 1265.9 304.292 1266.11 302.673 1266.15C292.24 1265.75 288.001 1263.14 283.642 1253.88L282.415 1249.61C281.277 1240.26 283.303 1234.81 292.373 1224.6L294.18 1222.47C301.74 1214.08 304.436 1208.84 305.575 1198.27C311.92 1206.23 316.667 1209.55 327.879 1212.81L330.726 1213.61C343.909 1217.87 349.135 1221.16 352.234 1229.59L353.461 1233.86C354.801 1243.76 352.868 1248.37 343.447 1254.45L341.314 1255.19L338.978 1255.74C332.832 1256.86 328.976 1255.12 322.424 1250.57L323.707 1254.48C328.061 1263.71 330.516 1266.76 334.893 1271L335.106 1271.74Z" fill="#5D2B8A"/>
<path d="M410.167 1289.2L265.736 1330.61L224.006 1186.94M410.167 1289.2L368.928 1145.38M410.167 1289.2L466.951 1230.21L425.712 1086.4M368.928 1145.38L224.006 1186.94M368.928 1145.38L425.712 1086.4M224.006 1186.94L280.666 1127.99L425.712 1086.4" stroke="black" stroke-width="7"/>
<path d="M115.145 926.943C161.149 893.52 225.537 903.718 258.961 949.722C292.384 995.725 282.186 1060.11 236.183 1093.54C190.179 1126.96 125.791 1116.76 92.3672 1070.76C58.9437 1024.76 69.1418 960.367 115.145 926.943Z" fill="#5D2B8A" stroke="black" stroke-width="4"/>
<path d="M276.58 1034.03L277.485 1034.46L277.266 1035.84L276.069 1037.52L274.748 1042.67L271.9 1051.87L267.738 1060.31L262.777 1068.23L243.171 1058.92C252.304 1047.01 254.839 1039.9 257.444 1025.62L276.58 1034.03Z" fill="#FDF07E"/>
<path d="M276.33 1033.68L257.194 1025.28C254.59 1039.55 252.054 1046.66 242.921 1058.57L262.527 1067.89" stroke="black" stroke-width="4" stroke-linejoin="round"/>
<path d="M247.607 936.099L248.431 935.53L249.518 936.41L250.373 938.286L254.173 942.006L260.72 949.074L265.943 956.895L270.326 965.155L252.456 977.476C246.707 963.611 241.817 957.86 230.757 948.467L247.607 936.099Z" fill="#FDF07E"/>
<path d="M247.181 936.142L230.331 948.51C241.391 957.903 246.281 963.654 252.031 977.519L269.901 965.198" stroke="black" stroke-width="4" stroke-linejoin="round"/>
<path d="M82.7624 1055.16L81.9667 1055.77L82.4678 1057.08L83.9874 1058.47L86.351 1063.23L91.0504 1071.64L96.8746 1079.03L103.375 1085.75L120.616 1072.56C109.206 1062.81 105.248 1056.38 99.7321 1042.96L82.7624 1055.16Z" fill="#FDF07E"/>
<path d="M82.9359 1054.77L99.9057 1042.57C105.421 1055.99 109.38 1062.42 120.789 1072.17L103.549 1085.36" stroke="black" stroke-width="4" stroke-linejoin="round"/>
<path d="M167.083 1113.42L167.212 1114.41L168.593 1114.63L170.559 1114.01L175.866 1114.34L185.5 1114.48L194.807 1113.13L203.878 1110.86L201.077 1089.33C186.926 1094.34 179.38 1094.55 164.999 1092.62L167.083 1113.42Z" fill="#FDF07E"/>
<path d="M166.831 1113.07L164.747 1092.27C179.128 1094.21 186.674 1093.99 200.825 1088.99L203.626 1110.51" stroke="black" stroke-width="4" stroke-linejoin="round"/>
<path d="M184.353 906.622L184.224 905.629L182.843 905.41L180.876 906.03L175.569 905.695L165.935 905.559L156.629 906.911L147.558 909.181L150.359 930.705C164.51 925.7 172.056 925.486 186.436 927.42L184.353 906.622Z" fill="#FDF07E"/>
<path d="M184.605 906.97L186.688 927.768C172.308 925.834 164.762 926.048 150.611 931.053L147.81 909.529" stroke="black" stroke-width="4" stroke-linejoin="round"/>
<path d="M75.0194 986.233L74.1147 985.803L74.3334 984.422L75.5301 982.743L76.8516 977.592L79.6997 968.388L83.8614 959.955L88.8229 952.029L108.428 961.344C99.2956 973.256 96.7601 980.366 94.1556 994.641L75.0194 986.233Z" fill="#FDF07E"/>
<path d="M75.2692 986.576L94.4054 994.985C97.0099 980.71 99.5454 973.6 108.678 961.688L89.0727 952.373" stroke="black" stroke-width="4" stroke-linejoin="round"/>
<path d="M105.277 934.271L117.393 950.947C123.578 943.957 127.961 940.814 137.279 936.499L125.163 919.824" stroke="black" stroke-width="4" stroke-linejoin="round"/>
<ellipse cx="220.87" cy="1084.96" rx="2.11899" ry="2.11899" transform="rotate(-36 220.87 1084.96)" fill="#FDF07E"/>
<ellipse cx="232.755" cy="1076.32" rx="2.11899" ry="2.11899" transform="rotate(-36 232.755 1076.32)" fill="#FDF07E"/>
<ellipse cx="224.688" cy="1090.21" rx="2.11899" ry="2.11899" transform="rotate(-36 224.688 1090.21)" fill="#FDF07E"/>
<ellipse cx="236.575" cy="1081.58" rx="2.11899" ry="2.11899" transform="rotate(-36 236.575 1081.58)" fill="#FDF07E"/>
<ellipse cx="228.509" cy="1095.47" rx="2.11899" ry="2.11899" transform="rotate(-36 228.509 1095.47)" fill="#FDF07E"/>
<ellipse cx="240.393" cy="1086.84" rx="2.11899" ry="2.11899" transform="rotate(-36 240.393 1086.84)" fill="#FDF07E"/>
<path d="M226.162 1100.65L214.046 1083.98C222.606 1080.26 226.949 1077.06 233.932 1069.53L246.048 1086.21" stroke="black" stroke-width="4" stroke-linejoin="round"/>
<ellipse cx="132.506" cy="1087.95" rx="2.11899" ry="2.11899" transform="rotate(24 132.506 1087.95)" fill="#FDF07E"/>
<ellipse cx="142.724" cy="1092.4" rx="2.11899" ry="2.11899" transform="rotate(24 142.724 1092.4)" fill="#FDF07E"/>
<ellipse cx="128.244" cy="1096.99" rx="2.11899" ry="2.11899" transform="rotate(24 128.244 1096.99)" fill="#FDF07E"/>
<ellipse cx="140.041" cy="1101.69" rx="2.11899" ry="2.11899" transform="rotate(24 140.041 1101.69)" fill="#FDF07E"/>
<circle cx="88.2567" cy="1013.59" r="2.11899" transform="rotate(84 88.2567 1013.59)" fill="#FDF07E"/>
<circle cx="83.1043" cy="1021.47" r="2.11899" transform="rotate(84 83.1043 1021.47)" fill="#FDF07E"/>
<circle cx="89.3934" cy="1028.13" r="2.11899" transform="rotate(84 89.3934 1028.13)" fill="#FDF07E"/>
<circle cx="76.3192" cy="1014.84" r="2.11899" transform="rotate(84 76.3192 1014.84)" fill="#FDF07E"/>
<circle cx="77.8543" cy="1029.46" r="2.11899" transform="rotate(84 77.8543 1029.46)" fill="#FDF07E"/>
<ellipse cx="219.885" cy="934.716" rx="2.11899" ry="2.11899" transform="rotate(-156 219.885 934.716)" fill="#FDF07E"/>
<ellipse cx="215.381" cy="926.114" rx="2.11899" ry="2.11899" transform="rotate(-156 215.381 926.114)" fill="#FDF07E"/>
<ellipse cx="210.483" cy="917.448" rx="2.11899" ry="2.11899" transform="rotate(-156 210.483 917.448)" fill="#FDF07E"/>
<path d="M230.043 922.051L221.659 940.881C214.156 935.33 209.216 933.166 199.204 930.883L207.588 912.053" stroke="black" stroke-width="4" stroke-linejoin="round"/>
<path d="M75.0371 1034.67L95.5366 1032.52C92.5755 1023.67 92.0446 1018.3 92.9673 1008.07L72.4678 1010.23" stroke="black" stroke-width="4" stroke-linejoin="round"/>
<ellipse cx="263.159" cy="1006.3" rx="2.11899" ry="2.11899" transform="rotate(-96 263.159 1006.3)" fill="#FDF07E"/>
<ellipse cx="273.226" cy="990.656" rx="2.11899" ry="2.11899" transform="rotate(-96 273.226 990.656)" fill="#FDF07E"/>
<path d="M278.9 1009.73L258.401 1011.88C259.457 1002.61 258.86 997.249 255.832 987.437L276.331 985.283" stroke="black" stroke-width="4" stroke-linejoin="round"/>
<path d="M143.322 1108.23L151.706 1089.4C142.56 1087.54 137.646 1085.31 129.251 1079.4L120.867 1098.23" stroke="black" stroke-width="4" stroke-linejoin="round"/>
<ellipse cx="2.11899" cy="2.11899" rx="2.11899" ry="2.11899" transform="matrix(0.809017 -0.587785 -0.587785 -0.809017 120.557 937.998)" fill="#FDF07E"/>
<path d="M115.145 926.943C161.149 893.52 225.537 903.718 258.961 949.722C292.384 995.725 282.186 1060.11 236.183 1093.54C190.179 1126.96 125.791 1116.76 92.3672 1070.76C58.9437 1024.76 69.1418 960.367 115.145 926.943Z" stroke="black" stroke-width="4"/>
<path d="M143.542 992.86C150.189 988.817 154.417 988.891 162.664 992.369C161.747 984.93 162.673 981.116 167.833 975.211C169.57 973.395 170.845 972.558 173.346 971.205C187.655 963.95 195.538 967.631 206.411 982.659C210.655 989.781 212.929 992.061 209.192 1002.58L201.698 1021.82C198.933 1031.86 199.487 1037.1 201.777 1046.2C195.026 1041.14 190.187 1039.27 178.785 1038.47L161.589 1038.35C152.014 1039.55 146.59 1037.06 139.436 1031.78C133.185 1028.46 123.816 1006.36 140.269 995.238C141.424 994.332 142.134 993.818 143.542 992.86Z" fill="#FDF07E" stroke="black" stroke-width="4"/>
<path d="M247.322 639.691C295.312 655.284 321.575 706.828 305.982 754.818C290.389 802.808 238.845 829.071 190.855 813.478C142.865 797.885 116.602 746.341 132.195 698.351C147.788 650.361 199.332 624.098 247.322 639.691Z" fill="#6CC5BD" stroke="black" stroke-width="4"/>
<path d="M254.732 811.651L254.896 812.527L253.787 813.091L251.953 813.108L247.556 814.85L239.443 817.613L231.198 819.028L222.9 819.601L219.353 800.622C232.7 800.966 239.143 799.073 250.777 793.484L254.732 811.651Z" fill="#A50000"/>
<path d="M254.851 811.291L250.897 793.124C239.262 798.713 232.82 800.606 219.472 800.262L223.02 819.241" stroke="black" stroke-width="4" stroke-linejoin="round"/>
<path d="M310.059 739.594L310.899 739.89L310.834 741.132L309.932 742.729L309.242 747.408L307.578 755.816L304.68 763.663L301.028 771.136L282.818 764.718C289.79 753.331 291.371 746.805 292.348 733.935L310.059 739.594Z" fill="#A50000"/>
<path d="M309.805 739.312L292.094 733.653C291.117 746.523 289.536 753.049 282.564 764.436L300.774 770.854" stroke="black" stroke-width="4" stroke-linejoin="round"/>
<path d="M138.185 683.22L137.332 682.965L136.654 684.009L136.446 685.831L134.253 690.022L130.658 697.802L128.389 705.854L126.952 714.046L145.456 719.558C146.509 706.248 149.065 700.038 155.84 689.052L138.185 683.22Z" fill="#A50000"/>
<path d="M138.556 683.141L156.211 688.973C149.436 699.959 146.88 706.168 145.827 719.479L127.323 713.967" stroke="black" stroke-width="4" stroke-linejoin="round"/>
<path d="M140.352 774.358L139.705 774.97L140.27 776.078L141.744 777.169L144.277 781.164L149.217 788.167L155.056 794.158L161.432 799.499L175.457 786.23C164.457 778.663 160.357 773.344 154.23 761.984L140.352 774.358Z" fill="#A50000"/>
<path d="M140.468 773.997L154.346 761.623C160.473 772.983 164.572 778.302 175.573 785.869L161.547 799.138" stroke="black" stroke-width="4" stroke-linejoin="round"/>
<path d="M298.198 678.664L298.846 678.052L298.281 676.944L296.807 675.852L294.273 671.858L289.334 664.854L283.495 658.863L277.119 653.522L263.093 666.792C274.094 674.359 278.194 679.677 284.321 691.037L298.198 678.664Z" fill="#A50000"/>
<path d="M298.083 679.025L284.205 691.398C278.078 680.038 273.978 674.72 262.978 667.153L277.003 653.883" stroke="black" stroke-width="4" stroke-linejoin="round"/>
<path d="M183.743 641.605L183.579 640.729L184.687 640.164L186.521 640.148L190.919 638.406L199.032 635.643L207.277 634.228L215.574 633.655L219.122 652.634C205.774 652.29 199.332 654.183 187.697 659.772L183.743 641.605Z" fill="#A50000"/>
<path d="M183.626 641.965L187.58 660.132C199.214 654.543 205.657 652.65 219.004 652.994L215.457 634.015" stroke="black" stroke-width="4" stroke-linejoin="round"/>
<path d="M236.957 636.213L231.291 653.651C239.556 654.447 244.109 655.957 252.086 660.407L257.752 642.969" stroke="black" stroke-width="4" stroke-linejoin="round"/>
<ellipse cx="188.954" cy="798.182" rx="1.8849" ry="1.8849" transform="rotate(18 188.954 798.182)" fill="#A50000"/>
<ellipse cx="201.382" cy="802.221" rx="1.8849" ry="1.8849" transform="rotate(18 201.382 802.221)" fill="#A50000"/>
<ellipse cx="187.167" cy="803.682" rx="1.8849" ry="1.8849" transform="rotate(18 187.167 803.682)" fill="#A50000"/>
<ellipse cx="199.597" cy="807.719" rx="1.8849" ry="1.8849" transform="rotate(18 199.597 807.719)" fill="#A50000"/>
<ellipse cx="185.382" cy="809.178" rx="1.8849" ry="1.8849" transform="rotate(18 185.382 809.178)" fill="#A50000"/>
<ellipse cx="197.812" cy="813.219" rx="1.8849" ry="1.8849" transform="rotate(18 197.812 813.219)" fill="#A50000"/>
<path d="M180.426 810.199L186.092 792.761C193.246 796.975 197.817 798.429 206.886 799.518L201.22 816.956" stroke="black" stroke-width="4" stroke-linejoin="round"/>
<ellipse cx="1.8849" cy="1.8849" rx="1.8849" ry="1.8849" transform="matrix(0.207912 0.978148 -0.978148 0.207911 142.051 733.924)" fill="#A50000"/>
<ellipse cx="1.8849" cy="1.8849" rx="1.8849" ry="1.8849" transform="matrix(0.207912 0.978148 -0.978148 0.207911 144.189 743.604)" fill="#A50000"/>
<ellipse cx="1.8849" cy="1.8849" rx="1.8849" ry="1.8849" transform="matrix(0.207912 0.978148 -0.978148 0.207911 133.32 735.58)" fill="#A50000"/>
<ellipse cx="1.8849" cy="1.8849" rx="1.8849" ry="1.8849" transform="matrix(0.207912 0.978148 -0.978148 0.207911 136.105 746.525)" fill="#A50000"/>
<ellipse cx="170.979" cy="665.431" rx="1.8849" ry="1.8849" transform="rotate(138 170.979 665.431)" fill="#A50000"/>
<ellipse cx="162.613" cy="665.843" rx="1.8849" ry="1.8849" transform="rotate(138 162.613 665.843)" fill="#A50000"/>
<ellipse cx="161.108" cy="673.851" rx="1.8849" ry="1.8849" transform="rotate(138 161.108 673.851)" fill="#A50000"/>
<ellipse cx="163.83" cy="657.499" rx="1.8849" ry="1.8849" transform="rotate(138 163.83 657.499)" fill="#A50000"/>
<ellipse cx="154.119" cy="666.243" rx="1.8849" ry="1.8849" transform="rotate(138 154.119 666.243)" fill="#A50000"/>
<ellipse cx="1.8849" cy="1.8849" rx="1.8849" ry="1.8849" transform="matrix(-0.207912 -0.978148 0.978148 -0.207911 295.107 721.156)" fill="#A50000"/>
<ellipse cx="1.8849" cy="1.8849" rx="1.8849" ry="1.8849" transform="matrix(-0.207912 -0.978148 0.978148 -0.207911 298.943 713.418)" fill="#A50000"/>
<ellipse cx="1.8849" cy="1.8849" rx="1.8849" ry="1.8849" transform="matrix(-0.207912 -0.978148 0.978148 -0.207911 302.617 705.363)" fill="#A50000"/>
<path d="M310.984 719.609L293.05 723.421C293.122 715.119 292.096 710.433 288.504 702.034L306.438 698.222" stroke="black" stroke-width="4" stroke-linejoin="round"/>
<path d="M148.895 666.943L161.163 680.569C165.985 673.81 169.57 670.622 177.412 665.939L165.143 652.313" stroke="black" stroke-width="4" stroke-linejoin="round"/>
<ellipse cx="267.676" cy="787.493" rx="1.8849" ry="1.8849" transform="rotate(-42 267.676 787.493)" fill="#A50000"/>
<ellipse cx="284.193" cy="786.561" rx="1.8849" ry="1.8849" transform="rotate(-42 284.193 786.561)" fill="#A50000"/>
<path d="M273.436 800.615L261.167 786.989C268.393 782.9 271.938 779.669 277.416 772.359L289.684 785.985" stroke="black" stroke-width="4" stroke-linejoin="round"/>
<path d="M131.662 754.551L149.597 750.739C146.154 743.183 145.185 738.485 145.051 729.352L127.116 733.164" stroke="black" stroke-width="4" stroke-linejoin="round"/>
<ellipse cx="1.8849" cy="1.8849" rx="1.8849" ry="1.8849" transform="matrix(0.951056 0.309017 0.309017 -0.951057 242.266 649.158)" fill="#A50000"/>
<path d="M247.322 639.691C295.312 655.284 321.575 706.828 305.982 754.818C290.389 802.808 238.845 829.071 190.855 813.478C142.865 797.885 116.602 746.341 132.195 698.351C147.788 650.361 199.332 624.098 247.322 639.691Z" stroke="black" stroke-width="4"/>
<path d="M231.198 764.433L187.664 750.303L188.235 748.548C199.807 749.145 204.461 747.333 210.349 741.266C212.33 738.941 213.141 737.291 214.167 733.864C208.375 738.011 204.816 738.884 197.97 738.13C196.627 737.874 195.899 737.648 194.622 737.043C187.343 732.303 185.641 728.755 186.234 721.095C186.616 719.137 186.94 718.083 187.79 716.309C191.981 709.787 195.247 708.075 202.688 708.448C204.261 708.845 205.135 709.141 206.675 709.742C208.727 710.75 209.711 711.593 211.211 713.683C210.363 709.859 210.295 707.869 210.827 704.565C211.002 703.176 211.227 702.438 211.917 701.215C216.303 695.298 219.58 693.468 227.508 693.932C229.261 694.244 230.211 694.546 231.814 695.329C238.501 699.983 240.781 703.133 240.302 710.428C240.031 711.731 239.758 712.465 239.212 713.778C237.534 716.963 236.259 718.517 233.377 720.878C235.767 720.132 237.138 720.02 239.684 720.456C241.232 720.774 242.068 721.061 243.512 721.698C249.491 725.694 251.17 728.938 250.779 736.754L249.223 741.539C244.122 748.639 240.683 750.605 233.212 749.569L229.066 748.223C222.621 744.093 220.8 741.182 219.111 735.469L218.073 738.659C217.287 749.938 220.034 755.259 231.398 762.735L231.198 764.433Z" fill="#A50000" stroke="black" stroke-width="4"/>
</svg>
