<svg width="1338" height="1322" viewBox="0 0 1338 1322" fill="none" xmlns="http://www.w3.org/2000/svg">
<line x1="142.133" y1="842.986" x2="142.133" y2="246.656" stroke="#5D2B8A" stroke-width="5"/>
<line y1="-2.5" x2="833.77" y2="-2.5" transform="matrix(0.00378663 0.999993 -0.999681 0.025251 81.9847 344.06)" stroke="#5D2B8A" stroke-width="5"/>
<path d="M899.751 972.995L1071.54 1229.19L1282.12 995.311C1190.6 910.886 1143.18 865.926 1087.79 803.517C1037.56 750.925 1013.51 721.946 974.309 670.703C905.876 592.086 868.793 548.242 820.461 473.31C777.062 429.415 752.906 405.078 727.574 389.674C634.942 342.714 581.752 316.919 504.131 263.571C470.302 243.285 460.417 239.274 453.635 240.931C420.806 249.369 401.001 252.832 362.12 255.842L282.125 237.276C230.617 229.484 191.587 224.14 186.436 220.797C175.78 213.969 171.92 212.667 165.7 211.137C149.35 211.086 138.31 209.819 115.134 205.252C105.305 216.278 101.66 221.989 104.412 229.837C109.458 236.802 115.722 242.73 137.254 259.408C147.972 268.828 164.384 273.512 209.237 280.972C187.198 288.72 178.817 293.149 137.51 300.486C130.969 303.263 126.351 305.005 115.808 308.577C83.0287 309.706 72.6951 311.658 73.1035 313.976C70.2259 324.018 69.9495 329.468 73.7617 338.596C83.3818 355.789 91.9171 360.709 111.947 361.566L219.794 341.537L218.989 342.202C185.379 369.959 166.29 385.725 156.702 389.248C147.119 397.171 140.8 403.134 118.17 432.043C118.13 439.644 122.813 444.767 136.115 454.808C151.288 459.641 162.595 455.565 186.221 439.855C191.724 445.997 194.73 448.878 199.823 452.102C207.075 455.129 215.675 453.767 242.063 443.883C237.827 456.89 238.631 468.072 253.238 476.17C314.054 489.729 363.361 494.944 456.33 503.456L504.738 516.408C551.102 532.017 581.463 532.308 639.25 525.795C669.488 535.952 683.509 547.88 702.281 582.548C726.153 641.795 740.154 671.805 766.056 719.863C817.803 827.76 847.005 884.462 899.751 972.995Z" fill="#FFFFCA"/>
<path d="M639.25 525.795C669.488 535.952 683.509 547.881 702.281 582.548C726.153 641.795 740.154 671.805 766.056 719.863C817.803 827.76 847.005 884.462 899.751 972.995L1071.54 1229.19L1282.12 995.311C1190.6 910.886 1143.18 865.926 1087.79 803.517C1037.56 750.925 1013.51 721.946 974.309 670.703C905.876 592.086 868.793 548.242 820.461 473.31C777.062 429.415 752.906 405.078 727.574 389.674C634.942 342.714 581.752 316.919 504.131 263.571C470.302 243.285 460.417 239.274 453.635 240.931C420.806 249.369 401.001 252.832 362.12 255.842M639.25 525.795C581.463 532.308 551.102 532.017 504.738 516.408L456.33 503.456C363.361 494.944 314.054 489.729 253.238 476.17C238.631 468.072 237.827 456.89 242.063 443.883M639.25 525.795C607.158 522.282 594.676 519.052 578.467 511.911C544.369 494.788 517.55 468.002 465.012 409.756C453.121 402.688 446.735 402.068 435.681 404.972M242.063 443.883C215.675 453.767 207.075 455.129 199.823 452.102C194.73 448.878 191.724 445.997 186.221 439.855M242.063 443.883L301.761 418.944M186.221 439.855C162.595 455.565 151.288 459.641 136.115 454.808C122.813 444.767 118.13 439.644 118.17 432.043C140.8 403.134 147.119 397.171 156.702 389.248C166.366 385.697 185.684 369.708 219.794 341.537M186.221 439.855C181.619 434.635 181.07 430.775 184.334 421.937C191.638 414.544 200.451 410.543 221.301 403.563C260.486 381.124 278.684 369.397 301.345 350.691C330.847 333.026 359.597 329.211 417.947 325.931C434.586 322.493 447.566 317.691 479.602 302.154M219.794 341.537C224.796 339.848 230.213 335.812 245.176 322.343C256.612 311.69 264.089 305.922 291.967 298.396C354.807 290.618 388.867 285.148 444.106 270.193M219.794 341.537L111.947 361.566C91.9171 360.709 83.3818 355.789 73.7616 338.596C69.9495 329.468 70.2259 324.018 73.1035 313.976C72.695 311.658 83.0287 309.706 115.808 308.577C126.351 305.006 130.969 303.263 137.51 300.486C178.817 293.149 187.198 288.72 209.237 280.972M209.237 280.972L235.366 273.864C271.023 262.758 303.538 260.211 362.12 255.842M209.237 280.972C164.384 273.512 147.972 268.828 137.254 259.408C115.722 242.73 109.458 236.802 104.412 229.837C101.66 221.989 105.305 216.278 115.134 205.252C138.31 209.819 149.35 211.086 165.7 211.137C171.92 212.667 175.78 213.969 186.436 220.797C191.587 224.14 230.617 229.484 282.125 237.276L362.12 255.842M301.761 418.944C374.097 429.149 409.712 433.408 433.154 429.127C441.112 423.708 442.706 419.016 435.681 404.972M301.761 418.944C307.518 412.228 314.511 407.603 335.576 400.735L403.863 394.944C417.624 394.143 425.315 393.771 435.681 404.972" stroke="#B6370D" stroke-width="10"/>
<path d="M433.288 429.109C409.846 433.391 374.232 429.131 301.895 418.926C307.653 412.21 314.645 407.586 335.71 400.718L403.997 394.926C417.758 394.125 425.45 393.753 435.815 404.954C442.84 418.999 441.246 423.69 433.288 429.109Z" fill="#B6370D" stroke="#B6370D" stroke-width="10"/>
<line y1="-2.5" x2="868.417" y2="-2.5" transform="matrix(0.00454444 0.99999 -0.99999 0.00452168 265.891 452.708)" stroke="#5D2B8A" stroke-width="5"/>
</svg>
