<svg width="834" height="785" viewBox="0 0 834 785" fill="none" xmlns="http://www.w3.org/2000/svg">
<path d="M286.655 4.60703C362.04 11.3997 384.729 52.66 417.074 120.062C443.482 53.6507 478.85 16.1366 551.768 4.60703C574.114 0.556286 622.499 3.34287 647.978 6.74522C824.763 45.8194 858.913 193.719 819.019 342.421C781.43 426.577 733.471 454.55 684.324 494.223C623.376 532.943 591.281 556.149 538.94 601.127C467.731 658.451 450.691 705.135 417.074 785C394.6 712.092 374.34 667.541 295.184 601.127C242.6 555.241 210.825 532.378 151.938 494.223C84.8848 445.203 51.0082 412.063 17.3304 342.421C-13.9095 287.628 -23.9085 42.7534 175.275 4.60703C188.281 -1.6213 270.669 -1.44945 286.655 4.60703Z" fill="#F7CA4B"/>
</svg>
