<svg width="472" height="469" viewBox="0 0 472 469" fill="none" xmlns="http://www.w3.org/2000/svg">
<path d="M244.741 456.504C130.777 468.746 18.5761 359.126 11.4607 242.176C8.06303 91.9158 131.302 0.388288 252.827 12.8231C394.156 27.2843 454.383 117.259 460.354 231.188C466.324 345.117 364.671 455.592 244.741 456.504Z" fill="#B6370D"/>
<path d="M184.515 234.99C222.832 240.376 249.529 275.809 244.144 314.132C238.759 352.454 203.331 379.154 165.014 373.768C126.697 368.382 99.9991 332.95 105.384 294.627C110.769 256.304 146.198 229.604 184.515 234.99Z" fill="#6CC5BD" stroke="#B6370D" stroke-width="10"/>
<path d="M175.079 258.001C200.592 258.001 221.273 278.683 221.273 304.195C221.273 329.708 200.592 350.389 175.079 350.389C149.567 350.389 128.885 329.708 128.885 304.195C128.885 278.683 149.567 258.001 175.079 258.001Z" stroke="#B6370D" stroke-width="10"/>
<path d="M194.683 329.18L155.942 329.177L155.942 327.617C165.413 325.075 168.684 322.402 171.835 315.983C172.821 313.595 173.041 312.055 172.97 309.03C169.394 313.879 166.758 315.511 161.05 316.692C159.901 316.836 159.256 316.845 158.07 316.691C150.97 314.778 148.671 312.367 147.142 306.049C146.937 304.374 146.922 303.441 147.142 301.792C148.807 295.45 150.988 293.22 157.075 291.577C158.444 291.485 159.226 291.496 160.622 291.577C162.538 291.853 163.551 292.273 165.306 293.564C163.622 290.709 163.046 289.125 162.609 286.327C162.386 285.164 162.374 284.511 162.609 283.348C164.589 277.441 166.748 275.113 173.251 273.416C174.744 273.21 175.587 273.205 177.083 273.416C183.684 275.415 186.344 277.354 187.869 283.349C187.992 284.468 187.964 285.13 187.869 286.329C187.352 289.33 186.733 290.913 185.031 293.565C186.76 292.341 187.833 291.893 189.998 291.579C191.327 291.431 192.075 291.443 193.404 291.579C199.263 293.233 201.464 295.405 203.196 301.796L203.196 306.053C200.95 313.098 198.697 315.577 192.412 316.694L188.722 316.693C182.453 315.054 180.225 313.186 177.369 309.031L177.369 311.868C179.69 321.149 183.294 324.713 194.399 327.761L194.683 329.18Z" fill="#B6370D"/>
</svg>
