<svg width="449" height="562" viewBox="0 0 449 562" fill="none" xmlns="http://www.w3.org/2000/svg">
<ellipse cx="223.927" cy="280.891" rx="219.333" ry="219.383" fill="#F7CA4B"/>
<path d="M367.13 448.263L366.752 448.71L364.323 451.242L362.063 453.68L353.58 460.901L336.848 471.74L319.056 481.061L301.195 488.284L278.303 446.226C308.678 437.831 321.648 428.836 343.286 407.381L367.13 448.263Z" fill="#B6370D" stroke="#B6370D" stroke-width="3" stroke-linejoin="round"/>
<path d="M441.224 243.725L442.685 243.937L443.546 246.983L443.434 250.794L445.494 261.708L446.994 281.876L445.588 301.043L442.888 320.701L393.898 319.345C402.014 288.958 400.679 273.289 392.728 243.937L441.224 243.725Z" fill="#B6370D" stroke="#B6370D" stroke-width="3" stroke-linejoin="round"/>
<path d="M10.1083 242.738L7.94284 242.788L7.15996 245.611L8.04747 249.834L6.12722 260.791L4.99805 280.246L5.35509 300.473L8.15949 319.714L54.2267 318.65C46.6604 288.146 47.9057 272.416 55.3172 242.951L10.1083 242.738Z" fill="#B6370D" stroke="#B6370D" stroke-width="3" stroke-linejoin="round"/>
<path d="M81.71 446.519L80.8201 447.792L83.276 449.784L86.8147 451.87L95.3339 459.029L111.825 469.63L129.093 479.495L147.407 486.791L169.718 445.901C139.483 437.263 126.49 428.308 104.714 407.091L81.71 446.519Z" fill="#B6370D" stroke="#B6370D" stroke-width="3" stroke-linejoin="round"/>
<path d="M368.147 112.441L364.924 109.989L362.504 107.441L353.682 100.926L336.478 89.4699L319.67 80.6503L301.274 73.4928L278.888 115.225C309.338 123.492 322.296 132.508 343.861 154.088L368.147 112.441Z" fill="#B6370D" stroke="#B6370D" stroke-width="3" stroke-linejoin="round"/>
<path d="M81.2167 113.098L80.3352 112.288L83.2862 110.296L86.2727 107.663L94.7465 100.426L111.222 89.2555L128.532 80.4504L146.893 72.7417L170.267 115.523C139.853 123.851 126.89 132.857 105.29 154.377L81.2167 113.098Z" fill="#B6370D" stroke="#B6370D" stroke-width="3" stroke-linejoin="round"/>
<path d="M198.361 59.1798V109.51C217.382 104.579 228.639 104.659 249.667 109.51V59.1798" stroke="#B6370D" stroke-width="3" stroke-linejoin="round"/>
<path d="M208.576 459.85C210.193 459.85 211.505 461.161 211.505 462.779C211.505 464.397 210.193 465.708 208.576 465.708C206.96 465.708 205.648 464.397 205.648 462.779C205.649 461.161 206.96 459.85 208.576 459.85Z" fill="#B6370D" stroke="#B6370D" stroke-width="3"/>
<path d="M239.273 459.85C240.89 459.85 242.202 461.161 242.202 462.779C242.202 464.397 240.89 465.708 239.273 465.708C237.657 465.708 236.346 464.397 236.346 462.779C236.346 461.161 237.657 459.85 239.273 459.85Z" fill="#B6370D" stroke="#B6370D" stroke-width="3"/>
<path d="M208.576 473.432C210.193 473.432 211.505 474.743 211.505 476.361C211.505 477.979 210.193 479.291 208.576 479.291C206.96 479.29 205.648 477.979 205.648 476.361C205.649 474.743 206.96 473.432 208.576 473.432Z" fill="#B6370D" stroke="#B6370D" stroke-width="3"/>
<path d="M239.273 473.432C240.89 473.432 242.202 474.743 242.202 476.361C242.202 477.979 240.89 479.291 239.273 479.291C237.657 479.29 236.346 477.979 236.346 476.361C236.346 474.743 237.657 473.432 239.273 473.432Z" fill="#B6370D" stroke="#B6370D" stroke-width="3"/>
<path d="M208.576 487.014C210.193 487.014 211.505 488.325 211.505 489.943C211.505 491.561 210.193 492.873 208.576 492.873C206.96 492.873 205.648 491.561 205.648 489.943C205.649 488.325 206.96 487.014 208.576 487.014Z" fill="#B6370D" stroke="#B6370D" stroke-width="3"/>
<path d="M239.273 487.014C240.89 487.014 242.202 488.325 242.202 489.943C242.202 491.561 240.89 492.873 239.273 492.873C237.657 492.873 236.346 491.561 236.346 489.943C236.346 488.325 237.657 487.014 239.273 487.014Z" fill="#B6370D" stroke="#B6370D" stroke-width="3"/>
<path d="M198.381 501.3L198.381 452.944C217.402 457.681 228.658 457.604 249.687 452.944L249.687 501.3" stroke="#B6370D" stroke-width="3" stroke-linejoin="round"/>
<path d="M58.0439 357.82C58.8526 359.221 58.3722 361.012 56.9718 361.821C55.5716 362.629 53.781 362.15 52.9724 360.749C52.1638 359.348 52.6436 357.557 54.0436 356.748C55.4439 355.939 57.2352 356.419 58.0439 357.82Z" fill="#B6370D" stroke="#B6370D" stroke-width="3"/>
<path d="M69.8525 377.898C70.6612 379.299 70.1808 381.09 68.7804 381.899C67.3801 382.707 65.5896 382.228 64.781 380.827C63.9724 379.426 64.4522 377.635 65.8522 376.826C67.2525 376.017 69.0438 376.497 69.8525 377.898Z" fill="#B6370D" stroke="#B6370D" stroke-width="3"/>
<path d="M39.7431 367.86C40.5518 369.261 40.0714 371.052 38.671 371.861C37.2708 372.669 35.4802 372.189 34.6716 370.788C33.863 369.387 34.3428 367.597 35.7428 366.788C37.1432 365.979 38.9344 366.459 39.7431 367.86Z" fill="#B6370D" stroke="#B6370D" stroke-width="3"/>
<path d="M53.9131 390.3C54.7218 391.701 54.2413 393.492 52.841 394.301C51.4407 395.109 49.6501 394.629 48.8415 393.228C48.0329 391.827 48.5127 390.036 49.9128 389.228C51.3131 388.419 53.1044 388.899 53.9131 390.3Z" fill="#B6370D" stroke="#B6370D" stroke-width="3"/>
<path d="M74.5808 180.631C73.7721 182.033 71.9808 182.512 70.5805 181.703C69.1805 180.895 68.7007 179.104 69.5093 177.703C70.3179 176.302 72.1085 175.822 73.5087 176.63C74.909 177.439 75.3895 179.23 74.5808 180.631Z" fill="#B6370D" stroke="#B6370D" stroke-width="3"/>
<path d="M56.1902 187.626C55.3815 189.027 53.5902 189.507 52.1899 188.698C50.7899 187.889 50.31 186.098 51.1186 184.697C51.9273 183.297 53.7178 182.817 55.1181 183.625C56.5184 184.434 56.9989 186.225 56.1902 187.626Z" fill="#B6370D" stroke="#B6370D" stroke-width="3"/>
<path d="M58.6374 206.615C57.8288 208.017 56.0375 208.496 54.6372 207.687C53.2371 206.879 52.7573 205.088 53.5659 203.687C54.3745 202.286 56.1651 201.806 57.5654 202.614C58.9657 203.423 59.4461 205.214 58.6374 206.615Z" fill="#B6370D" stroke="#B6370D" stroke-width="3"/>
<path d="M52.8503 168.094C52.0416 169.495 50.2504 169.975 48.85 169.166C47.45 168.357 46.9702 166.566 47.7788 165.165C48.5874 163.764 50.378 163.285 51.7783 164.093C53.1786 164.902 53.659 166.693 52.8503 168.094Z" fill="#B6370D" stroke="#B6370D" stroke-width="3"/>
<path d="M37.5007 194.688C36.692 196.089 34.9008 196.568 33.5004 195.76C32.1004 194.951 31.6206 193.16 32.4292 191.759C33.2378 190.358 35.0284 189.878 36.4286 190.687C37.829 191.495 38.3094 193.287 37.5007 194.688Z" fill="#B6370D" stroke="#B6370D" stroke-width="3"/>
<path d="M388.917 208.977C388.108 207.576 388.589 205.784 389.989 204.976C391.389 204.167 393.18 204.647 393.989 206.048C394.797 207.449 394.317 209.24 392.917 210.049C391.517 210.857 389.726 210.378 388.917 208.977Z" fill="#B6370D" stroke="#B6370D" stroke-width="3"/>
<path d="M391.868 188.899C391.059 187.498 391.54 185.706 392.94 184.898C394.341 184.089 396.131 184.569 396.94 185.97C397.748 187.371 397.269 189.162 395.868 189.971C394.468 190.779 392.677 190.3 391.868 188.899Z" fill="#B6370D" stroke="#B6370D" stroke-width="3"/>
<path d="M394.23 168.231C393.421 166.83 393.901 165.038 395.302 164.229C396.702 163.421 398.492 163.901 399.301 165.302C400.11 166.703 399.63 168.494 398.23 169.302C396.829 170.111 395.038 169.632 394.23 168.231Z" fill="#B6370D" stroke="#B6370D" stroke-width="3"/>
<path d="M427.705 196.542L386.876 220.12C381.355 201.315 375.655 191.591 361.194 175.627L402.023 152.049" stroke="#B6370D" stroke-width="3" stroke-linejoin="round"/>
<path d="M18.3516 195.444L61.087 220.123C66.4212 201.21 72.1242 191.487 86.7693 175.63L44.0339 150.951" stroke="#B6370D" stroke-width="3" stroke-linejoin="round"/>
<path d="M374.157 380.255C374.966 378.854 376.757 378.375 378.158 379.183C379.558 379.992 380.038 381.783 379.229 383.184C378.42 384.585 376.63 385.065 375.23 384.256C373.829 383.448 373.349 381.656 374.157 380.255Z" fill="#B6370D" stroke="#B6370D" stroke-width="3"/>
<path d="M410.386 366.176C411.195 364.775 412.986 364.296 414.386 365.105C415.786 365.913 416.266 367.704 415.458 369.105C414.649 370.506 412.858 370.986 411.458 370.178C410.058 369.369 409.577 367.578 410.386 366.176Z" fill="#B6370D" stroke="#B6370D" stroke-width="3"/>
<path d="M403.547 409.437L361.787 385.321C375.4 371.188 380.967 361.388 387.469 340.828L429.229 364.943" stroke="#B6370D" stroke-width="3" stroke-linejoin="round"/>
<path d="M43.4512 410.005L86.1975 385.32C72.4879 371.243 66.9216 361.442 60.5151 340.827L17.7688 365.512" stroke="#B6370D" stroke-width="3" stroke-linejoin="round"/>
<path d="M223.926 89.5339C225.542 89.5339 226.854 88.2231 226.854 86.6052C226.854 84.9873 225.543 83.6755 223.926 83.6755C222.309 83.6757 220.998 84.9873 220.998 86.6052C220.998 88.223 222.309 89.5338 223.926 89.5339Z" fill="#B6370D" stroke="#B6370D" stroke-width="3"/>
<path d="M289.74 286.088C262.481 253.693 248 234.013 223.535 196.622C201.778 233.013 185.164 252.285 158.672 286.088C186.638 320.473 201.134 339.996 223.535 375.554C246.764 338.438 261.37 318.933 289.74 286.088Z" fill="#B6370D" stroke="#B6370D" stroke-width="3"/>
<path d="M224.036 59.6399C346.388 59.6399 445.572 158.848 445.572 281.226C445.572 403.604 346.388 502.812 224.036 502.812C101.685 502.812 2.50004 403.604 2.5 281.226C2.5 158.848 101.685 59.64 224.036 59.6399Z" stroke="#FDF07E" stroke-width="5"/>
</svg>
