<svg width="472" height="469" viewBox="0 0 472 469" fill="none" xmlns="http://www.w3.org/2000/svg">
<path d="M244.741 456.505C130.777 468.746 18.5761 359.127 11.4607 242.177C8.06301 91.9166 131.302 0.389021 252.827 12.8238C394.156 27.285 454.383 117.26 460.354 231.189C466.324 345.117 364.671 455.592 244.741 456.505Z" fill="#B6370D"/>
<path d="M158.992 372.647C121.291 363.942 97.7832 326.317 106.488 288.609C115.193 250.902 152.813 227.392 190.514 236.096C228.216 244.801 251.724 282.426 243.02 320.133C234.315 357.841 196.694 381.352 158.992 372.647Z" fill="#6CC5BD" stroke="#B6370D" stroke-width="10"/>
<path d="M170.397 350.546C144.982 348.323 126.181 325.917 128.405 300.502C130.628 275.086 153.034 256.286 178.449 258.509C203.865 260.733 222.665 283.139 220.442 308.554C218.218 333.969 195.813 352.77 170.397 350.546Z" stroke="#B6370D" stroke-width="10"/>
<path d="M157.071 277.929L195.665 281.308L195.529 282.863C185.873 284.57 182.381 286.948 178.683 293.067C177.493 295.361 177.139 296.875 176.946 299.895C180.931 295.376 183.7 293.98 189.488 293.301C190.645 293.257 191.289 293.305 192.457 293.561C199.364 296.086 201.444 298.688 202.416 305.116C202.474 306.802 202.408 307.733 202.045 309.356C199.834 315.529 197.467 317.561 191.26 318.667C189.887 318.639 189.109 318.56 187.725 318.357C185.841 317.916 184.869 317.409 183.233 315.97C184.662 318.961 185.098 320.59 185.289 323.414C185.41 324.593 185.365 325.244 185.029 326.383C182.542 332.094 180.188 334.225 173.562 335.349C172.057 335.424 171.216 335.356 169.745 335.014C163.343 332.448 160.862 330.284 159.866 324.179C159.841 323.054 159.926 322.397 160.125 321.211C160.901 318.266 161.656 316.743 163.583 314.25C161.754 315.318 160.645 315.671 158.462 315.795C157.125 315.827 156.381 315.75 155.069 315.498C149.376 313.341 147.373 310.985 146.204 304.467L146.575 300.226C149.427 293.404 151.888 291.131 158.246 290.566L161.922 290.888C168.024 293.068 170.081 295.122 172.564 299.511L172.811 296.684C171.307 287.236 168.028 283.372 157.231 279.367L157.071 277.929Z" fill="#B6370D"/>
</svg>
