<svg width="472" height="469" viewBox="0 0 472 469" fill="none" xmlns="http://www.w3.org/2000/svg">
<path d="M244.732 456.485C130.758 468.733 18.5563 359.129 11.4481 242.188C8.05995 91.9387 131.314 0.409734 252.847 12.8357C394.185 27.2866 454.411 117.251 460.375 231.171C466.338 345.091 364.67 455.565 244.732 456.485Z" fill="#A50000"/>
<path d="M193.126 244.221C187.354 285.275 149.393 313.881 108.339 308.114C67.2838 302.347 38.6819 264.39 44.4544 223.336C50.2268 182.281 88.1876 153.675 129.242 159.443C170.297 165.21 198.899 203.166 193.126 244.221Z" fill="#6CC5BD"/>
<path d="M183.083 242.811C188.076 207.303 163.339 174.474 127.831 169.486C92.3224 164.498 59.4897 189.239 54.4971 224.747C49.5047 260.255 74.2429 293.083 109.751 298.071L108.339 308.114L107.379 307.973C67.1581 301.803 39.1702 264.661 44.3252 224.297L44.4543 223.336C50.2267 182.282 88.188 153.676 129.243 159.443L130.202 159.584C170.742 165.803 198.853 203.488 193.126 244.221L192.985 245.181C186.761 285.72 149.073 313.836 108.339 308.114L109.751 298.071C145.259 303.059 178.091 278.318 183.083 242.811Z" fill="#A50000"/>
<path d="M159.537 233.465C159.537 210.714 141.094 192.27 118.343 192.27C95.5918 192.27 77.1485 210.714 77.1485 233.465C77.1485 256.216 95.5918 274.659 118.343 274.659V284.659C90.069 284.659 67.1484 261.739 67.1484 233.465C67.1485 205.191 90.069 182.27 118.343 182.27C146.617 182.27 169.537 205.191 169.537 233.465C169.537 261.739 146.617 284.659 118.343 284.659V274.659C141.094 274.659 159.537 256.216 159.537 233.465Z" fill="#A50000"/>
<path d="M105.873 211.446C111.289 211.9 113.652 213.679 116.893 219.03C119.421 214.46 121.508 212.69 126.846 211.482C128.572 211.172 129.637 211.224 131.606 211.49C142.995 214.338 145.746 218.992 145.623 231.54C144.482 237.033 142.609 239.896 136.869 244.579L126.915 251.682C121.239 256.203 119.404 259.388 116.973 265.46C115.227 259.83 113.257 256.784 107.132 251.648L97.4508 244.511C91.7878 240.294 89.8322 237.411 88.206 231.441C87.9949 218.243 91.474 214.066 103.046 211.441C104.112 211.304 104.718 211.306 105.873 211.446Z" fill="#A50000"/>
</svg>
