<svg width="513" height="562" viewBox="0 0 513 562" fill="none" xmlns="http://www.w3.org/2000/svg">
<ellipse cx="258.51" cy="277.85" rx="219.342" ry="219.355" fill="#A50000"/>
<path d="M402.983 447.378L404.133 449.471L402.12 451.63L397.974 452.894L389.544 460.206L373.591 472.56L356.141 481.612L337.825 488.583L312.924 443.213C343.511 435.184 356.447 426.13 377.88 404.32L402.983 447.378Z" fill="#FDF07E" stroke="#FDF07E" stroke-width="3" stroke-linejoin="round"/>
<path d="M472.608 241.187L474.8 241.237L475.593 244.058L474.695 248.277L476.639 259.225L479.139 279.2L478.325 298.822L475.459 318.153L427.944 317.035C435.604 286.557 434.343 270.84 426.84 241.4L472.608 241.187Z" fill="#FDF07E" stroke="#FDF07E" stroke-width="3" stroke-linejoin="round"/>
<path d="M40.3475 239.466L37.9899 239.516L37.1375 242.337L38.1038 246.556L36.013 257.504L33.3242 277.479L34.1994 297.101L37.2821 316.432L88.3831 315.314C80.145 284.836 81.5009 269.119 89.5704 239.679L40.3475 239.466Z" fill="#FDF07E" stroke="#FDF07E" stroke-width="3" stroke-linejoin="round"/>
<path d="M114.117 447.22L112.964 449.319L114.976 451.48L119.123 452.742L127.55 460.059L143.499 472.421L160.95 481.471L179.271 488.433L204.25 442.928C173.65 434.921 160.716 425.863 139.296 404.032L114.117 447.22Z" fill="#FDF07E" stroke="#FDF07E" stroke-width="3" stroke-linejoin="round"/>
<path d="M400.478 113.338L401.48 111.501L399.413 109.435L395.328 108.066L386.767 100.98L370.646 88.9171L353.251 79.7703L335.128 72.4652L313.423 112.298C343.495 121.219 356.516 130.127 378.453 151.062L400.478 113.338Z" fill="#FDF07E" stroke="#FDF07E" stroke-width="3" stroke-linejoin="round"/>
<path d="M116.672 111.599L115.614 109.665L117.66 107.563L121.768 106.234L130.28 99.0625L146.336 86.8886L163.753 77.7778L181.949 70.5997L204.869 112.539C174.601 121.12 161.613 130.084 139.867 151.351L116.672 111.599Z" fill="#FDF07E" stroke="#FDF07E" stroke-width="3" stroke-linejoin="round"/>
<path d="M232.836 56.6587V105.996C251.859 101.162 263.117 101.241 284.148 105.996V56.6587" stroke="#FDF07E" stroke-width="3" stroke-linejoin="round"/>
<path d="M243.16 456.783C244.777 456.783 246.089 458.095 246.089 459.712C246.089 461.329 244.777 462.64 243.16 462.64C241.543 462.639 240.233 461.329 240.232 459.712C240.232 458.095 241.543 456.783 243.16 456.783Z" fill="#FDF07E" stroke="#FDF07E" stroke-width="3"/>
<path d="M273.857 456.783C275.475 456.783 276.786 458.095 276.786 459.712C276.786 461.329 275.474 462.64 273.857 462.64C272.241 462.639 270.93 461.329 270.93 459.712C270.93 458.095 272.241 456.783 273.857 456.783Z" fill="#FDF07E" stroke="#FDF07E" stroke-width="3"/>
<path d="M243.16 470.364C244.777 470.364 246.089 471.675 246.089 473.293C246.089 474.91 244.777 476.22 243.16 476.22C241.543 476.22 240.233 474.91 240.232 473.293C240.232 471.675 241.543 470.364 243.16 470.364Z" fill="#FDF07E" stroke="#FDF07E" stroke-width="3"/>
<path d="M273.857 470.364C275.475 470.364 276.786 471.675 276.786 473.293C276.786 474.91 275.474 476.22 273.857 476.22C272.241 476.22 270.93 474.91 270.93 473.293C270.93 471.675 272.241 470.364 273.857 470.364Z" fill="#FDF07E" stroke="#FDF07E" stroke-width="3"/>
<path d="M243.16 483.944C244.777 483.944 246.089 485.255 246.089 486.873C246.089 488.49 244.777 489.8 243.16 489.8C241.543 489.8 240.233 488.49 240.232 486.873C240.232 485.255 241.543 483.944 243.16 483.944Z" fill="#FDF07E" stroke="#FDF07E" stroke-width="3"/>
<path d="M273.857 483.944C275.475 483.944 276.786 485.255 276.786 486.873C276.786 488.49 275.474 489.8 273.857 489.8C272.241 489.8 270.93 488.49 270.93 486.873C270.93 485.255 272.241 483.944 273.857 483.944Z" fill="#FDF07E" stroke="#FDF07E" stroke-width="3"/>
<path d="M232.652 505.888L232.652 449.643C251.676 455.154 262.933 455.064 283.965 449.643L283.965 505.888" stroke="#FDF07E" stroke-width="3" stroke-linejoin="round"/>
<path d="M92.6223 354.767C93.4307 356.168 92.9502 357.958 91.5498 358.767C90.1494 359.575 88.3592 359.096 87.5505 357.695C86.742 356.295 87.2215 354.504 88.6217 353.695C90.0222 352.886 91.8136 353.366 92.6223 354.767Z" fill="#FDF07E" stroke="#FDF07E" stroke-width="3"/>
<path d="M104.431 374.841C105.239 376.242 104.759 378.032 103.358 378.841C101.958 379.649 100.168 379.17 99.3591 377.769C98.5505 376.369 99.0301 374.578 100.43 373.769C101.831 372.96 103.622 373.44 104.431 374.841Z" fill="#FDF07E" stroke="#FDF07E" stroke-width="3"/>
<path d="M74.3195 364.804C75.1279 366.205 74.6475 367.995 73.247 368.804C71.8467 369.612 70.0564 369.133 69.2478 367.732C68.4392 366.332 68.9187 364.541 70.3189 363.732C71.7194 362.923 73.5109 363.403 74.3195 364.804Z" fill="#FDF07E" stroke="#FDF07E" stroke-width="3"/>
<path d="M88.4895 387.242C89.2979 388.643 88.8174 390.433 87.417 391.242C86.0166 392.05 84.2263 391.571 83.4177 390.17C82.6091 388.77 83.0887 386.979 84.4889 386.17C85.8894 385.361 87.6808 385.841 88.4895 387.242Z" fill="#FDF07E" stroke="#FDF07E" stroke-width="3"/>
<path d="M109.159 177.605C108.35 179.005 106.559 179.484 105.158 178.676C103.758 177.867 103.279 176.077 104.087 174.676C104.895 173.276 106.686 172.796 108.087 173.604C109.487 174.413 109.967 176.204 109.159 177.605Z" fill="#FDF07E" stroke="#FDF07E" stroke-width="3"/>
<path d="M90.7699 184.597C89.9612 185.997 88.1702 186.476 86.7698 185.668C85.3697 184.859 84.8898 183.069 85.6982 181.668C86.5067 180.268 88.2975 179.787 89.6979 180.596C91.0984 181.404 91.5786 183.196 90.7699 184.597Z" fill="#FDF07E" stroke="#FDF07E" stroke-width="3"/>
<path d="M93.2172 203.585C92.4085 204.985 90.6175 205.464 89.2171 204.656C87.817 203.847 87.3371 202.057 88.1454 200.656C88.954 199.256 90.7447 198.776 92.1452 199.584C93.5457 200.393 94.0258 202.184 93.2172 203.585Z" fill="#FDF07E" stroke="#FDF07E" stroke-width="3"/>
<path d="M87.4301 165.068C86.6214 166.469 84.8304 166.948 83.43 166.14C82.0299 165.331 81.55 163.541 82.3583 162.14C83.1669 160.74 84.9576 160.259 86.3581 161.068C87.7586 161.876 88.2387 163.668 87.4301 165.068Z" fill="#FDF07E" stroke="#FDF07E" stroke-width="3"/>
<path d="M72.0785 191.658C71.2698 193.058 69.4788 193.537 68.0784 192.729C66.6783 191.92 66.1984 190.13 67.0068 188.729C67.8153 187.329 69.6061 186.849 71.0065 187.657C72.407 188.466 72.8871 190.257 72.0785 191.658Z" fill="#FDF07E" stroke="#FDF07E" stroke-width="3"/>
<path d="M423.507 205.946C422.698 204.545 423.179 202.754 424.579 201.946C425.979 201.137 427.77 201.617 428.578 203.017C429.387 204.418 428.907 206.209 427.507 207.018C426.107 207.826 424.315 207.346 423.507 205.946Z" fill="#FDF07E" stroke="#FDF07E" stroke-width="3"/>
<path d="M426.458 185.869C425.649 184.469 426.13 182.678 427.53 181.87C428.931 181.061 430.721 181.541 431.53 182.941C432.338 184.342 431.859 186.133 430.458 186.941C429.058 187.75 427.266 187.27 426.458 185.869Z" fill="#FDF07E" stroke="#FDF07E" stroke-width="3"/>
<path d="M428.821 165.204C428.013 163.803 428.493 162.012 429.894 161.204C431.294 160.396 433.084 160.875 433.893 162.276C434.701 163.676 434.222 165.467 432.822 166.276C431.421 167.084 429.63 166.605 428.821 165.204Z" fill="#FDF07E" stroke="#FDF07E" stroke-width="3"/>
<path d="M462.75 195.968L421.468 217.088C415.602 198.484 409.907 188.758 395.785 172.6L436.6 148.309" stroke="#FDF07E" stroke-width="3" stroke-linejoin="round"/>
<path d="M50.4492 190.971L95.6836 217.089C100.773 198.037 106.481 188.318 121.367 172.601L76.1327 146.484" stroke="#FDF07E" stroke-width="3" stroke-linejoin="round"/>
<path d="M408.746 377.203C409.554 375.802 411.345 375.323 412.746 376.132C414.146 376.94 414.626 378.731 413.817 380.131C413.009 381.532 411.218 382.012 409.818 381.204C408.417 380.395 407.937 378.603 408.746 377.203Z" fill="#FDF07E" stroke="#FDF07E" stroke-width="3"/>
<path d="M444.974 363.125C445.783 361.725 447.574 361.246 448.974 362.054C450.374 362.863 450.854 364.653 450.046 366.054C449.237 367.454 447.447 367.935 446.046 367.126C444.646 366.318 444.166 364.526 444.974 363.125Z" fill="#FDF07E" stroke="#FDF07E" stroke-width="3"/>
<path d="M450.551 413.546L396.378 382.268C411.208 368.839 416.756 359.029 422.062 337.78L476.234 369.058" stroke="#FDF07E" stroke-width="3" stroke-linejoin="round"/>
<path d="M76.5938 407.777L120.776 382.267C106.925 368.274 101.361 358.472 95.0922 337.78L50.9103 363.29" stroke="#FDF07E" stroke-width="3" stroke-linejoin="round"/>
<path d="M258.512 86.5171C260.129 86.5171 261.44 85.2058 261.44 83.5884C261.44 81.9711 260.129 80.6606 258.512 80.6606C256.895 80.6609 255.584 81.9712 255.584 83.5884C255.584 85.2056 256.895 86.5168 258.512 86.5171Z" fill="#FDF07E" stroke="#FDF07E" stroke-width="3"/>
<path d="M276.364 362.469C262.494 360.459 254.662 360.388 240.524 362.469V360.762C250.914 342.607 253.688 333.412 252.897 318.963V310.859C245.603 322.113 240.263 326.528 228.577 330.906C225.117 331.372 223.184 331.649 219.558 331.765C216.354 331.851 214.534 331.809 211.083 330.906C189.234 323.72 181.839 315.63 178.229 293.372V283.562C181.493 263.073 189.091 252.759 214.496 236.644L219.616 233.232C240.725 220.034 249.61 210.588 258.444 188.874C267.044 209.603 275.082 219.517 296.845 233.232L302.392 236.644C327.717 253.689 336.789 263.825 338.233 283.562V293.372C335.062 315.153 328.171 323.731 304.525 330.906L299.56 331.174L294.285 330.906C280.589 329.548 273.477 323.531 262.364 309.918L262.711 318.963C266.324 341.17 269.668 349.128 276.364 360.762V362.469Z" fill="#FDF07E"/>
</svg>
