<svg width="472" height="469" viewBox="0 0 472 469" fill="none" xmlns="http://www.w3.org/2000/svg">
<path d="M244.73 456.485C130.756 468.733 18.5544 359.129 11.4461 242.188C8.05801 91.9387 131.312 0.409735 252.845 12.8357C394.184 27.2866 454.409 117.251 460.373 231.171C466.336 345.091 364.668 455.565 244.73 456.485Z" fill="#A50000"/>
<path d="M249.111 314.707C243.338 355.762 205.378 384.368 164.323 378.601C123.268 372.833 94.6663 334.877 100.439 293.822C106.211 252.768 144.172 224.162 185.227 229.929C226.281 235.696 254.883 273.653 249.111 314.707Z" fill="#6CC5BD"/>
<path d="M239.068 313.297C244.06 277.789 219.323 244.96 183.815 239.972C148.307 234.984 115.474 259.726 110.481 295.234C105.489 330.742 130.227 363.57 165.735 368.558L164.323 378.601L163.363 378.46C123.143 372.289 95.1545 335.148 100.31 294.784L100.439 293.823C106.211 252.768 144.172 224.162 185.227 229.929L186.186 230.07C226.726 236.29 254.838 273.974 249.11 314.708L248.97 315.667C242.745 356.207 205.057 384.323 164.323 378.601L165.735 368.558C201.243 373.546 234.075 348.805 239.068 313.297Z" fill="#A50000"/>
<path d="M215.522 303.951C215.522 281.2 197.078 262.757 174.327 262.757C151.576 262.757 133.133 281.2 133.133 303.951C133.133 326.702 151.576 345.146 174.327 345.146L174.327 355.146C146.053 355.146 123.133 332.225 123.133 303.951C123.133 275.677 146.053 252.757 174.327 252.757C202.601 252.757 225.522 275.677 225.522 303.951C225.522 332.225 202.601 355.146 174.327 355.146L174.327 345.146C197.078 345.146 215.522 326.702 215.522 303.951Z" fill="#A50000"/>
<path d="M161.857 281.933C167.273 282.386 169.636 284.166 172.877 289.517C175.405 284.946 177.492 283.176 182.83 281.969C184.557 281.659 185.621 281.711 187.59 281.977C198.979 284.824 201.731 289.479 201.607 302.027C200.467 307.52 198.594 310.382 192.853 315.065L182.9 322.168C177.224 326.689 175.389 329.875 172.957 335.947C171.211 330.317 169.241 327.271 163.116 322.134L153.435 314.998C147.772 310.781 145.817 307.898 144.19 301.928C143.979 288.73 147.458 284.552 159.031 281.928C160.097 281.79 160.702 281.792 161.857 281.933Z" fill="#A50000"/>
</svg>
