<svg width="812" height="882" viewBox="0 0 812 882" fill="none" xmlns="http://www.w3.org/2000/svg">
<path d="M498.027 882C427.638 871.79 387.89 871.429 316.139 882V873.332C368.87 781.087 382.945 734.369 378.933 660.958V619.784C341.917 676.96 314.815 699.394 255.509 721.636H210.037H166.731C55.8509 685.126 18.3219 644.022 0 530.934V481.091C16.5669 376.992 55.1263 324.587 184.053 242.713L210.037 225.376C317.159 158.321 362.251 110.326 407.083 0C450.729 105.323 491.518 155.693 601.963 225.376L630.112 242.713C758.633 329.312 804.672 380.812 812 481.091V530.934C795.908 641.597 760.939 685.184 640.939 721.636H619.285H588.971C519.468 714.738 485.135 688.951 428.736 619.784V660.958C447.072 773.788 464.041 814.222 498.027 873.332V882Z" fill="#F7CA4B"/>
</svg>
