<svg width="938" height="955" viewBox="0 0 938 955" fill="none" xmlns="http://www.w3.org/2000/svg">
<path d="M641.667 558.397C632.874 573.081 623.184 587.219 612.598 600.812L611.497 602.22L611.412 602.303C599.06 614.502 585.967 625.938 572.132 636.61L570.791 637.64L570.696 637.712L570.592 637.772C555.378 646.628 539.629 654.546 523.345 661.526L521.767 662.199L521.657 662.246L521.543 662.278C504.366 667.125 486.901 670.916 469.15 673.651L467.313 673.93L467.194 673.933C448.524 674.361 429.839 673.607 411.139 671.671L411.02 671.659L410.904 671.632C392.471 667.332 374.324 661.868 356.461 655.241L357.779 651.692C375.456 658.25 393.413 663.658 411.65 667.918C430.112 669.824 448.557 670.569 466.987 670.151C485.094 667.429 502.899 663.601 520.402 658.667C537.026 651.612 553.088 643.576 568.589 634.559C582.727 623.735 596.087 612.113 608.669 599.694C619.505 585.884 629.401 571.505 638.359 556.556C645.307 540.711 651.218 524.554 656.093 508.085C658.828 491.259 660.497 474.391 661.1 457.482C659.574 440.758 657.02 424.256 653.439 407.979C647.873 392.405 641.383 377.298 633.968 362.657C624.834 349.176 614.934 336.368 604.267 324.232C592.246 313.627 579.66 303.852 566.51 294.907C552.448 287.755 538.052 281.533 523.323 276.24C508.167 272.882 492.923 270.491 477.591 269.069C462.327 269.594 447.218 271.063 432.264 273.476C417.857 277.725 403.83 282.834 390.184 288.804C377.511 296.388 365.413 304.697 353.889 313.73C343.689 324.059 334.214 334.937 325.465 346.362C318.295 358.693 311.951 371.366 306.432 384.382C302.639 397.87 299.715 411.479 297.659 425.211C297.362 438.965 297.921 452.62 299.336 466.177C302.429 479.322 306.311 492.161 310.981 504.696C317.145 516.427 323.983 527.673 331.497 538.435C340.226 548.06 349.477 557.059 359.248 565.431C369.897 572.427 380.886 578.701 392.215 584.251C404.038 588.278 416.005 591.535 428.116 594.022C440.321 594.942 452.472 595.097 464.57 594.485C476.365 592.365 487.921 589.533 499.237 585.989C509.9 581.086 520.161 575.568 530.018 569.433C538.916 562.177 547.281 554.438 555.112 546.215C561.761 537.162 567.786 527.784 573.186 518.08C577.26 507.886 580.663 497.538 583.395 487.036C584.752 476.397 585.436 465.779 585.447 455.181C584.125 444.792 582.171 434.59 579.587 424.572C575.794 415.083 571.451 405.925 566.558 397.098C560.655 389.071 554.315 381.492 547.537 374.361C540.001 368.233 532.164 362.635 524.025 357.568C515.42 353.636 506.663 350.28 497.752 347.498C488.684 345.9 479.615 344.882 470.544 344.443C461.614 345.159 452.827 346.421 444.181 348.228C435.958 351.086 428.004 354.423 420.318 358.237C413.288 362.936 406.63 368.016 400.342 373.479C394.892 379.609 389.886 386.006 385.322 392.669C381.708 399.752 378.578 406.975 375.928 414.338C374.274 421.858 373.106 429.388 372.424 436.931C372.715 444.373 373.464 451.704 374.671 458.925C376.762 465.81 379.254 472.477 382.147 478.927C385.784 484.843 389.74 490.456 394.017 495.766C398.854 500.391 403.914 504.654 409.196 508.554C414.867 511.696 420.657 514.439 426.565 516.785L425.167 520.304C419.069 517.882 413.098 515.05 407.254 511.807L407.147 511.748L407.049 511.675C401.566 507.633 396.32 503.214 391.312 498.419L391.224 498.335L391.147 498.24C386.713 492.743 382.617 486.932 378.859 480.808L378.795 480.704L378.745 480.593C375.747 473.922 373.17 467.027 371.013 459.909L370.978 459.794L370.958 459.674C369.706 452.213 368.932 444.64 368.637 436.957L368.632 436.835L368.643 436.715C369.341 428.929 370.546 421.159 372.257 413.405L372.283 413.286L372.324 413.172C375.051 405.578 378.279 398.134 382.007 390.838L382.062 390.731L382.13 390.631C386.828 383.764 391.984 377.177 397.599 370.87L397.679 370.78L397.77 370.7C404.237 365.074 411.087 359.848 418.319 355.02L418.419 354.953L418.527 354.899C426.428 350.972 434.605 347.543 443.056 344.611L443.171 344.572L443.289 344.547C452.169 342.685 461.194 341.389 470.362 340.659L470.482 340.65L470.603 340.656C479.917 341.101 489.226 342.146 498.531 343.791L498.65 343.812L498.764 343.847C507.907 346.696 516.889 350.14 525.709 354.176L525.819 354.226L525.921 354.29C534.268 359.479 542.3 365.216 550.019 371.499L550.112 371.575L550.195 371.663C557.143 378.966 563.638 386.73 569.68 394.954L569.752 395.052L569.81 395.157C574.824 404.192 579.27 413.566 583.147 423.279L583.191 423.391L583.222 423.507C585.871 433.757 587.869 444.196 589.217 454.822L589.232 454.942L589.232 455.061C589.225 465.901 588.526 476.76 587.133 487.636L587.118 487.755L587.088 487.871C584.3 498.608 580.822 509.184 576.654 519.598L576.609 519.71L576.551 519.815C571.039 529.731 564.886 539.31 558.092 548.552L558.02 548.648L557.938 548.735C550.443 556.612 542.467 564.051 534.011 571.051L532.221 572.521L532.12 572.584C522.69 578.457 512.899 583.774 502.746 588.533L500.71 589.478L500.601 589.528L500.488 589.563C488.941 593.185 477.151 596.075 465.118 598.233L464.999 598.254L464.88 598.261C453.314 598.85 441.702 598.748 430.044 597.957L427.712 597.789L427.593 597.78L427.475 597.756C415.899 595.384 404.455 592.317 393.143 588.558L390.882 587.797L390.769 587.758L390.661 587.706C379.113 582.054 367.915 575.662 357.068 568.53L356.968 568.464L356.877 568.386C346.919 559.86 337.496 550.693 328.608 540.886L328.528 540.797L328.459 540.699C320.806 529.744 313.844 518.295 307.574 506.352L307.518 506.246L307.477 506.134C302.717 493.376 298.766 480.307 295.624 466.929L295.597 466.812L295.585 466.693C294.139 452.897 293.57 439.003 293.877 425.01L293.88 424.89L293.897 424.771C295.983 410.802 298.958 396.958 302.82 383.241L302.852 383.126L302.899 383.016C308.508 369.777 314.96 356.889 322.254 344.354L322.314 344.251L322.386 344.156C331.278 332.537 340.91 321.479 351.281 310.983L351.366 310.898L351.46 310.824C363.171 301.639 375.466 293.195 388.346 285.492L388.45 285.431L388.559 285.383C402.423 279.313 416.674 274.121 431.311 269.809L431.426 269.776L431.544 269.757C446.734 267.302 462.08 265.81 477.582 265.282L477.701 265.277L477.82 265.289C493.392 266.728 508.873 269.156 524.261 272.571L524.377 272.597L524.491 272.637C539.447 278.006 554.062 284.323 568.335 291.588L568.441 291.642L568.54 291.709C581.891 300.785 594.664 310.707 606.861 321.474L606.951 321.553L607.029 321.643C617.858 333.955 627.905 346.952 637.169 360.633L637.237 360.732L637.291 360.839C644.818 375.692 651.402 391.019 657.044 406.819L657.084 406.932L657.109 407.049C660.746 423.559 663.336 440.295 664.879 457.256L664.89 457.375L664.886 457.495C664.279 474.645 662.586 491.75 659.808 508.811L659.79 508.929L659.755 509.044C654.818 525.743 648.825 542.124 641.777 558.185L641.729 558.295L641.667 558.397Z" stroke="#F7CA4B" stroke-width="27"/>
<path d="M641.667 558.397C632.874 573.081 623.184 587.219 612.598 600.812L611.497 602.22L611.412 602.303C599.06 614.502 585.967 625.938 572.132 636.61L570.791 637.64L570.696 637.712L570.592 637.772C555.378 646.628 539.629 654.546 523.345 661.526L521.767 662.199L521.657 662.246L521.543 662.278C504.366 667.125 486.901 670.916 469.15 673.651L467.313 673.93L467.194 673.933C448.524 674.361 429.839 673.607 411.139 671.671L411.02 671.659L410.904 671.632C392.471 667.332 374.324 661.868 356.461 655.241L357.779 651.692C375.456 658.25 393.413 663.658 411.65 667.918C430.112 669.824 448.557 670.569 466.987 670.151C485.094 667.429 502.899 663.601 520.402 658.667C537.026 651.612 553.088 643.576 568.589 634.559C582.727 623.735 596.087 612.113 608.669 599.694C619.505 585.884 629.401 571.505 638.359 556.556C645.307 540.711 651.218 524.554 656.093 508.085C658.828 491.259 660.497 474.391 661.1 457.482C659.574 440.758 657.02 424.256 653.439 407.979C647.873 392.405 641.383 377.298 633.968 362.657C624.834 349.176 614.934 336.368 604.267 324.232C592.246 313.627 579.66 303.852 566.51 294.907C552.448 287.755 538.052 281.533 523.323 276.24C508.167 272.882 492.923 270.491 477.591 269.069C462.327 269.594 447.218 271.063 432.264 273.476C417.857 277.725 403.83 282.834 390.184 288.804C377.511 296.388 365.413 304.697 353.889 313.73C343.689 324.059 334.214 334.937 325.465 346.362C318.295 358.693 311.951 371.366 306.432 384.382C302.639 397.87 299.715 411.479 297.659 425.211C297.362 438.965 297.921 452.62 299.336 466.177C302.429 479.322 306.311 492.161 310.981 504.696C317.145 516.427 323.983 527.673 331.497 538.435C340.226 548.06 349.477 557.059 359.248 565.431C369.897 572.427 380.886 578.701 392.215 584.251C404.038 588.278 416.005 591.535 428.116 594.022C440.321 594.942 452.472 595.097 464.57 594.485C476.365 592.365 487.921 589.533 499.237 585.989C509.9 581.086 520.161 575.568 530.018 569.433C538.916 562.177 547.281 554.438 555.112 546.215C561.761 537.162 567.786 527.784 573.186 518.08C577.26 507.886 580.663 497.538 583.395 487.036C584.752 476.397 585.436 465.779 585.447 455.181C584.125 444.792 582.171 434.59 579.587 424.572C575.794 415.083 571.451 405.925 566.558 397.098C560.655 389.071 554.315 381.492 547.537 374.361C540.001 368.233 532.164 362.635 524.025 357.568C515.42 353.636 506.663 350.28 497.752 347.498C488.684 345.9 479.615 344.882 470.544 344.443C461.614 345.159 452.827 346.421 444.181 348.228C435.958 351.086 428.004 354.423 420.318 358.237C413.288 362.936 406.63 368.016 400.342 373.479C394.892 379.609 389.886 386.006 385.322 392.669C381.708 399.752 378.578 406.975 375.928 414.338C374.274 421.858 373.106 429.388 372.424 436.931C372.715 444.373 373.464 451.704 374.671 458.925C376.762 465.81 379.254 472.477 382.147 478.927C385.784 484.843 389.74 490.456 394.017 495.766C398.854 500.391 403.914 504.654 409.196 508.554C414.867 511.696 420.657 514.439 426.565 516.785L425.167 520.304C419.069 517.882 413.098 515.05 407.254 511.807L407.147 511.748L407.049 511.675C401.566 507.633 396.32 503.214 391.312 498.419L391.224 498.335L391.147 498.24C386.713 492.743 382.617 486.932 378.859 480.808L378.795 480.704L378.745 480.593C375.747 473.922 373.17 467.027 371.013 459.909L370.978 459.794L370.958 459.674C369.706 452.213 368.932 444.64 368.637 436.957L368.632 436.835L368.643 436.715C369.341 428.929 370.546 421.159 372.257 413.405L372.283 413.286L372.324 413.172C375.051 405.578 378.279 398.134 382.007 390.838L382.062 390.731L382.13 390.631C386.828 383.764 391.984 377.177 397.599 370.87L397.679 370.78L397.77 370.7C404.237 365.074 411.087 359.848 418.319 355.02L418.419 354.953L418.527 354.899C426.428 350.972 434.605 347.543 443.056 344.611L443.171 344.572L443.289 344.547C452.169 342.685 461.194 341.389 470.362 340.659L470.482 340.65L470.603 340.656C479.917 341.101 489.226 342.146 498.531 343.791L498.65 343.812L498.764 343.847C507.907 346.696 516.889 350.14 525.709 354.176L525.819 354.226L525.921 354.29C534.268 359.479 542.3 365.216 550.019 371.499L550.112 371.575L550.195 371.663C557.143 378.966 563.638 386.73 569.68 394.954L569.752 395.052L569.81 395.157C574.824 404.192 579.27 413.566 583.147 423.279L583.191 423.391L583.222 423.507C585.871 433.757 587.869 444.196 589.217 454.822L589.232 454.942L589.232 455.061C589.225 465.901 588.526 476.76 587.133 487.636L587.118 487.755L587.088 487.871C584.3 498.608 580.822 509.184 576.654 519.598L576.609 519.71L576.551 519.815C571.039 529.731 564.886 539.31 558.092 548.552L558.02 548.648L557.938 548.735C550.443 556.612 542.467 564.051 534.011 571.051L532.221 572.521L532.12 572.584C522.69 578.457 512.899 583.774 502.746 588.533L500.71 589.478L500.601 589.528L500.488 589.563C488.941 593.185 477.151 596.075 465.118 598.233L464.999 598.254L464.88 598.261C453.314 598.85 441.702 598.748 430.044 597.957L427.712 597.789L427.593 597.78L427.475 597.756C415.899 595.384 404.455 592.317 393.143 588.558L390.882 587.797L390.769 587.758L390.661 587.706C379.113 582.054 367.915 575.662 357.068 568.53L356.968 568.464L356.877 568.386C346.919 559.86 337.496 550.693 328.608 540.886L328.528 540.797L328.459 540.699C320.806 529.744 313.844 518.295 307.574 506.352L307.518 506.246L307.477 506.134C302.717 493.376 298.766 480.307 295.624 466.929L295.597 466.812L295.585 466.693C294.139 452.897 293.57 439.003 293.877 425.01L293.88 424.89L293.897 424.771C295.983 410.802 298.958 396.958 302.82 383.241L302.852 383.126L302.899 383.016C308.508 369.777 314.96 356.889 322.254 344.354L322.314 344.251L322.386 344.156C331.278 332.537 340.91 321.479 351.281 310.983L351.366 310.898L351.46 310.824C363.171 301.639 375.466 293.195 388.346 285.492L388.45 285.431L388.559 285.383C402.423 279.313 416.674 274.121 431.311 269.809L431.426 269.776L431.544 269.757C446.734 267.302 462.08 265.81 477.582 265.282L477.701 265.277L477.82 265.289C493.392 266.728 508.873 269.156 524.261 272.571L524.377 272.597L524.491 272.637C539.447 278.006 554.062 284.323 568.335 291.588L568.441 291.642L568.54 291.709C581.891 300.785 594.664 310.707 606.861 321.474L606.951 321.553L607.029 321.643C617.858 333.955 627.905 346.952 637.169 360.633L637.237 360.732L637.291 360.839C644.818 375.692 651.402 391.019 657.044 406.819L657.084 406.932L657.109 407.049C660.746 423.559 663.336 440.295 664.879 457.256L664.89 457.375L664.886 457.495C664.279 474.645 662.586 491.75 659.808 508.811L659.79 508.929L659.755 509.044C654.818 525.743 648.825 542.124 641.777 558.185L641.729 558.295L641.667 558.397Z" stroke="#F7CA4B" stroke-width="27"/>
<path d="M772.374 635.676C756.67 660.527 739.477 684.374 720.797 707.217L718.984 709.424L718.909 709.517L718.822 709.599C697.247 729.926 674.471 748.899 650.495 766.518L648.17 768.219L648.074 768.289L647.97 768.347C620.955 783.247 593.053 796.417 564.265 807.856L564.154 807.9L564.038 807.93C534.86 815.456 505.278 821.188 475.292 825.125L472.388 825.501L472.27 825.515L472.151 825.516C441.773 825.541 411.451 823.713 381.186 820.032L378.256 819.67L378.139 819.655L378.022 819.625C347.4 811.781 317.332 802.024 287.819 790.354L289.212 786.832C318.541 798.429 348.42 808.127 378.848 815.926C409.85 819.816 440.91 821.75 472.028 821.728C502.773 817.809 533.089 811.996 562.979 804.291C591.544 792.935 619.23 779.867 646.038 765.087C670.672 747.126 694.039 727.738 716.139 706.922C735.365 683.591 753.021 659.202 769.108 633.756C781.814 606.6 792.751 578.817 801.92 550.406C807.418 521.192 811.063 491.813 812.855 462.268C810.924 432.86 807.172 403.752 801.6 374.942C792.487 347.18 781.699 320.155 769.237 293.867C753.636 269.464 736.61 246.183 718.159 224.022C697.159 204.445 675.067 186.295 651.884 169.575C626.894 155.966 601.21 143.997 574.832 133.669C547.484 126.772 519.874 121.623 492.004 118.219C464.054 118.349 436.285 120.219 408.697 123.829C381.905 130.851 355.717 139.498 330.131 149.77C306.153 163.119 283.156 177.877 261.139 194.046C241.422 212.772 222.995 232.608 205.857 253.556C191.559 276.386 178.773 299.964 167.497 324.289C159.412 349.718 152.96 375.491 148.143 401.608C146.659 427.996 146.828 454.31 148.649 480.55C153.734 506.228 160.385 531.426 168.604 556.145C179.815 579.52 192.409 602.047 206.388 623.727C222.904 643.379 240.539 661.876 259.292 679.219C279.974 693.988 301.443 707.374 323.699 719.379C347.172 728.44 371.059 735.981 395.359 742.002C420.098 744.901 444.858 746.24 469.638 746.021C494.068 742.7 518.133 737.88 541.832 731.561C564.432 722.354 586.312 711.8 607.471 699.9C626.861 685.504 645.229 669.996 662.574 653.375C677.606 634.802 691.383 615.415 703.907 595.215C713.734 573.712 722.159 551.74 729.181 529.297C733.297 506.271 735.954 483.141 737.151 459.908C735.42 436.838 732.265 414.03 727.686 391.482C720.343 369.811 711.701 348.741 701.759 328.273C689.388 309.329 675.922 291.282 661.36 274.131C644.843 259.036 627.499 245.07 609.326 232.234C589.794 221.851 569.747 212.753 549.187 204.941C527.929 199.813 506.497 196.042 484.89 193.628C463.28 193.956 441.839 195.626 420.565 198.637C399.96 204.274 379.848 211.154 360.228 219.276C341.898 229.745 324.346 241.281 307.571 253.885C292.612 268.415 278.659 283.773 265.714 299.962C254.979 317.546 245.414 335.675 237.016 354.348C231.077 373.811 226.39 393.506 222.955 413.434C222.066 433.511 222.432 453.501 224.052 473.404C228.144 492.818 233.414 511.839 239.861 530.468C248.552 548.022 258.272 564.91 269.021 581.133C281.648 595.773 295.093 609.522 309.359 622.382C325.063 633.29 341.333 643.14 358.168 651.933L356.415 655.29C339.402 646.405 322.963 636.45 307.099 625.425L307.001 625.357L306.912 625.276C292.465 612.26 278.852 598.339 266.073 583.514L265.994 583.424L265.928 583.325C255.043 566.905 245.204 549.809 236.413 532.039L236.36 531.933L236.32 531.819C229.789 512.965 224.456 493.713 220.32 474.064L220.296 473.947L220.286 473.827C218.642 453.687 218.271 433.46 219.175 413.147L219.181 413.027L219.202 412.909C222.673 392.745 227.415 372.818 233.428 353.129L233.462 353.015L233.512 352.906C242.003 334.012 251.681 315.672 262.544 297.887L262.606 297.785L262.681 297.692C275.772 281.313 289.885 265.776 305.02 251.084L305.105 251L305.201 250.929C322.163 238.177 339.914 226.51 358.453 215.928L358.557 215.868L358.667 215.823C378.506 207.604 398.844 200.647 419.679 194.953L419.795 194.921L419.913 194.905C441.424 191.855 463.105 190.166 484.955 189.84L485.075 189.838L485.193 189.851C507.038 192.286 528.705 196.099 550.193 201.288L550.309 201.316L550.42 201.358C571.205 209.25 591.469 218.447 611.209 228.946L611.314 229.002L611.412 229.071C629.782 242.04 647.311 256.154 663.999 271.413L664.087 271.493L664.164 271.584C678.887 288.915 692.498 307.155 704.996 326.303L705.061 326.403L705.113 326.51C715.164 347.191 723.897 368.482 731.311 390.381L731.349 390.494L731.373 390.611C736.005 413.392 739.191 436.438 740.935 459.746L740.944 459.865L740.938 459.984C739.735 483.455 737.052 506.82 732.889 530.078L732.867 530.195L732.832 530.309C725.743 552.982 717.234 575.178 707.303 596.897L707.253 597.005L707.19 597.106C694.939 616.877 681.495 635.872 666.859 654.093L665.439 655.853L665.364 655.946L665.278 656.028C647.764 672.818 629.215 688.48 609.63 703.013L609.534 703.084L609.43 703.143C588.733 714.789 567.352 725.154 545.288 734.239L543.04 735.159L542.924 735.19C519.742 741.376 496.213 746.137 472.339 749.473L470.027 749.791L469.909 749.807L469.79 749.808C445.551 750.027 421.334 748.764 397.138 746.02L394.797 745.75L394.678 745.737L394.562 745.707C370.029 739.633 345.915 732.02 322.221 722.869L322.11 722.826L322.004 722.769C299.535 710.655 277.863 697.142 256.989 682.229L256.892 682.16L256.804 682.079C237.874 664.577 220.076 645.908 203.411 626.072L203.335 625.981L203.27 625.881C189.157 604.003 176.446 581.269 165.137 557.678L165.086 557.571L165.048 557.457C156.75 532.513 150.037 507.084 144.91 481.172L144.887 481.054L144.879 480.936C143.036 454.457 142.866 427.904 144.368 401.277L144.375 401.159L144.397 401.041C149.252 374.688 155.761 348.683 163.923 323.028L163.959 322.914L164.009 322.806C175.38 298.262 188.281 274.475 202.709 251.446L202.772 251.345L202.848 251.252C220.133 230.117 238.722 210.106 258.614 191.22L258.701 191.138L258.797 191.067C281.004 174.752 304.203 159.864 328.393 146.403L328.497 146.345L328.608 146.301C354.413 135.935 380.828 127.213 407.852 120.135L407.968 120.105L408.086 120.09C435.911 116.443 463.917 114.557 492.105 114.431L492.225 114.43L492.343 114.445C520.45 117.872 548.293 123.066 575.87 130.025L575.986 130.054L576.097 130.097C602.701 140.509 628.603 152.579 653.801 166.307L653.906 166.363L654.002 166.433C677.382 183.289 699.657 201.589 720.829 221.333L720.916 221.414L720.992 221.505C739.6 243.847 756.768 267.322 772.493 291.929L772.557 292.029L772.609 292.137C785.177 318.638 796.052 345.883 805.234 373.872L805.272 373.985L805.294 374.103C810.917 403.147 814.699 432.494 816.641 462.14L816.648 462.26L816.642 462.379C814.84 492.163 811.166 521.778 805.619 551.225L805.597 551.342L805.56 551.455C796.323 580.095 785.3 608.099 772.489 635.467L772.438 635.575L772.374 635.676Z" stroke="#F7CA4B" stroke-width="27"/>
</svg>
