<svg width="723" height="542" viewBox="0 0 723 542" fill="none" xmlns="http://www.w3.org/2000/svg">
<path d="M536.669 376.397C527.876 391.08 518.186 405.219 507.6 418.811L506.498 420.219L506.413 420.303C494.062 432.502 480.969 443.938 467.133 454.61L465.792 455.64L465.697 455.712L465.594 455.772C450.379 464.627 434.63 472.546 418.347 479.526L416.769 480.198L416.659 480.245L416.544 480.278C399.367 485.125 381.903 488.916 364.152 491.651L362.315 491.93L362.196 491.933C343.526 492.361 324.84 491.607 306.141 489.671L306.022 489.659L305.905 489.632C287.473 485.331 269.326 479.868 251.463 473.241L252.78 469.691C270.458 476.25 288.415 481.658 306.652 485.918C325.114 487.824 343.559 488.568 361.988 488.151C380.096 485.428 397.901 481.6 415.404 476.666C432.027 469.612 448.09 461.576 463.591 452.559C477.729 441.735 491.088 430.113 503.671 417.693C514.507 403.883 524.403 389.504 533.36 374.556C540.308 358.71 546.22 342.553 551.094 326.085C553.829 309.259 555.498 292.391 556.102 275.482C554.575 258.757 552.021 242.256 548.441 225.978C542.875 210.404 536.384 195.298 528.97 180.657C519.835 167.176 509.935 154.368 499.269 142.232C487.248 131.627 474.662 121.852 461.512 112.907C447.449 105.754 433.054 99.5322 418.325 94.2401C403.168 90.8814 387.924 88.491 372.592 87.0686C357.328 87.5934 342.22 89.0629 327.266 91.4752C312.859 95.7247 298.832 100.834 285.185 106.804C272.513 114.388 260.415 122.696 248.89 131.729C238.69 142.059 229.216 152.936 220.466 164.361C213.297 176.693 206.953 189.366 201.433 202.381C197.64 215.87 194.716 229.479 192.661 243.211C192.364 256.965 192.923 270.62 194.338 284.177C197.431 297.321 201.312 310.161 205.983 322.695C212.147 334.426 218.985 345.673 226.498 356.434C235.228 366.06 244.478 375.058 254.249 383.431C264.899 390.427 275.887 396.7 287.216 402.251C299.039 406.278 311.006 409.534 323.118 412.022C335.322 412.942 347.473 413.096 359.571 412.485C371.367 410.365 382.922 407.533 394.239 403.988C404.902 399.086 415.162 393.567 425.02 387.433C433.918 380.177 442.283 372.437 450.114 364.214C456.763 355.162 462.787 345.784 468.187 336.08C472.262 325.886 475.664 315.538 478.396 305.036C479.753 294.397 480.437 283.779 480.449 273.18C479.126 262.792 477.173 252.589 474.589 242.572C470.796 233.083 466.453 223.925 461.559 215.098C455.656 207.07 449.316 199.492 442.539 192.361C435.003 186.232 427.166 180.634 419.027 175.568C410.422 171.636 401.664 168.279 392.754 165.497C383.686 163.9 374.617 162.881 365.545 162.442C356.616 163.158 347.829 164.42 339.183 166.228C330.96 169.086 323.006 172.423 315.32 176.237C308.29 180.935 301.632 186.016 295.344 191.479C289.894 197.609 284.888 204.005 280.324 210.668C276.71 217.751 273.579 224.974 270.929 232.338C269.275 239.857 268.107 247.388 267.426 254.931C267.717 262.372 268.466 269.704 269.672 276.925C271.764 283.809 274.256 290.476 277.149 296.927C280.785 302.843 284.742 308.455 289.019 313.766C293.856 318.391 298.915 322.653 304.198 326.554C309.869 329.695 315.658 332.439 321.566 334.785L320.169 338.303C314.071 335.882 308.099 333.05 302.256 329.806L302.149 329.747L302.051 329.675C296.568 325.633 291.322 321.214 286.313 316.418L286.225 316.334L286.149 316.24C281.715 310.743 277.619 304.931 273.86 298.807L273.796 298.703L273.747 298.592C270.749 291.921 268.171 285.026 266.014 277.909L265.98 277.793L265.959 277.674C264.707 270.212 263.934 262.639 263.639 254.956L263.634 254.835L263.645 254.714C264.343 246.929 265.548 239.158 267.259 231.404L267.284 231.286L267.326 231.172C270.053 223.578 273.28 216.133 277.008 208.838L277.064 208.73L277.132 208.631C281.83 201.763 286.986 195.176 292.6 188.87L292.68 188.779L292.772 188.7C299.239 183.074 306.088 177.847 313.32 173.02L313.421 172.953L313.529 172.899C321.43 168.972 329.606 165.543 338.058 162.611L338.172 162.572L338.291 162.546C347.171 160.685 356.196 159.389 365.364 158.659L365.484 158.649L365.604 158.655C374.919 159.101 384.228 160.146 393.532 161.79L393.651 161.811L393.766 161.847C402.908 164.696 411.89 168.139 420.711 172.176L420.821 172.226L420.923 172.289C429.269 177.479 437.302 183.215 445.02 189.499L445.113 189.575L445.196 189.662C452.145 196.965 458.64 204.73 464.682 212.954L464.753 213.051L464.812 213.156C469.826 222.192 474.272 231.566 478.149 241.279L478.193 241.391L478.223 241.507C480.873 251.757 482.871 262.195 484.219 272.822L484.234 272.941L484.234 273.061C484.227 283.901 483.527 294.759 482.135 305.635L482.12 305.755L482.09 305.87C479.302 316.607 475.824 327.184 471.656 337.598L471.611 337.709L471.552 337.814C466.04 347.731 459.887 357.31 453.093 366.551L453.022 366.648L452.939 366.735C445.444 374.612 437.469 382.05 429.013 389.05L427.223 390.52L427.121 390.583C417.692 396.457 407.901 401.774 397.748 406.533L395.712 407.477L395.603 407.527L395.489 407.563C383.943 411.185 372.153 414.075 360.119 416.233L360.001 416.254L359.882 416.26C348.316 416.849 336.704 416.748 325.046 415.956L322.714 415.789L322.594 415.78L322.477 415.756C310.901 413.383 299.457 410.317 288.144 406.557L285.883 405.796L285.77 405.758L285.662 405.705C274.114 400.053 262.916 393.661 252.069 386.529L251.969 386.463L251.879 386.386C241.921 377.859 232.497 368.692 223.61 358.886L223.529 358.796L223.461 358.698C215.807 347.744 208.846 336.295 202.576 324.352L202.52 324.246L202.478 324.134C197.719 311.375 193.768 298.307 190.625 284.928L190.598 284.812L190.586 284.693C189.141 270.897 188.572 257.003 188.879 243.01L188.881 242.89L188.899 242.771C190.985 228.801 193.959 214.957 197.822 201.241L197.854 201.126L197.901 201.016C203.51 187.777 209.961 174.889 217.255 162.353L217.315 162.25L217.388 162.155C226.28 150.536 235.912 139.479 246.283 128.983L246.368 128.898L246.462 128.824C258.172 119.639 270.468 111.194 283.348 103.492L283.451 103.431L283.56 103.383C297.425 97.3124 311.675 92.1209 326.313 87.8088L326.428 87.7753L326.546 87.7566C341.735 85.3012 357.081 83.8096 372.583 83.2816L372.703 83.2768L372.822 83.2886C388.394 84.7281 403.874 87.1553 419.263 90.5706L419.379 90.5966L419.492 90.6368C434.448 96.0052 449.063 102.322 463.337 109.588L463.443 109.642L463.542 109.709C476.893 118.784 489.666 128.706 501.862 139.473L501.952 139.552L502.031 139.642C512.86 151.955 522.907 164.952 532.171 178.633L532.238 178.732L532.293 178.839C539.82 193.691 546.404 209.019 552.045 224.819L552.086 224.932L552.111 225.048C555.748 241.558 558.338 258.294 559.881 275.256L559.892 275.375L559.888 275.495C559.281 292.644 557.588 309.75 554.81 326.811L554.791 326.929L554.757 327.043C549.819 343.743 543.826 360.124 536.778 376.185L536.73 376.294L536.669 376.397Z" stroke="#F7CA4B" stroke-width="27"/>
<path d="M536.669 376.397C527.876 391.08 518.186 405.219 507.6 418.811L506.498 420.219L506.413 420.303C494.062 432.502 480.969 443.938 467.133 454.61L465.792 455.64L465.697 455.712L465.594 455.772C450.379 464.627 434.63 472.546 418.347 479.526L416.769 480.198L416.659 480.245L416.544 480.278C399.367 485.125 381.903 488.916 364.152 491.651L362.315 491.93L362.196 491.933C343.526 492.361 324.84 491.607 306.141 489.671L306.022 489.659L305.905 489.632C287.473 485.331 269.326 479.868 251.463 473.241L252.78 469.691C270.458 476.25 288.415 481.658 306.652 485.918C325.114 487.824 343.559 488.568 361.988 488.151C380.096 485.428 397.901 481.6 415.404 476.666C432.027 469.612 448.09 461.576 463.591 452.559C477.729 441.735 491.088 430.113 503.671 417.693C514.507 403.883 524.403 389.504 533.36 374.556C540.308 358.71 546.22 342.553 551.094 326.085C553.829 309.259 555.498 292.391 556.102 275.482C554.575 258.757 552.021 242.256 548.441 225.978C542.875 210.404 536.384 195.298 528.97 180.657C519.835 167.176 509.935 154.368 499.269 142.232C487.248 131.627 474.662 121.852 461.512 112.907C447.449 105.754 433.054 99.5322 418.325 94.2401C403.168 90.8814 387.924 88.491 372.592 87.0686C357.328 87.5934 342.22 89.0629 327.266 91.4752C312.859 95.7247 298.832 100.834 285.185 106.804C272.513 114.388 260.415 122.696 248.89 131.729C238.69 142.059 229.216 152.936 220.466 164.361C213.297 176.693 206.953 189.366 201.433 202.381C197.64 215.87 194.716 229.479 192.661 243.211C192.364 256.965 192.923 270.62 194.338 284.177C197.431 297.321 201.312 310.161 205.983 322.695C212.147 334.426 218.985 345.673 226.498 356.434C235.228 366.06 244.478 375.058 254.249 383.431C264.899 390.427 275.887 396.7 287.216 402.251C299.039 406.278 311.006 409.534 323.118 412.022C335.322 412.942 347.473 413.096 359.571 412.485C371.367 410.365 382.922 407.533 394.239 403.988C404.902 399.086 415.162 393.567 425.02 387.433C433.918 380.177 442.283 372.437 450.114 364.214C456.763 355.162 462.787 345.784 468.187 336.08C472.262 325.886 475.664 315.538 478.396 305.036C479.753 294.397 480.437 283.779 480.449 273.18C479.126 262.792 477.173 252.589 474.589 242.572C470.796 233.083 466.453 223.925 461.559 215.098C455.656 207.07 449.316 199.492 442.539 192.361C435.003 186.232 427.166 180.634 419.027 175.568C410.422 171.636 401.664 168.279 392.754 165.497C383.686 163.9 374.617 162.881 365.545 162.442C356.616 163.158 347.829 164.42 339.183 166.228C330.96 169.086 323.006 172.423 315.32 176.237C308.29 180.935 301.632 186.016 295.344 191.479C289.894 197.609 284.888 204.005 280.324 210.668C276.71 217.751 273.579 224.974 270.929 232.338C269.275 239.857 268.107 247.388 267.426 254.931C267.717 262.372 268.466 269.704 269.672 276.925C271.764 283.809 274.256 290.476 277.149 296.927C280.785 302.843 284.742 308.455 289.019 313.766C293.856 318.391 298.915 322.653 304.198 326.554C309.869 329.695 315.658 332.439 321.566 334.785L320.169 338.303C314.071 335.882 308.099 333.05 302.256 329.806L302.149 329.747L302.051 329.675C296.568 325.633 291.322 321.214 286.313 316.418L286.225 316.334L286.149 316.24C281.715 310.743 277.619 304.931 273.86 298.807L273.796 298.703L273.747 298.592C270.749 291.921 268.171 285.026 266.014 277.909L265.98 277.793L265.959 277.674C264.707 270.212 263.934 262.639 263.639 254.956L263.634 254.835L263.645 254.714C264.343 246.929 265.548 239.158 267.259 231.404L267.284 231.286L267.326 231.172C270.053 223.578 273.28 216.133 277.008 208.838L277.064 208.73L277.132 208.631C281.83 201.763 286.986 195.176 292.6 188.87L292.68 188.779L292.772 188.7C299.239 183.074 306.088 177.847 313.32 173.02L313.421 172.953L313.529 172.899C321.43 168.972 329.606 165.543 338.058 162.611L338.172 162.572L338.291 162.546C347.171 160.685 356.196 159.389 365.364 158.659L365.484 158.649L365.604 158.655C374.919 159.101 384.228 160.146 393.532 161.79L393.651 161.811L393.766 161.847C402.908 164.696 411.89 168.139 420.711 172.176L420.821 172.226L420.923 172.289C429.269 177.479 437.302 183.215 445.02 189.499L445.113 189.575L445.196 189.662C452.145 196.965 458.64 204.73 464.682 212.954L464.753 213.051L464.812 213.156C469.826 222.192 474.272 231.566 478.149 241.279L478.193 241.391L478.223 241.507C480.873 251.757 482.871 262.195 484.219 272.822L484.234 272.941L484.234 273.061C484.227 283.901 483.527 294.759 482.135 305.635L482.12 305.755L482.09 305.87C479.302 316.607 475.824 327.184 471.656 337.598L471.611 337.709L471.552 337.814C466.04 347.731 459.887 357.31 453.093 366.551L453.022 366.648L452.939 366.735C445.444 374.612 437.469 382.05 429.013 389.05L427.223 390.52L427.121 390.583C417.692 396.457 407.901 401.774 397.748 406.533L395.712 407.477L395.603 407.527L395.489 407.563C383.943 411.185 372.153 414.075 360.119 416.233L360.001 416.254L359.882 416.26C348.316 416.849 336.704 416.748 325.046 415.956L322.714 415.789L322.594 415.78L322.477 415.756C310.901 413.383 299.457 410.317 288.144 406.557L285.883 405.796L285.77 405.758L285.662 405.705C274.114 400.053 262.916 393.661 252.069 386.529L251.969 386.463L251.879 386.386C241.921 377.859 232.497 368.692 223.61 358.886L223.529 358.796L223.461 358.698C215.807 347.744 208.846 336.295 202.576 324.352L202.52 324.246L202.478 324.134C197.719 311.375 193.768 298.307 190.625 284.928L190.598 284.812L190.586 284.693C189.141 270.897 188.572 257.003 188.879 243.01L188.881 242.89L188.899 242.771C190.985 228.801 193.959 214.957 197.822 201.241L197.854 201.126L197.901 201.016C203.51 187.777 209.961 174.889 217.255 162.353L217.315 162.25L217.388 162.155C226.28 150.536 235.912 139.479 246.283 128.983L246.368 128.898L246.462 128.824C258.172 119.639 270.468 111.194 283.348 103.492L283.451 103.431L283.56 103.383C297.425 97.3124 311.675 92.1209 326.313 87.8088L326.428 87.7753L326.546 87.7566C341.735 85.3012 357.081 83.8096 372.583 83.2816L372.703 83.2768L372.822 83.2886C388.394 84.7281 403.874 87.1553 419.263 90.5706L419.379 90.5966L419.492 90.6368C434.448 96.0052 449.063 102.322 463.337 109.588L463.443 109.642L463.542 109.709C476.893 118.784 489.666 128.706 501.862 139.473L501.952 139.552L502.031 139.642C512.86 151.955 522.907 164.952 532.171 178.633L532.238 178.732L532.293 178.839C539.82 193.691 546.404 209.019 552.045 224.819L552.086 224.932L552.111 225.048C555.748 241.558 558.338 258.294 559.881 275.256L559.892 275.375L559.888 275.495C559.281 292.644 557.588 309.75 554.81 326.811L554.791 326.929L554.757 327.043C549.819 343.743 543.826 360.124 536.778 376.185L536.73 376.294L536.669 376.397Z" stroke="#F7CA4B" stroke-width="27"/>
<path d="M667.376 453.675C651.671 478.526 634.479 502.374 615.799 525.217L613.986 527.424L613.911 527.516L613.823 527.598C592.248 547.925 569.473 566.898 545.497 584.517L543.172 586.218L543.076 586.288L542.972 586.346C515.956 601.247 488.054 614.416 459.266 625.856L459.155 625.9L459.04 625.93C429.862 633.456 400.28 639.188 370.293 643.125L367.39 643.5L367.272 643.515L367.152 643.515C336.775 643.541 306.453 641.713 276.187 638.031L273.258 637.669L273.14 637.654L273.024 637.625C242.402 629.781 212.334 620.024 182.821 608.353L184.213 604.831C213.543 616.429 243.421 626.127 273.849 633.926C304.851 637.815 335.911 639.749 367.03 639.728C397.774 635.809 428.091 629.996 457.981 622.291C486.545 610.935 514.232 597.867 541.04 583.086C565.674 565.126 589.04 545.737 611.141 524.922C630.366 501.591 648.022 477.202 664.11 451.756C676.815 424.6 687.753 396.817 696.922 368.406C702.42 339.192 706.065 309.813 707.856 280.267C705.925 250.86 702.173 221.752 696.602 192.942C687.488 165.18 676.701 138.155 664.239 111.867C648.638 87.4639 631.612 64.1826 613.161 42.0216C592.16 22.4444 570.069 4.29505 546.886 -12.4257C521.896 -26.0346 496.212 -38.0034 469.834 -48.3318C442.485 -55.2281 414.876 -60.3779 387.005 -63.7818C359.056 -63.6517 331.287 -61.7817 303.699 -58.1713C276.907 -51.1496 250.718 -42.5023 225.133 -32.2302C201.155 -18.8816 178.158 -4.12307 156.14 12.0461C136.424 30.7717 117.997 50.6078 100.859 71.5554C86.5607 94.3857 73.7744 117.963 62.499 142.288C54.4135 167.718 47.9614 193.491 43.1445 219.608C41.6606 245.996 41.8294 272.31 43.6504 298.55C48.7356 324.228 55.3871 349.426 63.6055 374.145C74.8162 397.519 87.4109 420.046 101.39 441.727C117.906 461.378 135.54 479.875 154.293 497.219C174.975 511.988 196.444 525.374 218.7 537.378C242.174 546.439 266.061 553.98 290.361 560.002C315.1 562.9 339.859 564.24 364.64 564.021C389.07 560.7 413.134 555.88 436.834 549.56C459.434 540.353 481.313 529.8 502.473 517.899C521.863 503.504 540.23 487.996 557.575 471.375C572.608 452.802 586.385 433.415 598.909 413.214C608.736 391.711 617.161 369.739 624.182 347.297C628.299 324.271 630.956 301.141 632.152 277.907C630.421 254.837 627.266 232.029 622.688 209.482C615.345 187.81 606.703 166.74 596.761 146.272C584.39 127.328 570.923 109.281 556.361 92.131C539.844 77.0358 522.5 63.0697 504.328 50.2335C484.795 39.8503 464.749 30.7531 444.189 22.941C422.931 17.8125 401.498 14.0416 379.892 11.628C358.282 11.9555 336.84 13.6253 315.567 16.6367C294.962 22.2734 274.85 29.1532 255.229 37.2758C236.9 47.7444 219.347 59.2803 202.573 71.8845C187.613 86.4142 173.661 101.773 160.716 117.961C149.981 135.546 140.415 153.674 132.017 172.348C126.078 191.811 121.392 211.506 117.956 231.434C117.067 251.511 117.433 271.5 119.054 291.404C123.146 310.817 128.415 329.838 134.863 348.468C143.553 366.022 153.273 382.91 164.023 399.132C176.649 413.772 190.095 427.522 204.36 440.381C220.064 451.289 236.334 461.14 253.17 469.933L251.416 473.29C234.404 464.404 217.965 454.449 202.101 443.424L202.003 443.356L201.914 443.276C187.467 430.259 173.853 416.338 161.074 401.514L160.996 401.423L160.93 401.324C150.045 384.905 140.206 367.809 131.414 350.039L131.361 349.932L131.322 349.819C124.791 330.964 119.458 311.712 115.322 292.063L115.298 291.946L115.288 291.827C113.643 271.686 113.273 251.46 114.177 231.146L114.182 231.027L114.203 230.909C117.674 210.745 122.416 190.818 128.43 171.129L128.464 171.014L128.514 170.906C137.005 152.012 146.683 133.672 157.546 115.886L157.608 115.784L157.683 115.691C170.774 99.3121 184.887 83.776 200.021 69.0834L200.107 69.0001L200.203 68.9283C217.165 56.1766 234.916 44.5097 253.455 33.9274L253.558 33.868L253.669 33.8222C273.508 25.6036 293.845 18.6471 314.681 12.9524L314.796 12.9209L314.914 12.9046C336.426 9.85419 358.107 8.1661 379.957 7.84003L380.076 7.83762L380.195 7.85076C402.04 10.2859 423.706 14.0984 445.194 19.2875L445.31 19.3158L445.422 19.3577C466.207 27.2499 486.47 36.4462 506.211 46.9456L506.316 47.0017L506.413 47.0705C524.783 60.0397 542.313 74.1537 559.001 89.4122L559.089 89.4926L559.166 89.5835C573.888 106.914 587.499 125.154 599.998 144.303L600.063 144.403L600.115 144.51C610.165 165.191 618.898 186.481 626.313 208.38L626.351 208.493L626.375 208.61C631.006 231.392 634.193 254.437 635.937 277.746L635.946 277.865L635.94 277.984C634.736 301.455 632.054 324.819 627.891 348.077L627.869 348.195L627.833 348.309C620.745 370.982 612.236 393.178 602.304 414.896L602.255 415.005L602.192 415.106C589.941 434.876 576.497 453.872 561.861 472.093L560.441 473.853L560.365 473.946L560.28 474.028C542.765 490.818 524.216 506.48 504.632 521.013L504.536 521.084L504.431 521.142C483.734 532.788 462.354 543.154 440.289 552.238L438.041 553.158L437.926 553.189C414.743 559.376 391.214 564.137 367.34 567.472L365.029 567.791L364.91 567.807L364.791 567.807C340.553 568.026 316.336 566.764 292.139 564.02L289.798 563.75L289.68 563.736L289.564 563.707C265.03 557.633 240.916 550.02 217.223 540.868L217.112 540.825L217.006 540.769C194.536 528.655 172.864 515.141 151.991 500.229L151.893 500.159L151.806 500.078C132.875 482.577 115.077 463.908 98.4127 444.072L98.3363 443.981L98.2712 443.88C84.159 422.002 71.4479 399.268 60.139 375.678L60.0875 375.57L60.05 375.457C51.7513 350.512 45.0386 325.084 39.9119 299.171L39.8887 299.054L39.8803 298.935C38.0376 272.456 37.8678 245.903 39.37 219.277L39.3765 219.158L39.3983 219.041C44.2535 192.688 50.7626 166.683 58.9251 141.028L58.9607 140.914L59.0108 140.806C70.382 116.262 83.2824 92.4748 97.7109 69.4452L97.7738 69.3444L97.8493 69.2517C115.134 48.1163 133.724 28.1055 153.616 9.21972L153.702 9.13767L153.798 9.06694C176.006 -7.24854 199.205 -22.1368 223.395 -35.5975L223.498 -35.6549L223.609 -35.6997C249.415 -46.0657 275.83 -54.7879 302.854 -61.8652L302.969 -61.8951L303.088 -61.9104C330.912 -65.5569 358.919 -67.4436 387.107 -67.5699L387.227 -67.5703L387.345 -67.5558C415.452 -64.1281 443.295 -58.9344 470.872 -51.9755L470.987 -51.9465L471.099 -51.903C497.703 -41.4918 523.605 -29.4219 548.803 -15.6939L548.907 -15.6372L549.004 -15.5673C572.383 1.28898 594.659 19.5891 615.831 39.3321L615.918 39.4132L615.994 39.5051C634.602 61.8469 651.769 85.3214 667.495 109.928L667.559 110.029L667.61 110.136C680.178 136.637 691.053 163.883 700.236 191.871L700.274 191.985L700.296 192.102C705.918 221.147 709.701 250.493 711.643 280.14L711.65 280.259L711.643 280.379C709.842 310.162 706.167 339.778 700.62 369.224L700.599 369.342L700.562 369.455C691.325 398.094 680.301 426.098 667.491 453.467L667.44 453.574L667.376 453.675Z" stroke="#F7CA4B" stroke-width="27"/>
</svg>
