<svg width="414" height="421" viewBox="0 0 414 421" fill="none" xmlns="http://www.w3.org/2000/svg">
<path d="M135.356 111.86C189.675 72.3955 265.702 84.437 305.167 138.756C344.632 193.075 332.59 269.102 278.271 308.567C223.953 348.032 147.925 335.99 108.46 281.672C68.9954 227.353 81.0369 151.325 135.356 111.86Z" fill="#5D2B8A" stroke="black" stroke-width="4"/>
<path d="M323.846 237.418L324.825 237.885L324.536 239.497L323.163 241.49L321.531 247.52L318.079 258.312L313.212 268.255L307.483 277.636L286.272 267.502C296.722 253.344 299.757 244.995 303.119 228.321L323.846 237.418Z" fill="#FDF07E" stroke="#FDF07E" stroke-width="4" stroke-linejoin="round"/>
<path d="M325.338 237.813L302.809 227.913C299.743 244.719 296.758 253.09 286.006 267.114L309.087 278.081" stroke="#FDF07E" stroke-width="4" stroke-linejoin="round"/>
<path d="M291.511 122.926L292.481 122.256L293.761 123.292L294.768 125.501L299.242 129.88L306.95 138.202L313.099 147.41L318.259 157.134L297.22 171.64C290.451 155.316 284.694 148.545 271.673 137.487L291.511 122.926Z" fill="#FDF07E" stroke="#FDF07E" stroke-width="4" stroke-linejoin="round"/>
<path d="M291.01 122.977L271.173 137.538C284.193 148.597 289.95 155.367 296.72 171.691L317.758 157.185" stroke="#FDF07E" stroke-width="4" stroke-linejoin="round"/>
<path d="M97.4363 263.102L96.4995 263.818L97.0895 265.355L98.8786 266.996L101.661 272.604L107.194 282.506L114.051 291.199L121.704 299.111L142.002 283.585C128.569 272.103 123.908 264.536 117.415 248.735L97.4363 263.102Z" fill="#FDF07E"/>
<path d="M97.6402 262.644L117.619 248.277C124.112 264.078 128.773 271.645 142.205 283.127L121.908 298.653" stroke="#FDF07E" stroke-width="4" stroke-linejoin="round"/>
<path d="M196.705 331.684L196.857 332.853L198.483 333.111L200.798 332.382L207.046 332.776L218.388 332.936L229.345 331.344L240.024 328.672L236.727 303.331C220.067 309.223 211.183 309.476 194.252 307.199L196.705 331.684Z" fill="#FDF07E"/>
<path d="M196.408 331.277L193.955 306.791C210.886 309.068 219.77 308.816 236.43 302.924L239.727 328.265" stroke="#FDF07E" stroke-width="4" stroke-linejoin="round"/>
<path d="M217.041 88.2232L216.889 87.054L215.263 86.7964L212.948 87.5255L206.7 87.1313L195.358 86.9717L184.401 88.5633L173.722 91.2353L177.019 116.576C193.679 110.684 202.563 110.432 219.494 112.709L217.041 88.2232Z" fill="#FDF07E" stroke="#FDF07E" stroke-width="4" stroke-linejoin="round"/>
<path d="M217.334 88.6328L219.787 113.118C202.856 110.842 193.973 111.094 177.312 116.986L174.015 91.6449" stroke="#FDF07E" stroke-width="4" stroke-linejoin="round"/>
<path d="M88.315 181.949L87.2498 181.444L87.5074 179.818L88.9163 177.841L90.4721 171.777L93.8251 160.941L98.7247 151.012L104.566 141.681L127.648 152.648C116.896 166.672 113.911 175.043 110.844 191.849L88.315 181.949Z" fill="#FDF07E" stroke="#FDF07E" stroke-width="4" stroke-linejoin="round"/>
<path d="M88.6129 182.354L111.142 192.253C114.208 175.448 117.193 167.077 127.946 153.053L104.864 142.086" stroke="#FDF07E" stroke-width="4" stroke-linejoin="round"/>
<path d="M123.947 120.775L138.211 140.407C145.493 132.178 150.653 128.477 161.623 123.398L147.359 103.765" stroke="#FDF07E" stroke-width="2" stroke-linejoin="round"/>
<ellipse cx="260.035" cy="298.178" rx="2.49471" ry="2.49471" transform="rotate(-36 260.035 298.178)" fill="#FDF07E"/>
<ellipse cx="274.028" cy="288.01" rx="2.49471" ry="2.49471" transform="rotate(-36 274.028 288.01)" fill="#FDF07E"/>
<ellipse cx="264.531" cy="304.368" rx="2.49471" ry="2.49471" transform="rotate(-36 264.531 304.368)" fill="#FDF07E"/>
<ellipse cx="278.52" cy="294.2" rx="2.49471" ry="2.49471" transform="rotate(-36 278.52 294.2)" fill="#FDF07E"/>
<ellipse cx="269.028" cy="310.556" rx="2.49471" ry="2.49471" transform="rotate(-36 269.028 310.556)" fill="#FDF07E"/>
<ellipse cx="283.016" cy="300.39" rx="2.49471" ry="2.49471" transform="rotate(-36 283.016 300.39)" fill="#FDF07E"/>
<path d="M266.262 316.659L251.998 297.026C262.075 292.643 267.189 288.88 275.41 280.016L289.674 299.649" stroke="#FDF07E" stroke-width="2" stroke-linejoin="round"/>
<ellipse cx="155.999" cy="301.704" rx="2.49471" ry="2.49471" transform="rotate(24 155.999 301.704)" fill="#FDF07E"/>
<ellipse cx="168.03" cy="306.944" rx="2.49471" ry="2.49471" transform="rotate(24 168.03 306.944)" fill="#FDF07E"/>
<ellipse cx="150.983" cy="312.341" rx="2.49471" ry="2.49471" transform="rotate(24 150.983 312.341)" fill="#FDF07E"/>
<ellipse cx="164.874" cy="317.874" rx="2.49471" ry="2.49471" transform="rotate(24 164.874 317.874)" fill="#FDF07E"/>
<ellipse cx="103.903" cy="214.154" rx="2.49471" ry="2.49471" transform="rotate(84 103.903 214.154)" fill="#FDF07E"/>
<ellipse cx="97.8364" cy="223.432" rx="2.49471" ry="2.49471" transform="rotate(84 97.8364 223.432)" fill="#FDF07E"/>
<ellipse cx="105.239" cy="231.273" rx="2.49471" ry="2.49471" transform="rotate(84 105.239 231.273)" fill="#FDF07E"/>
<ellipse cx="89.852" cy="215.634" rx="2.49471" ry="2.49471" transform="rotate(84 89.852 215.634)" fill="#FDF07E"/>
<ellipse cx="91.6528" cy="232.839" rx="2.49471" ry="2.49471" transform="rotate(84 91.6528 232.839)" fill="#FDF07E"/>
<ellipse cx="258.88" cy="121.298" rx="2.49471" ry="2.49471" transform="rotate(-156 258.88 121.298)" fill="#FDF07E"/>
<ellipse cx="253.572" cy="111.171" rx="2.49471" ry="2.49471" transform="rotate(-156 253.572 111.171)" fill="#FDF07E"/>
<ellipse cx="247.802" cy="100.969" rx="2.49471" ry="2.49471" transform="rotate(-156 247.802 100.969)" fill="#FDF07E"/>
<path d="M270.832 106.387L260.962 128.556C252.128 122.02 246.312 119.474 234.525 116.786L244.395 94.6167" stroke="#FDF07E" stroke-width="2" stroke-linejoin="round"/>
<path d="M88.3418 238.977L112.476 236.44C108.99 226.019 108.365 219.701 109.451 207.66L85.3169 210.197" stroke="#FDF07E" stroke-width="2" stroke-linejoin="round"/>
<ellipse cx="309.826" cy="205.571" rx="2.49471" ry="2.49471" transform="rotate(-96 309.826 205.571)" fill="#FDF07E"/>
<ellipse cx="321.673" cy="187.157" rx="2.49471" ry="2.49471" transform="rotate(-96 321.673 187.157)" fill="#FDF07E"/>
<path d="M328.352 209.612L304.217 212.148C305.461 201.23 304.758 194.92 301.192 183.368L325.327 180.832" stroke="#FDF07E" stroke-width="2" stroke-linejoin="round"/>
<path d="M168.732 325.579L178.603 303.41C167.835 301.218 162.05 298.6 152.166 291.639L142.296 313.809" stroke="#FDF07E" stroke-width="2" stroke-linejoin="round"/>
<ellipse cx="2.49471" cy="2.49471" rx="2.49471" ry="2.49471" transform="matrix(0.809017 -0.587786 -0.587785 -0.809017 141.936 125.162)" fill="#FDF07E"/>
<ellipse cx="206.679" cy="210.102" rx="123.433" ry="123.433" transform="rotate(-36 206.679 210.102)" stroke="#B6370D" stroke-width="8"/>
<path d="M178.348 192.555C185.078 188.535 189.491 190.611 196.304 194.289C194.474 187.117 195.154 181.821 200.562 176.416C202.187 174.716 206.411 172.004 208.753 170.738C225.945 163.25 237.809 173.563 243.519 188.451C245.492 197.79 243.177 203.054 241.474 209.37C238.724 216.324 237.448 220.223 235.8 227.178C233.323 236.316 234.737 241.264 236.782 250.003C230.461 245.262 226.051 242.762 215.376 242.017C208.177 241.373 204.122 241.392 196.866 241.78C188.263 241.754 183.407 241.04 176.346 237.255C170.393 234.566 154.648 214.657 169.016 199.335C169.726 198.022 176.64 193.021 178.348 192.555Z" fill="#FDF07E"/>
</svg>
