<svg width="449" height="562" viewBox="0 0 449 562" fill="none" xmlns="http://www.w3.org/2000/svg">
<ellipse cx="223.784" cy="281.358" rx="218.973" ry="218.953" fill="#5D2B8A"/>
<path d="M366.274 447.571L367.339 449.516L365.299 451.619L361.194 452.939L352.704 460.11L336.684 472.278L319.294 481.367L301.118 488.513L278.06 446.346C308.306 437.829 321.267 428.874 342.948 407.598L366.274 447.571Z" fill="#FDF07E"/>
<path d="M441.953 244.698L444.311 244.748L445.163 247.568L444.197 251.787L446.288 262.735L448.977 282.71L448.101 302.331L445.019 321.661L393.916 320.544C402.154 290.066 400.798 274.35 392.729 244.91L441.953 244.698Z" fill="#FDF07E"/>
<path d="M6.90032 243.711L4.58395 243.761L3.74648 246.545L4.69587 250.71L2.64174 261.517L-1.27905e-06 281.236L0.859877 300.605L3.8886 319.688L54.0946 318.584C46.0008 288.498 47.333 272.983 55.2611 243.921L6.90032 243.711Z" fill="#FDF07E"/>
<path d="M81.63 446.949L80.5745 448.878L82.6176 450.975L86.7188 452.302L95.2169 459.459L111.248 471.609L128.634 480.703L146.799 487.871L169.657 446.049C139.443 437.477 126.476 428.531 104.764 407.309L81.63 446.949Z" fill="#FDF07E"/>
<path d="M368.599 111.8L369.747 109.709L367.738 107.554L363.598 106.293L355.183 98.9929L339.258 86.6596L321.837 77.6246L303.551 70.6681L278.676 115.983C309.214 123.993 322.128 133.031 343.522 154.805L368.599 111.8Z" fill="#FDF07E"/>
<path d="M80.984 113.337L79.87 111.307L81.8919 109.173L86.0171 107.887L94.4633 100.641L110.427 88.3756L127.836 79.3185L146.076 72.2837L170.203 116.301C139.785 124.52 126.851 133.524 105.339 155.093L80.984 113.337Z" fill="#FDF07E"/>
<path d="M198.344 60.1815V109.517C217.368 104.683 228.626 104.762 249.658 109.517V60.1815" stroke="#FDF07E" stroke-width="3" stroke-linejoin="round"/>
<ellipse cx="208.458" cy="462.887" rx="4.42073" ry="4.42032" fill="#FDF07E"/>
<ellipse cx="239.106" cy="462.887" rx="4.42073" ry="4.42032" fill="#FDF07E"/>
<ellipse cx="208.458" cy="476.443" rx="4.42073" ry="4.42032" fill="#FDF07E"/>
<ellipse cx="239.106" cy="476.443" rx="4.42073" ry="4.42032" fill="#FDF07E"/>
<ellipse cx="208.458" cy="489.998" rx="4.42073" ry="4.42032" fill="#FDF07E"/>
<ellipse cx="239.106" cy="489.998" rx="4.42073" ry="4.42032" fill="#FDF07E"/>
<path d="M198.324 500.257L198.324 452.895C217.348 457.535 228.606 457.46 249.638 452.895L249.638 500.257" stroke="#FDF07E" stroke-width="3" stroke-linejoin="round"/>
<ellipse cx="4.42042" cy="4.42062" rx="4.42042" ry="4.42062" transform="matrix(0.500035 0.866005 -0.866046 0.499965 57.2578 353.558)" fill="#FDF07E"/>
<ellipse cx="4.42042" cy="4.42062" rx="4.42042" ry="4.42062" transform="matrix(0.500035 0.866005 -0.866046 0.499965 69.0449 373.597)" fill="#FDF07E"/>
<ellipse cx="4.42042" cy="4.42062" rx="4.42042" ry="4.42062" transform="matrix(0.500035 0.866005 -0.866046 0.499965 38.9844 363.577)" fill="#FDF07E"/>
<ellipse cx="4.42042" cy="4.42062" rx="4.42042" ry="4.42062" transform="matrix(0.500035 0.866005 -0.866046 0.499965 53.1309 385.974)" fill="#FDF07E"/>
<ellipse cx="4.42042" cy="4.42062" rx="4.42042" ry="4.42062" transform="matrix(-0.500035 0.866005 -0.866045 -0.499965 78.1855 178.217)" fill="#FDF07E"/>
<ellipse cx="4.42042" cy="4.42062" rx="4.42042" ry="4.42062" transform="matrix(-0.500035 0.866005 -0.866045 -0.499965 59.8262 185.198)" fill="#FDF07E"/>
<ellipse cx="4.42042" cy="4.42062" rx="4.42042" ry="4.42062" transform="matrix(-0.500035 0.866005 -0.866045 -0.499965 62.2715 204.15)" fill="#FDF07E"/>
<ellipse cx="4.42042" cy="4.42062" rx="4.42042" ry="4.42062" transform="matrix(-0.500035 0.866005 -0.866045 -0.499965 56.4922 165.704)" fill="#FDF07E"/>
<ellipse cx="4.42042" cy="4.42062" rx="4.42042" ry="4.42062" transform="matrix(-0.500035 0.866005 -0.866045 -0.499965 41.168 192.245)" fill="#FDF07E"/>
<ellipse cx="4.42042" cy="4.42062" rx="4.42042" ry="4.42062" transform="matrix(-0.500035 -0.866005 0.866046 -0.499965 389.412 214.164)" fill="#FDF07E"/>
<ellipse cx="4.42042" cy="4.42062" rx="4.42042" ry="4.42062" transform="matrix(-0.500035 -0.866005 0.866046 -0.499965 392.359 194.125)" fill="#FDF07E"/>
<ellipse cx="4.42042" cy="4.42062" rx="4.42042" ry="4.42062" transform="matrix(-0.500035 -0.866005 0.866046 -0.499965 394.719 173.496)" fill="#FDF07E"/>
<path d="M428.482 196.442L386.449 220.708C381.061 201.867 375.369 192.164 360.809 176.302L402.842 152.036" stroke="#FDF07E" stroke-width="3" stroke-linejoin="round"/>
<path d="M18.8047 196.223L61.2211 220.709C66.5709 201.847 72.2642 192.144 86.8613 176.303L44.4449 151.817" stroke="#FDF07E" stroke-width="3" stroke-linejoin="round"/>
<ellipse cx="4.42042" cy="4.42062" rx="4.42042" ry="4.42062" transform="matrix(0.500035 -0.866005 0.866046 0.499965 370.256 383.609)" fill="#FDF07E"/>
<ellipse cx="4.42042" cy="4.42062" rx="4.42042" ry="4.42062" transform="matrix(0.500035 -0.866005 0.866046 0.499965 406.422 369.558)" fill="#FDF07E"/>
<path d="M403.219 409.721L361.411 385.585C375.013 371.487 380.571 361.706 387.051 341.179L428.859 365.315" stroke="#FDF07E" stroke-width="3" stroke-linejoin="round"/>
<path d="M44.1738 409.891L86.2769 385.585C72.6459 371.503 67.0878 361.722 60.6367 341.179L18.5336 365.484" stroke="#FDF07E" stroke-width="3" stroke-linejoin="round"/>
<ellipse cx="4.42073" cy="4.42032" rx="4.42073" ry="4.42032" transform="matrix(1 0 0 -1 219.363 91.8738)" fill="#FDF07E"/>
<path d="M201.465 221.476C214.21 222.627 218.046 229.617 223.514 241.037C227.979 229.785 233.959 223.429 246.286 221.476C250.064 220.79 258.244 221.262 262.552 221.838C292.44 228.458 298.214 253.516 291.469 278.711C285.114 292.969 277.006 297.708 268.697 304.43C258.393 310.99 252.967 314.922 244.118 322.542C232.079 332.255 229.198 340.164 223.514 353.695C219.715 341.343 216.29 333.795 202.907 322.542C194.017 314.768 188.645 310.894 178.689 304.43C167.353 296.125 161.626 290.51 155.932 278.711C150.65 269.427 148.96 227.939 182.635 221.476C184.834 220.421 198.762 220.45 201.465 221.476Z" fill="#FDF07E"/>
<path d="M201.465 221.476C214.21 222.627 218.046 229.617 223.514 241.037C227.979 229.785 233.959 223.429 246.286 221.476C250.064 220.79 258.244 221.262 262.552 221.838C292.44 228.458 298.214 253.516 291.469 278.711C285.114 292.969 277.006 297.708 268.697 304.43C258.393 310.99 252.967 314.922 244.118 322.542C232.079 332.255 229.198 340.164 223.514 353.695C219.715 341.343 216.29 333.795 202.907 322.542C194.017 314.768 188.645 310.894 178.689 304.43C167.353 296.125 161.626 290.51 155.932 278.711C150.65 269.427 148.96 227.939 182.635 221.476C184.834 220.421 198.762 220.45 201.465 221.476Z" fill="#FDF07E"/>
</svg>
