<svg width="472" height="469" viewBox="0 0 472 469" fill="none" xmlns="http://www.w3.org/2000/svg">
<path d="M244.745 456.502C130.781 468.743 18.579 359.122 11.4627 242.173C8.06365 91.9126 131.302 0.386299 252.827 12.8221C394.156 27.2845 454.384 117.259 460.356 231.188C466.327 345.117 364.675 455.591 244.745 456.502Z" fill="#5D2B8A"/>
<path d="M200.398 231.231C238.715 236.617 265.412 272.049 260.027 310.372C254.642 348.695 219.215 375.394 180.898 370.008C142.581 364.622 115.883 329.19 121.267 290.867C126.652 252.544 162.081 225.845 200.398 231.231Z" fill="#FDF07E" stroke="#5D2B8A" stroke-width="10"/>
<path d="M190.21 254.832C215.722 254.832 236.404 275.513 236.404 301.026C236.404 326.538 215.722 347.22 190.21 347.22C164.698 347.22 144.016 326.538 144.016 301.026C144.016 275.513 164.698 254.832 190.21 254.832Z" stroke="#5D2B8A" stroke-width="10"/>
<path d="M215.06 300.424C204.872 312.491 199.46 319.822 190.316 333.75C182.185 320.194 175.975 313.015 166.074 300.424C176.526 287.615 181.944 280.343 190.316 267.097C198.998 280.923 204.457 288.189 215.06 300.424Z" fill="#5D2B8A"/>
</svg>
