<svg width="814" height="810" viewBox="0 0 814 810" fill="none" xmlns="http://www.w3.org/2000/svg">
<path d="M796.479 405C796.479 621.166 622.547 796.403 407.99 796.403C193.433 796.403 19.5 621.166 19.5 405C19.5 188.834 193.433 13.5972 407.99 13.5972C622.547 13.5972 796.479 188.834 796.479 405Z" fill="#F7CA4B"/>
<path d="M407.544 403.636L17.2717 310.827L35.2714 253.637L62.5426 196.364L97.9988 148.637L141.358 103.552L407.544 403.636Z" fill="#A50000"/>
<path d="M17.2712 310.827L35.2712 253.636L62.5428 196.364L97.9989 148.637L141.359 103.552L407.544 403.636L17.2712 310.827ZM140.952 123.761L108.488 157.517L74.3517 203.468L48.0661 258.671L34.7784 300.892L368.46 380.243L140.952 123.761Z" fill="#B6370D"/>
<path d="M407.989 404.029L518.709 15.4965L464.032 5.64239L407.989 2.91372L358.78 5.64239L297.27 15.4965L407.989 404.029Z" fill="#A50000"/>
<path d="M518.709 15.4965L464.033 5.6431L407.989 2.91373L358.78 5.6431L297.27 15.4965L407.989 404.029L518.709 15.4965ZM314.727 26.5989L360.25 19.306L408.039 16.6562L462.467 19.306L501.333 26.3103L407.989 353.869L314.727 26.5989Z" fill="#B6370D"/>
<path d="M407.989 404.029L518.709 795.156L465.398 804.938L407.988 809.029L351.945 804.938L297.27 795.156L407.989 404.029Z" fill="#A50000"/>
<path d="M518.709 795.156L465.398 804.938L407.987 809.029L351.945 804.938L297.27 795.156L407.989 404.029L518.709 795.156ZM314.621 784.326L353.665 791.311L407.999 795.276L463.657 791.311L501.374 784.39L407.989 454.497L314.621 784.326Z" fill="#B6370D"/>
<path d="M407.547 403.637L797.547 302.728L778.456 249.547L750.482 198.116L718.456 150.001L678.911 109.092L407.547 403.637Z" fill="#A50000"/>
<path d="M797.547 302.728L778.456 249.546L750.482 198.116L718.456 150.001L678.911 109.092L407.547 403.637L797.547 302.728ZM679.15 129.074L707.728 158.638L738.721 205.2L765.904 255.177L779.559 293.214L449.17 378.699L679.15 129.074Z" fill="#B6370D"/>
<path d="M407.547 403.638L19.0727 503.138L23.0003 529.093L33.9094 555.002L62.5458 608.184L96.6367 661.366L137.342 699.972L407.547 403.638Z" fill="#A50000"/>
<path d="M19.0724 503.138L23 529.093L33.9091 555.002L62.5461 608.184L96.6365 661.365L137.342 699.972L407.547 403.638L19.0724 503.138ZM136.632 680.395L107.286 652.562L74.3789 601.227L46.295 549.073L36.3069 525.351L34.4904 513.348L366.486 428.314L136.632 680.395Z" fill="#B6370D"/>
<path d="M407.548 403.637L798.911 504.546L778.457 563.183L755.275 610.91L723.911 654.546L681.639 702.274L407.548 403.637Z" fill="#A50000"/>
<path d="M798.911 504.546L778.456 563.182L755.275 610.91L723.911 654.547L681.638 702.273L407.548 403.638L798.911 504.546ZM681.456 681.792L713.185 645.969L743.448 603.864L765.768 557.911L781.05 514.105L448.965 428.481L681.456 681.792Z" fill="#B6370D"/>
<path d="M794.702 405C794.702 191.425 621.564 18.2877 407.989 18.2876C194.413 18.2876 21.276 191.425 21.276 405C21.276 618.575 194.413 791.712 407.989 791.712V810L405.37 809.992C183.772 808.589 4.39964 629.217 2.99632 407.619L2.98828 405C2.98828 181.325 184.313 0 407.989 0L410.608 0.00803656C633.078 1.41689 812.989 182.198 812.989 405L812.981 407.619C811.572 630.089 630.791 810 407.989 810V791.712C621.564 791.712 794.702 618.575 794.702 405Z" fill="#B6370D"/>
<path d="M595.415 518.235C533.398 621.448 400.036 655.194 297.542 593.61C195.048 532.025 162.235 398.431 224.252 295.218C286.268 192.005 419.631 158.258 522.124 219.842C624.618 281.427 657.431 415.022 595.415 518.235Z" fill="#F7CA4B"/>
<path d="M410.224 406.074L250.491 249.779L275.495 227.634L304.951 208.109L335.576 195.492L369.217 186.404L410.224 406.074Z" fill="#A50000"/>
<path d="M250.491 249.779L275.495 227.633L304.95 208.109L335.576 195.492L369.217 186.404L410.224 406.074L250.491 249.779ZM358.46 203.517L339.993 208.506L311.414 220.281L283.876 238.533L270.614 250.279L388.772 365.893L358.46 203.517Z" fill="#B6370D"/>
<path d="M410.221 406.076L574.387 252.331L551.166 231.978L525.251 214.634L501.026 201.851L468.898 188.947L410.221 406.076Z" fill="#A50000"/>
<path d="M574.387 252.331L551.166 231.977L525.251 214.634L501.026 201.85L468.898 188.947L410.221 406.076L574.387 252.331ZM478.111 207.429L495.249 214.312L518.212 226.428L542.794 242.88L553.962 252.668L436.041 363.103L478.111 207.429Z" fill="#B6370D"/>
<path d="M410.221 406.076L350.742 624.539L322.539 613.95L294.016 599.471L268.492 581.476L245.253 561.155L410.221 406.076Z" fill="#A50000"/>
<path d="M350.742 624.539L322.539 613.95L294.017 599.47L268.493 581.476L245.253 561.155L410.221 406.076L350.742 624.539ZM265.669 560.787L276.982 570.679L301.109 587.688L328.067 601.374L341.464 606.404L384.228 449.335L265.669 560.787Z" fill="#B6370D"/>
<path d="M409.932 406.482L624.811 470.072L630.945 439.259L632.342 406.737L630.856 374.634L623.72 343.813L409.932 406.482Z" fill="#A50000"/>
<path d="M624.811 470.072L630.945 439.259L632.342 406.737L630.856 374.634L623.719 343.813L409.932 406.482L624.811 470.072ZM613.648 361.03L617.232 376.508L618.631 406.762L617.306 437.618L614.306 452.686L458.385 406.543L613.648 361.03Z" fill="#B6370D"/>
<path d="M409.932 406.442L195.929 342.842L190.358 356.289L188.134 371.707L186.55 405.136L187.57 440.121L195.929 470.072L409.932 406.442Z" fill="#A50000"/>
<path d="M195.928 342.842L190.359 356.288L188.135 371.706L186.55 405.135L187.57 440.121L195.928 470.072L409.932 406.442L195.928 342.842ZM205.401 453.019L201.229 438.068L200.272 405.255L201.802 372.998L203.689 359.913L203.884 359.443L362.038 406.445L205.401 453.019Z" fill="#B6370D"/>
<path d="M410.223 406.075L568.153 566.552L541.562 588.683L516.798 604.823L489.301 616.661L455.421 627.323L410.223 406.075Z" fill="#A50000"/>
<path d="M568.153 566.552L541.562 588.684L516.798 604.823L489.301 616.661L455.421 627.322L410.223 406.075L568.153 566.552ZM465.814 609.673L484.518 603.788L510.294 592.689L533.4 577.631L547.92 565.547L432.931 448.703L465.814 609.673Z" fill="#B6370D"/>
<path d="M591.47 515.865C651.745 415.549 619.286 285.363 518.97 225.087C418.654 164.811 288.468 197.27 228.192 297.586C167.916 397.902 200.375 528.088 300.691 588.365L293.627 600.121L292.379 599.365C186.549 534.861 152.508 396.914 216.435 290.522C280.613 183.713 419.225 149.153 526.034 213.331C632.844 277.508 667.404 416.12 603.226 522.929C539.049 629.738 400.436 664.299 293.627 600.121L300.691 588.365C401.007 648.641 531.193 616.181 591.47 515.865Z" fill="#B6370D"/>
<path d="M462.959 438.911C444.831 469.082 405.847 478.946 375.887 460.944C345.926 442.942 336.334 403.89 354.463 373.719C372.591 343.549 411.575 333.684 441.535 351.686C471.496 369.688 481.088 408.74 462.959 438.911Z" fill="#F7CA4B"/>
<path d="M451.203 431.846C465.476 408.091 457.861 377.497 434.471 363.443C411.081 349.389 380.493 357.028 366.22 380.783C351.946 404.539 359.561 435.133 382.951 449.188L375.887 460.944L375.188 460.518C345.778 442.332 336.476 403.654 354.463 373.719C372.591 343.549 411.575 333.684 441.536 351.686L442.234 352.112C471.644 370.298 480.946 408.975 462.96 438.911L462.531 439.614C444.222 469.234 405.613 478.806 375.887 460.944L382.951 449.188C406.341 463.242 436.929 455.602 451.203 431.846Z" fill="#B6370D"/>
<path d="M397.19 712.464L386.621 700.08L403.767 681.799H422.556V760.468H397.19V712.464ZM411.165 751.032V691.234H407.877L398.834 700.906L400.596 702.911L408.112 695.245V751.032H411.165Z" fill="#F7CA4B"/>
<path d="M395.2 94.1466C393.562 97.2676 392.508 99.6085 392.04 101.169C391.572 102.73 391.338 104.212 391.338 105.617C391.338 110.844 394.537 113.458 400.935 113.458C401.56 113.458 402.145 113.419 402.691 113.341C403.237 113.341 403.744 113.302 404.213 113.224C404.603 113.146 405.11 113.107 405.734 113.107V134.76C404.642 134.994 403.666 135.189 402.808 135.345C401.95 135.501 401.13 135.618 400.35 135.696C399.492 135.774 398.634 135.813 397.775 135.813C396.839 135.891 395.786 135.93 394.615 135.93C390.87 135.93 387.203 135.501 383.613 134.643C379.946 133.862 376.669 132.536 373.782 130.663C370.895 128.791 368.554 126.294 366.759 123.173C364.965 120.052 364.067 116.228 364.067 111.703C364.067 109.596 364.302 107.489 364.77 105.382C365.238 103.354 365.979 101.13 366.993 98.7111C367.93 96.2923 369.178 93.5613 370.739 90.5183C372.221 87.5532 373.977 84.081 376.006 80.1016L377.527 77.1756H362.78L369.451 56.6934H414.863L395.2 94.1466ZM375.772 66.0567L374.718 68.8657H393.913L380.687 93.9125C379.283 96.6434 378.151 99.2964 377.293 101.871C376.357 104.446 375.889 107.06 375.889 109.713C375.889 114.863 377.566 118.764 380.921 121.417C384.199 124.07 388.451 125.396 393.679 125.396C393.913 125.396 394.147 125.357 394.381 125.279C394.537 125.279 394.693 125.279 394.849 125.279H395.2V122.47H394.849C394.693 122.47 394.537 122.47 394.381 122.47C394.147 122.548 393.913 122.588 393.679 122.588C389.231 122.588 385.681 121.456 383.028 119.193C380.297 117.009 378.932 113.809 378.932 109.596C378.932 107.411 379.322 105.109 380.102 102.691C380.882 100.35 381.975 97.8138 383.379 95.0829L398.712 66.0567H375.772Z" fill="#F7CA4B"/>
<path d="M441.363 104.328L451.896 116.617L434.808 134.758H416.082V56.692H441.363V104.328ZM427.435 66.0552V125.395H430.712L439.724 115.798L437.969 113.808L430.478 121.416V66.0552H427.435Z" fill="#F7CA4B"/>
<path d="M655.657 194.778C667.679 189.172 678.043 187.395 686.749 189.448C695.455 191.501 701.902 197.018 706.09 205.999C710.277 214.98 710.36 223.465 706.337 231.454C702.313 239.443 694.291 246.24 682.269 251.846C670.247 257.452 659.883 259.228 651.177 257.175C642.472 255.122 636.025 249.605 631.837 240.624C627.649 231.643 627.567 223.158 631.59 215.169C635.613 207.181 643.636 200.383 655.657 194.778ZM661.544 207.4C663.948 206.279 666.734 205.238 669.902 204.278C672.999 203.35 676.101 202.894 679.208 202.909C682.281 202.853 685.196 203.474 687.954 204.771C690.607 206.03 692.692 208.286 694.209 211.539C695.759 214.863 696.163 217.946 695.423 220.788C694.611 223.663 693.212 226.296 691.227 228.685C689.209 231.004 686.849 233.051 684.148 234.827C681.375 236.637 678.787 238.102 676.383 239.223C673.978 240.344 671.228 241.369 668.13 242.296C664.962 243.257 661.842 243.765 658.768 243.821C655.662 243.806 652.782 243.169 650.128 241.909C647.404 240.683 645.267 238.408 643.717 235.084C642.2 231.831 641.848 228.767 642.659 225.892C643.367 222.979 644.73 220.363 646.749 218.045C648.734 215.655 651.113 213.556 653.885 211.747C656.586 209.97 659.139 208.522 661.544 207.4ZM677.669 241.981C680.851 240.497 683.972 238.697 687.032 236.582C689.988 234.428 692.48 232.018 694.508 229.351C696.536 226.683 697.837 223.752 698.414 220.556C698.99 217.36 698.437 213.959 696.755 210.352C695.073 206.746 692.823 204.136 690.005 202.523C687.186 200.91 684.104 200.023 680.757 199.862C677.41 199.7 673.978 200.095 670.462 201.047C666.841 201.96 663.44 203.159 660.258 204.642C657.075 206.126 654.006 207.945 651.05 210.098C647.99 212.214 645.446 214.605 643.418 217.273C641.391 219.94 640.089 222.872 639.513 226.068C638.937 229.263 639.49 232.665 641.171 236.271C642.853 239.878 645.103 242.487 647.922 244.1C650.74 245.713 653.823 246.601 657.169 246.762C660.516 246.923 664 246.547 667.62 245.634C671.137 244.682 674.487 243.465 677.669 241.981ZM665.798 216.523C654.695 221.7 650.199 226.552 652.309 231.078C654.42 235.603 661.026 235.278 672.129 230.101C683.231 224.923 687.727 220.072 685.617 215.546C683.507 211.02 676.9 211.346 665.798 216.523Z" fill="#F7CA4B"/>
<path d="M687.843 284.295L681.157 299.035L657.493 291.215L649.579 274.243L720.331 241.251L731.015 264.163L687.843 284.295ZM716.643 255.497L662.863 280.575L664.248 283.545L676.755 287.657L677.816 285.225L667.756 281.651L717.929 258.255L716.643 255.497Z" fill="#F7CA4B"/>
<path d="M690.152 585.087C691.707 585.984 693.317 586.238 694.983 585.849C696.621 585.353 697.889 584.328 698.786 582.774C699.683 581.219 699.918 579.643 699.489 578.044C699.032 576.339 698.027 575.037 696.473 574.14C694.918 573.243 693.322 573.042 691.685 573.538C690.018 573.927 688.736 574.899 687.839 576.453C686.942 578.008 686.722 579.637 687.179 581.343C687.607 582.942 688.598 584.19 690.152 585.087ZM666.591 568.781C667.537 569.327 668.543 569.457 669.609 569.172C670.675 568.886 671.481 568.27 672.027 567.324C672.573 566.378 672.703 565.372 672.418 564.306C672.132 563.24 671.516 562.434 670.57 561.888C669.624 561.342 668.618 561.212 667.552 561.497C666.487 561.783 665.68 562.399 665.134 563.345C664.588 564.291 664.458 565.297 664.743 566.363C665.029 567.429 665.645 568.235 666.591 568.781ZM684.008 595.73C686.238 597.017 688.567 597.821 690.994 598.142C693.461 598.395 695.848 598.241 698.153 597.68C700.431 597.013 702.574 595.953 704.584 594.5C706.527 593.009 708.141 591.148 709.429 588.918C710.716 586.688 711.52 584.359 711.841 581.932C712.094 579.465 711.92 577.112 711.321 574.874C710.692 572.529 709.632 570.385 708.141 568.443C706.688 566.433 704.847 564.785 702.617 563.497C699.779 561.859 697.102 561.034 694.586 561.022C692.069 561.011 689.847 561.35 687.918 562.038C685.669 562.812 683.573 563.945 681.631 565.436C681.676 564.11 681.484 562.648 681.055 561.049C680.674 559.838 680.016 558.557 679.084 557.208C678.19 555.791 676.865 554.575 675.108 553.561C673.486 552.625 671.824 552.07 670.121 551.898C668.351 551.687 666.647 551.83 665.009 552.326C663.371 552.822 661.839 553.604 660.411 554.671C659.023 555.672 657.86 556.983 656.924 558.605C655.988 560.226 655.414 561.922 655.203 563.693C655.031 565.395 655.139 567.08 655.529 568.746C655.918 570.412 656.647 571.959 657.715 573.387C658.715 574.775 660.026 575.938 661.648 576.874C663.405 577.888 665.101 578.462 666.736 578.595C668.41 578.661 669.867 578.556 671.107 578.281C672.706 577.852 674.068 577.287 675.194 576.586C674.873 579.014 674.94 581.395 675.394 583.729C675.763 585.744 676.581 587.838 677.849 590.012C679.117 592.185 681.17 594.091 684.008 595.73ZM685.588 592.993C683.763 591.94 682.235 590.607 681.004 588.995C679.811 587.315 678.958 585.516 678.444 583.598C677.929 581.679 677.803 579.714 678.063 577.702C678.256 575.651 678.88 573.713 679.933 571.889C680.986 570.064 682.353 568.556 684.032 567.363C685.645 566.131 687.41 565.259 689.328 564.745C691.247 564.23 693.212 564.104 695.224 564.364C697.275 564.557 699.213 565.181 701.037 566.234C702.862 567.287 704.37 568.654 705.563 570.333C706.795 571.945 707.667 573.711 708.181 575.629C708.696 577.548 708.856 579.533 708.663 581.584C708.402 583.595 707.745 585.514 706.692 587.338C705.639 589.163 704.306 590.691 702.694 591.922C701.014 593.115 699.215 593.968 697.297 594.482C695.378 594.996 693.393 595.157 691.342 594.964C689.33 594.703 687.412 594.046 685.588 592.993ZM663.271 574.297C660.771 572.854 659.183 570.766 658.508 568.033C657.833 565.301 658.217 562.685 659.661 560.185C661.104 557.684 663.178 556.044 665.882 555.262C668.585 554.48 671.187 554.811 673.688 556.255C676.188 557.698 677.809 559.806 678.552 562.577C679.227 565.309 678.842 567.926 677.399 570.426C675.955 572.926 673.882 574.567 671.178 575.348C668.407 576.091 665.771 575.741 663.271 574.297ZM718.45 594.127C716.46 597.573 714.013 600.485 711.109 602.862C708.204 605.24 705.042 606.973 701.62 608.061C698.238 609.081 694.738 609.448 691.12 609.161C687.473 608.767 683.926 607.576 680.48 605.586C677.642 603.947 675.424 602.171 673.825 600.257C672.199 598.237 670.949 596.344 670.076 594.579C669.011 592.522 668.333 590.419 668.043 588.269C667.442 588.373 666.808 588.457 666.14 588.522C665.472 588.587 664.79 588.598 664.093 588.557C662.874 588.483 661.471 588.259 659.886 587.885C658.339 587.442 656.688 586.714 654.931 585.7C652.16 584.1 649.904 582.077 648.164 579.63C646.394 577.077 645.177 574.347 644.513 571.441C643.887 568.467 643.809 565.403 644.278 562.25C644.747 559.097 645.82 556.068 647.498 553.162C649.175 550.257 651.262 547.812 653.758 545.83C656.254 543.847 658.927 542.417 661.776 541.539C664.665 540.594 667.637 540.283 670.694 540.606C673.722 540.823 676.622 541.731 679.392 543.331C681.149 544.345 682.586 545.445 683.704 546.631C684.821 547.817 685.716 548.919 686.389 549.938C687.13 550.997 687.725 552.151 688.174 553.401C689.105 553.038 690.117 552.766 691.212 552.587C692.278 552.302 693.406 552.142 694.596 552.109C696.562 551.982 698.826 552.118 701.389 552.517C703.884 552.876 706.551 553.875 709.389 555.514C712.835 557.503 715.621 560.013 717.746 563.042C719.843 565.964 721.276 569.179 722.044 572.686C722.851 576.125 722.952 579.697 722.345 583.401C721.738 587.105 720.44 590.68 718.45 594.127Z" fill="#F7CA4B"/>
<path d="M107.133 561.819C110.059 566.887 113.195 570.212 116.541 571.794C119.887 573.376 123.081 573.289 126.121 571.534C128.216 570.324 129.594 568.808 130.253 566.986C130.952 565.231 131.151 563.314 130.852 561.234C130.659 559.183 130.078 557.086 129.111 554.941C128.25 552.826 127.292 550.856 126.239 549.031L163.062 543.989L178.921 571.458L159.966 582.401L152.651 569.731C152.532 571.242 152.306 572.723 151.974 574.177C151.681 575.697 151.247 577.209 150.673 578.712C149.707 581.252 148.224 583.91 146.223 586.687C144.29 589.425 141.499 591.847 137.85 593.954C132.849 596.841 127.973 598.305 123.221 598.345C118.469 598.386 113.955 597.433 109.678 595.488C105.508 593.571 101.639 590.849 98.0718 587.323C94.5717 583.757 91.5928 579.846 89.1349 575.589C88.5497 574.575 88.2324 573.948 88.1829 573.706C87.9879 573.368 87.8851 573.112 87.8746 572.938L107.133 561.819ZM100.033 574.568C101.203 576.595 102.862 578.61 105.01 580.614C107.158 582.617 109.614 584.218 112.377 585.415C115.248 586.641 118.342 587.242 121.662 587.218C125.02 587.261 128.423 586.287 131.869 584.298C135.451 582.23 137.98 579.823 139.459 577.078C141.004 574.293 141.965 571.666 142.341 569.197C142.842 566.475 142.805 563.523 142.229 560.342L157.202 558.184L164.458 570.753L166.891 569.349L158.698 555.158L138.938 557.917C139.773 560.769 140.105 563.685 139.935 566.667C139.733 569.126 138.946 571.743 137.574 574.517C136.27 577.252 133.861 579.634 130.348 581.662C126.834 583.691 123.533 584.606 120.444 584.407C117.395 584.275 114.643 583.566 112.189 582.28C109.774 581.062 107.725 579.542 106.043 577.72C104.36 575.898 103.168 574.379 102.466 573.163L100.033 574.568Z" fill="#F7CA4B"/>
<path d="M130.674 211.066C130.003 211.623 129.441 212.17 128.99 212.708C128.488 213.306 128.012 213.874 127.56 214.412C125.955 216.324 124.806 218.059 124.111 219.615C123.426 221.281 123.111 222.749 123.167 224.018C123.172 225.346 123.438 226.486 123.965 227.437C124.501 228.498 125.217 229.404 126.113 230.157C127.369 231.21 128.915 231.795 130.753 231.911C132.591 232.027 134.515 231.859 136.524 231.406C138.534 230.953 140.499 230.31 142.42 229.478C144.401 228.695 146.137 227.962 147.628 227.278C147.432 228.845 147.267 230.438 147.132 232.056C146.996 233.674 146.961 235.173 147.027 236.552C147.101 238.041 147.297 239.325 147.613 240.405C147.929 241.485 148.416 242.301 149.073 242.853C150.149 243.755 151.218 243.939 152.278 243.403C153.349 242.977 154.285 242.286 155.088 241.329C156.342 239.835 157.321 238.365 158.025 236.919L159.006 234.839L174.069 247.478L172.124 250.888C171.391 252.005 170.457 253.36 169.323 254.955C168.138 256.609 166.668 258.482 164.913 260.574C159.948 266.492 154.966 269.697 149.97 270.189C145.032 270.732 140.412 269.198 136.108 265.587C134.614 264.333 133.44 262.94 132.586 261.409C131.792 259.928 131.197 258.512 130.802 257.162C130.515 256.412 130.308 255.627 130.181 254.807C130.003 254.047 129.851 253.257 129.724 252.438C128.474 252.713 127.215 252.879 125.946 252.934C124.737 253.04 123.493 253.066 122.214 253.012C119.987 252.874 117.566 252.421 114.951 251.653C112.336 250.885 109.833 249.498 107.442 247.492C103.736 244.382 101.191 240.922 99.8049 237.111C98.4288 233.41 97.9524 229.547 98.3756 225.522C98.8587 221.547 100.111 217.506 102.133 213.396C104.165 209.397 106.71 205.574 109.77 201.928C110.271 201.331 110.873 200.613 111.575 199.776C112.227 198.999 113.035 198.098 113.997 197.072L130.674 211.066ZM114.926 210.533C112.97 212.864 111.493 215.291 110.495 217.816C109.447 220.4 108.924 222.965 108.926 225.513C108.877 228.12 109.368 230.569 110.399 232.861C111.44 235.262 113.096 237.416 115.367 239.321C118.117 241.629 121.144 242.998 124.45 243.428C127.755 243.859 132.013 243.459 137.222 242.228C137.458 246.195 137.993 249.139 138.825 251.06C139.667 253.091 140.866 254.758 142.42 256.062C144.93 258.169 147.645 258.817 150.565 258.008C153.495 257.309 156.013 255.704 158.119 253.193C158.621 252.596 159.043 252.033 159.384 251.504C159.785 251.026 160.106 250.583 160.348 250.174L161.146 248.858L159.174 247.203C158.873 247.561 158.627 247.915 158.436 248.264C158.245 248.613 157.924 249.057 157.472 249.595C157.081 250.183 156.609 250.806 156.057 251.463C154.302 253.555 152.364 254.832 150.245 255.295C148.125 255.757 146.109 255.186 144.196 253.581C142.463 252.126 141.296 250.179 140.695 247.739C140.153 245.35 139.864 242.357 139.826 238.76C137.176 239.49 134.787 240.032 132.657 240.384C130.478 240.796 128.524 240.94 126.796 240.814C125.018 240.748 123.381 240.393 121.885 239.748C120.338 239.164 118.818 238.244 117.324 236.99C115.351 235.335 113.914 233.467 113.012 231.386C112.119 229.415 111.687 227.32 111.714 225.103C111.802 222.935 112.303 220.759 113.22 218.574C114.137 216.389 115.422 214.311 117.078 212.338L117.529 211.8L115.377 209.995L114.926 210.533Z" fill="#F7CA4B"/>
<path d="M566.635 133.583C563.502 135.2 561.297 136.513 560.018 137.523C558.739 138.533 557.697 139.613 556.892 140.763C553.893 145.046 555.015 149.022 560.256 152.692C560.767 153.05 561.269 153.354 561.761 153.603C562.208 153.916 562.646 154.175 563.074 154.38C563.439 154.54 563.877 154.799 564.388 155.157L551.969 172.893C550.939 172.459 550.029 172.059 549.236 171.694C548.443 171.33 547.705 170.956 547.021 170.572C546.273 170.144 545.548 169.684 544.845 169.191C544.033 168.718 543.148 168.146 542.189 167.475C539.121 165.326 536.363 162.871 533.915 160.11C531.359 157.367 529.435 154.401 528.144 151.211C526.854 148.021 526.368 144.633 526.688 141.047C527.008 137.461 528.466 133.814 531.062 130.107C532.271 128.381 533.671 126.79 535.263 125.333C536.81 123.939 538.692 122.543 540.911 121.143C543.065 119.699 545.654 118.178 548.678 116.58C551.593 115.002 555.023 113.165 558.967 111.068L561.892 109.544L549.812 101.086L567.024 88.1342L604.224 114.181L566.635 133.583ZM566.831 99.4293L564.357 101.126L580.081 112.136L554.88 125.067C552.164 126.498 549.715 128.023 547.535 129.64C545.291 131.212 543.408 133.084 541.887 135.258C538.933 139.476 538.069 143.634 539.296 147.732C540.459 151.785 543.182 155.31 547.464 158.309C547.656 158.443 547.87 158.545 548.106 158.616C548.234 158.705 548.362 158.795 548.49 158.884L548.777 159.086L550.389 156.785L550.101 156.583C549.973 156.494 549.845 156.404 549.718 156.315C549.481 156.244 549.267 156.142 549.075 156.008C545.432 153.457 543.173 150.494 542.297 147.118C541.313 143.762 542.03 140.359 544.447 136.907C545.7 135.117 547.34 133.456 549.366 131.922C551.348 130.452 553.697 129.001 556.414 127.57L585.623 112.587L566.831 99.4293Z" fill="#A50000"/>
<path d="M690.615 403.73V384.338L735.696 384.338V379.748H757.48V384.338H768.313V408.09H757.48V434.137H748.161L690.615 403.73ZM758.994 395.468H748.161V390.419H745.365V395.468H699.934V396.845L748.161 422.318V398.451L758.994 398.451V395.468ZM709.253 398.451H745.365V417.499L709.253 398.451Z" fill="#A50000"/>
<path d="M98.6241 437.05C95.364 437.05 92.1427 436.66 88.9602 435.879C85.8553 435.176 82.828 434.239 79.8784 433.067C77.0064 431.896 74.2508 430.568 71.6116 429.084C68.9725 427.6 66.5274 426.077 64.2763 424.515C61.6372 422.719 59.0756 420.766 56.5917 418.658C54.1854 416.549 51.8568 414.362 49.6057 412.097L49.6057 383.746C50.4596 384.606 51.391 385.504 52.4001 386.441C53.4868 387.378 54.5735 388.354 55.6602 389.37C57.6008 391.01 59.8519 392.767 62.4134 394.641C65.0525 396.594 68.0022 398.468 71.2623 400.265C71.9609 396.75 73.1641 393.548 74.8717 390.658C76.6571 387.769 78.7917 385.269 81.2756 383.161C83.7595 381.13 86.5927 379.568 89.7752 378.475C92.9577 377.381 96.3343 376.834 99.9049 376.834C103.941 376.834 107.745 377.576 111.315 379.06C114.886 380.544 117.991 382.575 120.63 385.152C123.347 387.808 125.443 390.932 126.917 394.524C128.47 398.117 129.246 402.022 129.246 406.239C129.246 410.613 128.47 414.674 126.917 418.423C125.443 422.172 123.308 425.413 120.514 428.147C117.797 430.958 114.575 433.145 110.85 434.707C107.124 436.269 103.049 437.05 98.6241 437.05ZM118.418 406.942C118.418 404.287 117.913 401.788 116.904 399.445C115.895 397.102 114.537 395.071 112.829 393.353C111.121 391.635 109.103 390.268 106.774 389.253C104.446 388.237 101.962 387.73 99.3227 387.73C96.6836 387.73 94.1997 388.237 91.871 389.253C89.5423 390.268 87.5242 391.635 85.8165 393.353C84.1088 395.071 82.7504 397.102 81.7413 399.445C80.7322 401.788 80.2277 404.287 80.2277 406.942C80.2277 409.832 80.771 412.488 81.8577 414.909C83.0221 417.408 84.6133 419.556 86.6315 421.352C82.828 420.102 79.2186 418.462 75.8032 416.432C72.4655 414.401 69.5546 412.37 67.0707 410.34C65.5959 409.168 64.1599 407.958 62.7627 406.708C61.4431 405.537 60.1623 404.287 58.9204 402.959L58.9204 406.708C60.7057 408.504 62.5686 410.184 64.5092 411.746C66.5274 413.386 68.6232 414.948 70.7966 416.432C72.5819 417.603 74.5224 418.775 76.6182 419.946C78.714 421.118 80.8875 422.133 83.1385 422.992C85.4672 423.929 87.8346 424.671 90.2409 425.218C92.7248 425.843 95.2088 426.155 97.6927 426.155C100.953 426.155 103.864 425.648 106.425 424.632C108.987 423.617 111.16 422.211 112.945 420.415C114.731 418.697 116.089 416.666 117.021 414.323C117.952 412.058 118.418 409.598 118.418 406.942ZM99.3227 422.992C97.0717 422.992 94.9759 422.563 93.0353 421.703C91.1724 420.922 89.5035 419.79 88.0287 418.306C86.5539 416.822 85.3896 415.104 84.5357 413.151C83.7595 411.199 83.3714 409.129 83.3714 406.942C83.3714 404.677 83.7595 402.569 84.5357 400.616C85.3896 398.742 86.5539 397.063 88.0287 395.579C89.5035 394.095 91.1724 392.923 93.0353 392.064C94.9759 391.283 97.0717 390.893 99.3227 390.893C101.496 390.893 103.553 391.283 105.494 392.064C107.434 392.923 109.142 394.095 110.617 395.579C112.092 397.063 113.217 398.742 113.993 400.616C114.847 402.569 115.274 404.677 115.274 406.942C115.274 409.129 114.847 411.199 113.993 413.151C113.217 415.104 112.092 416.822 110.617 418.306C109.142 419.79 107.434 420.922 105.494 421.703C103.553 422.563 101.496 422.992 99.3227 422.992ZM99.2063 413.971C101.224 413.971 102.893 413.269 104.213 411.863C105.61 410.535 106.309 408.895 106.309 406.942C106.309 404.99 105.61 403.311 104.213 401.905C102.893 400.577 101.263 399.913 99.3227 399.913C97.3822 399.913 95.7133 400.577 94.3161 401.905C92.9965 403.311 92.3367 404.99 92.3367 406.942C92.3367 408.817 92.9965 410.457 94.3161 411.863C95.7133 413.269 97.3434 413.971 99.2063 413.971Z" fill="#A50000"/>
<path d="M540.329 707.877C538.69 705.039 537.395 702.093 536.442 699.039C535.451 695.917 534.74 692.813 534.31 689.728C533.841 686.575 533.605 683.513 533.601 680.542C533.559 677.503 533.648 674.614 533.868 671.874C534.419 665.338 535.557 658.96 537.281 652.739L561.81 638.577L560.047 646.758C559.603 649.267 559.18 652.124 558.778 655.329C558.444 658.495 558.319 661.946 558.403 665.682C561.795 664.534 565.19 664.016 568.588 664.127C571.946 664.17 575.128 664.765 578.134 665.913C581.206 667.022 584.016 668.689 586.561 670.913C589.107 673.138 591.277 675.804 593.072 678.912C595.139 682.494 596.429 686.209 596.939 690.059C597.411 693.841 597.181 697.578 596.249 701.269C595.345 704.854 593.73 708.22 591.401 711.366C589.034 714.444 586.026 717.037 582.377 719.144C578.593 721.329 574.675 722.735 570.623 723.363C566.599 723.884 562.722 723.645 558.991 722.645C555.221 721.578 551.725 719.813 548.5 717.349C545.276 714.886 542.552 711.729 540.329 707.877ZM576.327 710.068C578.624 708.742 580.533 707.054 582.053 705.005C583.573 702.957 584.647 700.76 585.276 698.415C585.904 696.07 586.072 693.63 585.78 691.096C585.488 688.561 584.679 686.145 583.352 683.848C582.026 681.55 580.338 679.642 578.289 678.122C576.241 676.602 574.044 675.527 571.699 674.899C569.354 674.271 566.914 674.103 564.38 674.395C561.845 674.686 559.429 675.496 557.132 676.822C554.632 678.266 552.593 680.118 551.016 682.38C549.467 684.536 548.423 686.941 547.883 689.595C547.053 685.66 546.677 681.732 546.757 677.812C546.797 673.824 547.071 670.242 547.58 667.066C547.852 665.196 548.163 663.395 548.514 661.661C548.893 659.82 549.344 658.028 549.869 656.283L546.625 658.156C545.255 663.272 544.44 668.338 544.182 673.352C543.892 677.844 544.02 682.591 544.564 687.592C545.138 692.486 546.712 697.164 549.287 701.624C550.926 704.462 552.828 706.742 554.994 708.465C557.16 710.188 559.434 711.397 561.818 712.093C564.27 712.75 566.71 712.918 569.137 712.597C571.633 712.238 574.029 711.395 576.327 710.068ZM552.843 701.463C551.751 699.571 551.055 697.585 550.755 695.505C550.523 693.387 550.678 691.315 551.221 689.29C551.764 687.265 552.651 685.446 553.882 683.834C555.142 682.115 556.752 680.69 558.712 679.559C560.604 678.466 562.609 677.804 564.728 677.572C566.807 677.273 568.86 677.394 570.885 677.937C572.91 678.479 574.748 679.4 576.399 680.7C578.118 681.96 579.523 683.536 580.616 685.428C581.747 687.388 582.429 689.427 582.661 691.545C582.921 693.557 582.78 695.576 582.238 697.601C581.695 699.626 580.794 701.498 579.534 703.216C578.234 704.868 576.639 706.239 574.747 707.332C572.787 708.463 570.767 709.179 568.688 709.478C566.637 709.671 564.599 709.496 562.574 708.954C560.549 708.411 558.696 707.543 557.017 706.351C555.366 705.052 553.974 703.422 552.843 701.463ZM560.589 696.855C561.604 698.612 563.036 699.767 564.887 700.32C566.767 700.767 568.551 700.502 570.241 699.527C571.93 698.552 573.017 697.158 573.503 695.346C574.017 693.427 573.786 691.623 572.811 689.934C571.836 688.245 570.408 687.177 568.529 686.73C566.678 686.177 564.907 686.388 563.218 687.364C561.596 688.3 560.528 689.727 560.014 691.646C559.461 693.497 559.653 695.233 560.589 696.855Z" fill="#A50000"/>
<path d="M261.817 680.009L258.839 664.099L282.709 656.932L298.926 666.295L259.893 733.903L237.999 721.262L261.817 680.009ZM254.743 720.118L284.413 668.728L281.575 667.089L268.971 670.895L269.497 673.496L279.788 670.653L252.108 718.596L254.743 720.118Z" fill="#A50000"/>
<path d="M229.745 661.493L226.767 645.583L250.637 638.417L266.854 647.78L227.821 715.387L205.927 702.747L229.745 661.493ZM222.671 701.602L252.341 650.212L249.503 648.574L236.899 652.379L237.425 654.98L247.716 652.137L220.035 700.08L222.671 701.602Z" fill="#A50000"/>
<path d="M268.48 144.196L287.029 133.486L290.413 156.67L249.159 180.488L236.784 97.4894L259.59 84.3222L268.48 144.196ZM248.459 101.56L257.857 164.654L280.562 151.546L280.07 148.586L260.304 159.998L251.297 99.9217L248.459 101.56Z" fill="#A50000"/>
<path d="M559.584 338.422C562.543 327.317 564.664 321.032 569.17 309.77C557.69 310.598 550.817 309.905 539.176 309.277C535.884 320.85 533.8 327.113 529.381 337.63C541.251 337.017 547.863 337.228 559.584 338.422Z" fill="#A50000"/>
<path d="M275.213 504.839C278.172 493.733 280.293 487.449 284.799 476.187C273.319 477.015 266.446 476.321 254.805 475.693C251.513 487.266 249.429 493.529 245.01 504.047C256.88 503.433 263.491 503.644 275.213 504.839Z" fill="#A50000"/>
<path d="M601.261 394.904V419.67H600.258C598.625 413.615 596.907 411.524 592.782 409.509C591.247 408.879 590.258 408.738 588.314 408.784C591.43 411.07 592.479 412.755 593.237 416.404C593.331 417.138 593.336 417.55 593.237 418.309C592.008 422.848 590.459 424.317 586.399 425.294C585.323 425.425 584.723 425.435 583.663 425.294C579.588 424.229 578.154 422.835 577.098 418.944C577.039 418.068 577.046 417.569 577.098 416.676C577.275 415.451 577.546 414.804 578.375 413.682C576.54 414.759 575.522 415.127 573.725 415.406C572.977 415.549 572.557 415.556 571.81 415.406C568.014 414.139 566.517 412.759 565.427 408.602C565.294 407.648 565.291 407.109 565.427 406.153C566.711 401.933 567.957 400.232 571.81 399.258C572.529 399.18 572.954 399.197 573.725 399.258C575.653 399.588 576.67 399.985 578.375 401.073C577.588 399.968 577.3 399.281 577.098 397.897C577.003 397.048 577.011 396.57 577.098 395.72C578.161 391.975 579.556 390.568 583.663 389.461H586.399C590.926 390.897 592.519 392.338 593.237 396.355V398.714C592.184 402.722 590.984 404.146 588.314 405.971H590.137C596.101 404.488 598.391 402.184 600.35 395.085L601.261 394.904Z" fill="#F7CA4B"/>
<path d="M215.686 392.961V417.727H216.689C218.323 411.673 220.041 409.581 224.166 407.567C225.701 406.937 226.69 406.796 228.634 406.841C225.517 409.127 224.469 410.813 223.71 414.461C223.617 415.196 223.611 415.608 223.71 416.366C224.939 420.905 226.488 422.375 230.548 423.352C231.625 423.483 232.224 423.492 233.284 423.352C237.36 422.287 238.793 420.893 239.849 417.001C239.908 416.126 239.901 415.626 239.849 414.734C239.672 413.509 239.402 412.862 238.572 411.74C240.407 412.816 241.425 413.184 243.223 413.464C243.97 413.606 244.39 413.614 245.138 413.464C248.933 412.197 250.43 410.817 251.52 406.66C251.653 405.706 251.656 405.166 251.52 404.21C250.236 399.991 248.99 398.29 245.138 397.316C244.419 397.237 243.993 397.255 243.223 397.316C241.294 397.646 240.277 398.042 238.572 399.13C239.359 398.025 239.647 397.339 239.849 395.955C239.944 395.105 239.936 394.627 239.849 393.778C238.787 390.032 237.391 388.626 233.284 387.518H230.548C226.021 388.955 224.428 390.395 223.71 394.413V396.772C224.763 400.779 225.963 402.203 228.634 404.029H226.81C220.846 402.546 218.556 400.242 216.598 393.143L215.686 392.961Z" fill="#F7CA4B"/>
<path d="M557.049 492.499C554.917 494.766 553.907 496.181 552.485 499.018L552.175 498.8C550.195 494.598 548.875 492.922 546.146 491.225L544.672 490.193C545.79 492.953 545.913 494.487 545.222 497.17L544.081 498.799L542.994 500.351C538.904 503.409 536.491 503.723 531.982 501.545L530.197 500.295C526.885 497.091 525.976 494.396 526.28 487.723L526.311 486.357C526.598 480.837 526.011 478.018 523.185 473.645C528.052 474.721 530.879 474.523 536.145 472.312L537.473 471.738C543.798 469.303 546.798 468.945 550.572 471.196L552.357 472.446C555.916 475.797 556.599 478.143 554.893 483.357L554.35 484.133L553.589 485.22C551.598 487.537 549.813 488.121 545.921 488.408L547.396 489.441C551.896 491.612 553.769 492.018 556.739 492.282L557.049 492.499Z" fill="#A50000"/>
<path d="M252.892 318.593C255.024 316.326 256.034 314.911 257.456 312.075L257.767 312.292C259.747 316.494 261.066 318.17 263.796 319.867L265.27 320.899C264.151 318.139 264.028 316.606 264.72 313.923L265.861 312.293L266.948 310.741C271.037 307.683 273.451 307.369 277.96 309.548L279.744 310.797C283.056 314.001 283.965 316.697 283.662 323.37L283.63 324.736C283.343 330.256 283.931 333.075 286.756 337.447C281.89 336.371 279.062 336.57 273.796 338.78L272.469 339.355C266.143 341.789 263.144 342.148 259.369 339.896L257.585 338.646C254.026 335.295 253.343 332.949 255.048 327.735L255.592 326.959L256.352 325.872C258.344 323.555 260.128 322.971 264.02 322.684L262.546 321.652C258.046 319.48 256.172 319.074 253.203 318.81L252.892 318.593Z" fill="#A50000"/>
<path d="M327.17 524.07C329.944 525.991 330.661 527.681 330.734 531.567C333.522 529.887 335.198 529.58 338.449 530.581C339.475 530.949 340.032 531.306 341.009 532.059C346.25 537.119 346.278 540.478 342.293 547.199C339.964 549.805 338.062 550.768 333.51 551.514L325.934 552.259C321.467 552.937 319.484 554.085 316.279 556.604C317.097 553.03 316.988 550.78 315.295 546.117L312.312 539.275C310.58 535.251 310.428 533.092 311.417 529.373C315.424 522.197 318.602 521.024 325.651 523.192C326.267 523.448 326.593 523.637 327.17 524.07Z" fill="#F7CA4B"/>
<path d="M490.507 283.761C487.733 281.84 487.017 280.15 486.943 276.264C484.155 277.944 482.479 278.251 479.229 277.249C478.203 276.882 477.646 276.524 476.669 275.771C471.428 270.712 471.4 267.353 475.384 260.631C477.714 258.025 479.616 257.063 484.168 256.317L491.744 255.572C496.211 254.893 498.194 253.745 501.399 251.227C500.581 254.8 500.69 257.051 502.383 261.714L505.366 268.555C507.097 272.58 507.25 274.739 506.261 278.458C502.253 285.633 499.076 286.807 492.027 284.638C491.411 284.383 491.085 284.194 490.507 283.761Z" fill="#F7CA4B"/>
<path d="M495.579 533.129C484.774 529.213 478.698 526.552 467.872 521.082C467.696 532.59 466.406 539.376 464.766 550.918C476.008 555.206 482.066 557.829 492.158 563.147C492.582 551.269 493.368 544.701 495.579 533.129Z" fill="#F7CA4B"/>
<path d="M318.477 274.637C329.283 278.553 335.358 281.214 346.185 286.684C346.36 275.176 347.65 268.39 349.29 256.847C338.049 252.559 331.991 249.937 321.898 244.618C321.475 256.497 320.689 263.065 318.477 274.637Z" fill="#F7CA4B"/>
<path d="M418.084 573.022H393.318V572.046C399.373 570.456 401.464 568.785 403.479 564.771C404.109 563.278 404.25 562.315 404.204 560.424C401.918 563.456 400.233 564.476 396.584 565.215C395.85 565.305 395.437 565.311 394.679 565.215C390.14 564.019 388.671 562.511 387.694 558.561C387.563 557.514 387.553 556.93 387.694 555.899C388.758 551.934 390.153 550.539 394.044 549.512C394.919 549.454 395.419 549.461 396.312 549.512C397.537 549.684 398.184 549.947 399.306 550.754C398.229 548.968 397.861 547.978 397.582 546.229C397.439 545.502 397.432 545.093 397.582 544.366C398.848 540.673 400.228 539.217 404.386 538.156C405.34 538.026 405.879 538.023 406.835 538.156C411.055 539.405 412.755 540.618 413.73 544.366C413.808 545.065 413.791 545.479 413.73 546.229C413.399 548.105 413.003 549.095 411.915 550.754C413.02 549.988 413.707 549.708 415.09 549.512C415.94 549.419 416.418 549.426 417.268 549.512C421.013 550.545 422.42 551.903 423.527 555.899V558.561C422.091 562.966 420.65 564.516 416.633 565.215H414.274C410.266 564.19 408.842 563.022 407.017 560.424V562.198C408.5 568.001 410.804 570.229 417.903 572.134L418.084 573.022Z" fill="#A50000"/>
<path d="M426.973 236.007H402.876V236.983C408.767 238.573 410.802 240.244 412.762 244.258C413.375 245.751 413.512 246.714 413.468 248.605C411.244 245.573 409.604 244.553 406.054 243.814C405.339 243.724 404.938 243.718 404.2 243.814C399.784 245.01 398.354 246.518 397.404 250.468C397.276 251.515 397.267 252.099 397.404 253.13C398.44 257.095 399.796 258.49 403.582 259.517C404.434 259.575 404.92 259.568 405.789 259.517C406.981 259.345 407.61 259.082 408.702 258.275C407.655 260.06 407.296 261.051 407.025 262.8C406.886 263.527 406.879 263.935 407.025 264.663C408.257 268.356 409.6 269.812 413.645 270.873C414.573 271.002 415.098 271.005 416.028 270.873C420.134 269.624 421.788 268.411 422.736 264.663C422.813 263.963 422.795 263.549 422.736 262.8C422.415 260.923 422.029 259.934 420.971 258.275C422.046 259.041 422.714 259.321 424.06 259.517C424.887 259.61 425.352 259.602 426.178 259.517C429.823 258.484 431.191 257.126 432.269 253.13V250.468C430.871 246.063 429.47 244.513 425.561 243.814H423.266C419.366 244.839 417.981 246.007 416.204 248.605V246.831C417.648 241.028 419.889 238.8 426.796 236.894L426.973 236.007Z" fill="#A50000"/>
</svg>
