<svg width="472" height="469" viewBox="0 0 472 469" fill="none" xmlns="http://www.w3.org/2000/svg">
<path d="M244.871 456.731C130.833 468.985 18.566 359.32 11.4531 242.317C8.06222 91.986 131.387 0.408287 252.989 12.8416C394.409 27.301 454.669 117.314 460.637 231.296C466.604 345.278 364.879 455.81 244.871 456.731Z" fill="#F7CA4B"/>
<path d="M203.4 231.326C241.743 236.713 268.456 272.162 263.065 310.504C257.674 348.846 222.221 375.562 183.877 370.176C145.533 364.789 118.82 329.34 124.211 290.998C129.602 252.656 165.056 225.94 203.4 231.326Z" fill="#A50000" stroke="#F7CA4B" stroke-width="10"/>
<circle cx="193.344" cy="300.385" r="46.2229" stroke="#F7CA4B" stroke-width="10"/>
<path d="M199.009 326.448C194.674 325.83 192.225 325.814 187.803 326.477L187.805 325.943C191.068 320.253 191.943 317.373 191.708 312.852L191.714 310.316C189.425 313.844 187.751 315.23 184.094 316.609C183.012 316.758 182.407 316.846 181.274 316.886C180.272 316.915 179.703 316.904 178.624 316.624C171.799 314.393 169.494 311.867 168.383 304.905L168.391 301.835C169.429 295.42 171.813 292.186 179.769 287.123L181.372 286.051C187.983 281.903 190.769 278.94 193.548 272.137C196.22 278.618 198.725 281.713 205.518 285.988L207.25 287.051C215.154 292.364 217.982 295.529 218.417 301.704L218.409 304.774C217.4 311.593 215.238 314.283 207.839 316.547L206.287 316.635L204.638 316.556C200.357 316.142 198.138 314.265 194.675 310.014L194.776 312.844C195.887 319.791 196.926 322.278 199.01 325.914L199.009 326.448Z" fill="#F7CA4B"/>
</svg>
